<svg width="38" height="28" viewBox="0 0 38 28" fill="none" xmlns="http://www.w3.org/2000/svg">
<path d="M25.3459 27.9392H32.8789L26.9781 16.5142H19.4451L25.3459 27.9392Z" fill="#3B1B6F"/>
<path d="M26.9786 16.5142L31.6235 0.318266H24.0906L19.4456 16.5142H26.9786Z" fill="#6437A0"/>
<path d="M31.6233 0.318115H24.0903L29.9912 11.7431H37.5241L31.6233 0.318115Z" fill="#C765F4"/>
<path d="M29.9911 11.7432L25.3462 27.9391H32.8792L37.5241 11.7432H29.9911Z" fill="#6C1DA8"/>
<path d="M16.0554 27.9392H23.5884L17.6875 16.5142H10.1546L16.0554 27.9392Z" fill="#3B1B6F"/>
<path d="M17.6881 16.5142L22.333 0.318266H14.8L10.1551 16.5142H17.6881Z" fill="#6437A0"/>
<path d="M22.3328 0.318115H14.7998L20.7006 11.7431H28.2336L22.3328 0.318115Z" fill="#C983EA"/>
<path d="M20.7001 11.7432L16.0552 27.9391H23.5882L28.2331 11.7432H20.7001Z" fill="#8121C9"/>
<path d="M6.76439 27.939H14.2974L8.39653 16.514H0.86356L6.76439 27.939Z" fill="#3B1B6F"/>
<path d="M8.39704 16.5139L13.042 0.318022H5.50902L0.864068 16.5139H8.39704Z" fill="#6437A0"/>
<path d="M13.0423 0.318115H5.50928L11.4101 11.7431H18.9431L13.0423 0.318115Z" fill="#DEACF5"/>
<path d="M11.4096 11.7432L6.76465 27.9391H14.2976L18.9426 11.7432H11.4096Z" fill="#9854CB"/>
</svg>
