<svg viewBox="0 0 190 50" fill="none" xmlns="http://www.w3.org/2000/svg">
<path d="M110.576 13.9535L121.506 9.8837L110.576 5.69766V0L129.297 7.55812V12.2093L110.576 19.7674V13.9535Z" fill="white"/>
<path d="M7.20928 49.9998C3.25581 49.9998 0 48.0231 0 43.6045V43.3719C0 38.0231 4.65115 36.1626 10.3488 36.1626H13.0232V35.1161C13.0232 32.9068 12.093 31.6278 9.76742 31.6278C7.6744 31.6278 6.62789 32.7905 6.51161 34.4185H0.697673C1.16279 29.5347 4.99999 27.2092 10.1163 27.2092C15.3488 27.2092 19.186 29.4185 19.186 34.8836V49.5347H13.2558V46.9766C12.093 48.6045 10.1163 49.9998 7.20928 49.9998ZM13.0232 42.3254V40.2324H10.5814C7.55812 40.2324 6.0465 41.0463 6.0465 43.0231V43.2556C6.0465 44.7673 6.97673 45.8138 9.06975 45.8138C11.1628 45.6975 13.0232 44.5347 13.0232 42.3254ZM33.0232 49.9998C26.9767 49.9998 22.5581 46.2789 22.5581 38.837V38.4882C22.5581 31.0464 27.2092 27.0929 33.0232 27.0929C38.0232 27.0929 42.0929 29.651 42.558 35.3487H36.7441C36.3953 33.2557 35.2325 31.8603 33.1395 31.8603C30.5813 31.8603 28.7209 33.9533 28.7209 38.2557V38.9533C28.7209 43.3719 30.3488 45.3487 33.1395 45.3487C35.2325 45.3487 36.7441 43.837 37.0929 41.3952H42.6743C42.3255 46.5114 38.9534 49.9998 33.0232 49.9998ZM55.8138 49.9998C49.7673 49.9998 45.3487 46.2789 45.3487 38.837V38.4882C45.3487 31.0464 49.9999 27.0929 55.8138 27.0929C60.8138 27.0929 64.8836 29.651 65.3487 35.3487H59.5347C59.1859 33.2557 58.0231 31.8603 55.9301 31.8603C53.372 31.8603 51.5115 33.9533 51.5115 38.2557V38.9533C51.5115 43.3719 53.1394 45.3487 55.9301 45.3487C58.0231 45.3487 59.5347 43.837 59.8836 41.3952H65.465C65.1161 46.5114 61.744 49.9998 55.8138 49.9998ZM78.7207 49.9998C72.4417 49.9998 68.1394 46.2789 68.1394 38.9533V38.4882C68.1394 31.1626 72.6742 27.0929 78.6045 27.0929C84.0696 27.0929 88.6044 30.1161 88.6044 37.4417V40.1161H74.3021C74.5347 44.0696 76.2789 45.5812 78.837 45.5812C81.1626 45.5812 82.4417 44.3022 82.9068 42.7905H88.6044C87.9068 46.8603 84.4184 49.9998 78.7207 49.9998ZM74.4184 36.0464H82.5579C82.4417 32.7905 80.93 31.3952 78.4882 31.3952C76.6277 31.5115 74.8835 32.558 74.4184 36.0464ZM92.3254 27.6743H98.4881V30.9301C99.5346 28.8371 101.744 27.2092 105.116 27.2092C109.07 27.2092 111.744 29.651 111.744 34.8836V49.5347H105.581V35.8138C105.581 33.2557 104.535 32.0929 102.325 32.0929C100.232 32.0929 98.4881 33.3719 98.4881 36.1626V49.5347H92.3254V27.6743ZM123.023 21.0464V27.6743H127.209V32.2092H123.023V42.558C123.023 44.1859 123.721 44.9998 125.232 44.9998C126.162 44.9998 126.744 44.8835 127.325 44.651V49.4184C126.628 49.651 125.349 49.8835 123.837 49.8835C119.069 49.8835 116.86 47.6742 116.86 43.2556V32.2092H114.302V27.6743H116.86V23.6045L123.023 21.0464ZM150.232 49.5347H144.186V46.2789C143.139 48.3719 141.046 49.9998 137.79 49.9998C133.837 49.9998 130.93 47.558 130.93 42.4417V27.6743H137.093V41.6277C137.093 44.1859 138.139 45.3487 140.232 45.3487C142.325 45.3487 144.069 43.9533 144.069 41.2789V27.6743H150.232V49.5347ZM154.767 27.6743H160.93V31.744C162.209 28.8371 164.302 27.4417 167.558 27.4417V33.4882C163.372 33.4882 160.93 34.7673 160.93 38.3719V49.651H154.767V27.6743ZM180 49.9998C173.721 49.9998 169.418 46.2789 169.418 38.9533V38.4882C169.418 31.1626 173.953 27.0929 179.883 27.0929C185.348 27.0929 189.883 30.1161 189.883 37.4417V40.1161H175.697C175.93 44.0696 177.674 45.5812 180.232 45.5812C182.558 45.5812 183.837 44.3022 184.302 42.7905H190C189.069 46.8603 185.697 49.9998 180 49.9998ZM175.581 36.0464H183.837C183.721 32.7905 182.209 31.3952 179.767 31.3952C177.907 31.5115 176.162 32.558 175.581 36.0464Z" fill="white"/>
</svg>
