<svg width="101" height="101" viewBox="0 0 101 101" fill="none" xmlns="http://www.w3.org/2000/svg">
<circle cx="50.5" cy="50.5" r="50.5" fill="#5B5B5B" fill-opacity="0.2"/>
<circle cx="50.5" cy="50.5" r="50" stroke="#797979" stroke-opacity="0.4"/>
<path d="M62.5393 67.957C62.4186 67.957 62.299 67.9813 62.1874 68.0285C62.0759 68.0757 61.9745 68.1449 61.8891 68.2322C61.8037 68.3194 61.736 68.423 61.6898 68.5369C61.6436 68.6509 61.6198 68.773 61.6198 68.8964V75.5638C61.6187 76.5071 61.2513 77.4115 60.5984 78.0785C59.9454 78.7456 59.0601 79.1208 58.1367 79.122H36.322C35.3986 79.1208 34.5133 78.7455 33.8604 78.0785C33.2074 77.4114 32.8401 76.5071 32.839 75.5638V26.4368C32.8401 25.4935 33.2074 24.5891 33.8604 23.9221C34.5133 23.2551 35.3986 22.8798 36.322 22.8786H58.1367C59.0601 22.8798 59.9454 23.255 60.5984 23.9221C61.2513 24.5891 61.6187 25.4935 61.6198 26.4368V46.4605C61.6198 46.7096 61.7167 46.9486 61.8891 47.1247C62.0616 47.3009 62.2955 47.3999 62.5393 47.3999C62.7832 47.3999 63.0171 47.3009 63.1896 47.1247C63.362 46.9486 63.4589 46.7096 63.4589 46.4605V26.4368C63.4573 24.9954 62.896 23.6134 61.8983 22.5942C60.9005 21.5749 59.5477 21.0016 58.1367 21H36.322C34.911 21.0016 33.5582 21.575 32.5605 22.5942C31.5628 23.6135 31.0016 24.9954 31 26.4368V75.5632C31.0016 77.0046 31.5628 78.3865 32.5605 79.4058C33.5582 80.425 34.911 80.9984 36.322 81H58.1367C59.5478 80.9985 60.9008 80.4253 61.8986 79.406C62.8965 78.3868 63.4579 77.0047 63.4595 75.5632V68.8958C63.4594 68.7725 63.4355 68.6503 63.3892 68.5364C63.343 68.4224 63.2752 68.3189 63.1897 68.2318C63.1043 68.1446 63.0029 68.0754 62.8913 68.0283C62.7797 67.9812 62.6601 67.957 62.5393 67.957Z" fill="url(#paint0_linear_271_3519)"/>
<path d="M45.8566 77.0495H48.6018C48.8439 77.0468 49.0751 76.9466 49.2454 76.7707C49.4156 76.5949 49.5111 76.3575 49.5111 76.1102C49.5111 75.8629 49.4156 75.6256 49.2454 75.4497C49.0751 75.2738 48.8439 75.1737 48.6018 75.1709H45.8566C45.6145 75.1737 45.3832 75.2738 45.213 75.4497C45.0427 75.6256 44.9473 75.8629 44.9473 76.1102C44.9473 76.3575 45.0427 76.5949 45.213 76.7707C45.3832 76.9466 45.6145 77.0468 45.8566 77.0495Z" fill="url(#paint1_linear_271_3519)"/>
<path d="M52.8817 27.3347C53.0034 27.3361 53.124 27.3129 53.2368 27.2663C53.3495 27.2197 53.4521 27.1507 53.5386 27.0634C53.6251 26.976 53.6937 26.872 53.7406 26.7573C53.7874 26.6427 53.8116 26.5197 53.8116 26.3954C53.8116 26.2712 53.7874 26.1482 53.7406 26.0335C53.6937 25.9189 53.6251 25.8149 53.5386 25.7275C53.4521 25.6401 53.3495 25.5712 53.2368 25.5246C53.124 25.478 53.0034 25.4547 52.8817 25.4561H41.5753C41.3332 25.4589 41.102 25.5591 40.9317 25.7349C40.7615 25.9108 40.666 26.1481 40.666 26.3954C40.666 26.6428 40.7615 26.8801 40.9317 27.0559C41.102 27.2318 41.3332 27.332 41.5753 27.3347H52.8817Z" fill="url(#paint2_linear_271_3519)"/>
<path d="M35.7412 55.0205C35.7417 55.4377 35.9041 55.8377 36.1929 56.1327C36.4817 56.4276 36.8732 56.5936 37.2816 56.594H44.3923C44.8007 56.5936 45.1922 56.4276 45.481 56.1327C45.7698 55.8377 45.9323 55.4377 45.9327 55.0205V48.0666C45.9323 47.6495 45.7698 47.2495 45.481 46.9545C45.1922 46.6596 44.8007 46.4936 44.3923 46.4932H37.2816C36.8732 46.4936 36.4817 46.6596 36.1929 46.9545C35.9041 47.2495 35.7417 47.6495 35.7412 48.0666V55.0205ZM37.5802 48.3719H44.0936V54.7159H37.5802V48.3719Z" fill="url(#paint3_linear_271_3519)"/>
<path d="M35.5576 34.9441V41.7098C35.5581 42.1157 35.7195 42.5048 36.0065 42.7918C36.2934 43.0788 36.6824 43.2402 37.0882 43.2407H44.1536C44.5594 43.2402 44.9484 43.0788 45.2354 42.7918C45.5223 42.5048 45.6837 42.1157 45.6842 41.7098V34.9441C45.6837 34.5382 45.5223 34.149 45.2354 33.862C44.9485 33.575 44.5594 33.4135 44.1536 33.4131H37.0882C36.6824 33.4135 36.2934 33.575 36.0064 33.862C35.7195 34.149 35.5581 34.5382 35.5576 34.9441ZM37.3849 35.2406H43.8568V41.4125H37.3849V35.2406Z" fill="url(#paint4_linear_271_3519)"/>
<path d="M58.8483 41.7098V34.9441C58.8478 34.5382 58.6864 34.149 58.3994 33.862C58.1125 33.575 57.7234 33.4135 57.3176 33.4131H50.2523C49.8465 33.4135 49.4574 33.575 49.1705 33.862C48.8835 34.149 48.7221 34.5382 48.7217 34.9441V41.7098C48.7222 42.1157 48.8836 42.5048 49.1705 42.7918C49.4575 43.0788 49.8465 43.2402 50.2523 43.2407H57.3181C57.7238 43.2401 58.1127 43.0786 58.3996 42.7916C58.6864 42.5046 58.8478 42.1156 58.8483 41.7098ZM57.0209 41.4133H50.5492V35.2409H57.0214L57.0209 41.4133Z" fill="url(#paint5_linear_271_3519)"/>
<path d="M35.5576 68.0896C35.5581 68.4955 35.7195 68.8847 36.0065 69.1717C36.2934 69.4587 36.6824 69.6201 37.0882 69.6206H44.1536C44.5594 69.6201 44.9484 69.4587 45.2354 69.1717C45.5223 68.8847 45.6837 68.4955 45.6842 68.0896V61.324C45.6837 60.9181 45.5223 60.5289 45.2354 60.2419C44.9485 59.9549 44.5594 59.7934 44.1536 59.793H37.0882C36.6824 59.7934 36.2934 59.9549 36.0064 60.2419C35.7195 60.5289 35.5581 60.9181 35.5576 61.324V68.0896ZM37.3849 61.6208H43.8568V67.7927H37.3849V61.6208Z" fill="url(#paint6_linear_271_3519)"/>
<path d="M51.9901 61.6208C52.2306 61.6181 52.4604 61.5207 52.6296 61.3496C52.7987 61.1785 52.8936 60.9475 52.8936 60.7069C52.8936 60.4663 52.7987 60.2353 52.6296 60.0642C52.4604 59.8931 52.2306 59.7957 51.9901 59.793H50.2658C49.8564 59.7934 49.4639 59.9563 49.1744 60.2458C48.885 60.5354 48.7221 60.928 48.7217 61.3375V68.0761C48.7222 68.4856 48.885 68.8782 49.1745 69.1677C49.4639 69.4572 49.8564 69.6201 50.2658 69.6206H57.3047C57.7139 69.62 58.1062 69.4571 58.3955 69.1677C58.6849 68.8782 58.8477 68.4858 58.8482 68.0765V66.4963C58.8496 66.3754 58.8269 66.2554 58.7816 66.1434C58.7363 66.0313 58.6692 65.9293 58.5842 65.8434C58.4993 65.7574 58.3981 65.6892 58.2866 65.6426C58.175 65.596 58.0554 65.5721 57.9345 65.5721C57.8137 65.5721 57.694 65.596 57.5825 65.6426C57.471 65.6892 57.3698 65.7574 57.2848 65.8434C57.1998 65.9293 57.1328 66.0313 57.0875 66.1434C57.0421 66.2554 57.0195 66.3754 57.0209 66.4963V67.793H50.5491V61.6208H51.9901Z" fill="url(#paint7_linear_271_3519)"/>
<path d="M70.7162 61.9601L64.056 54.9861L67.0214 52.9345C67.1749 52.8283 67.2964 52.6785 67.3717 52.5027C67.447 52.3269 67.473 52.1323 67.4466 51.9417C67.4203 51.751 67.3427 51.5721 67.2229 51.4258C67.1031 51.2796 66.946 51.172 66.7701 51.1158L52.0012 46.3893C51.8328 46.3353 51.6536 46.3303 51.4827 46.3748C51.3119 46.4193 51.1558 46.5117 51.0313 46.6421C50.9067 46.7725 50.8184 46.9359 50.7759 47.1148C50.7333 47.2937 50.738 47.4814 50.7896 47.6577L55.3029 63.122C55.3567 63.3062 55.4593 63.4707 55.599 63.5962C55.7387 63.7216 55.9095 63.8029 56.0916 63.8305C56.2737 63.8581 56.4596 63.8309 56.6275 63.752C56.7954 63.6732 56.9384 63.546 57.0398 63.3852L58.9993 60.28L65.6592 67.2538C65.7493 67.3482 65.8563 67.4231 65.974 67.4742C66.0918 67.5253 66.218 67.5516 66.3454 67.5516C66.4729 67.5516 66.5991 67.5253 66.7168 67.4742C66.8346 67.4231 66.9415 67.3482 67.0316 67.2538L70.7162 63.3968C70.8981 63.2062 71.0002 62.9479 71.0002 62.6785C71.0002 62.4091 70.8981 62.1507 70.7162 61.9601ZM66.3463 65.6296L59.5887 58.5535C59.4869 58.447 59.3638 58.3655 59.2283 58.3149C59.0928 58.2644 58.9482 58.246 58.8051 58.2612C58.6619 58.2764 58.5238 58.3247 58.4007 58.4027C58.2776 58.4806 58.1726 58.5863 58.0933 58.712L56.4367 61.3373L52.6392 48.3257L65.0656 52.3021L62.5591 54.0362C62.4389 54.1192 62.3379 54.2292 62.2633 54.3581C62.1888 54.487 62.1425 54.6317 62.128 54.7817C62.1135 54.9317 62.131 55.0831 62.1794 55.2251C62.2277 55.3671 62.3056 55.496 62.4074 55.6026L69.165 62.6784L66.3463 65.6296Z" fill="url(#paint8_linear_271_3519)"/>
<defs>
<linearGradient id="paint0_linear_271_3519" x1="31" y1="21" x2="68.4348" y2="24.2839" gradientUnits="userSpaceOnUse">
<stop stop-color="#9854CB"/>
<stop offset="1" stop-color="#5C19E9"/>
</linearGradient>
<linearGradient id="paint1_linear_271_3519" x1="44.9473" y1="75.1709" x2="49.5386" y2="76.9796" gradientUnits="userSpaceOnUse">
<stop stop-color="#9854CB"/>
<stop offset="1" stop-color="#5C19E9"/>
</linearGradient>
<linearGradient id="paint2_linear_271_3519" x1="40.666" y1="25.4561" x2="47.3451" y2="33.0341" gradientUnits="userSpaceOnUse">
<stop stop-color="#9854CB"/>
<stop offset="1" stop-color="#5C19E9"/>
</linearGradient>
<linearGradient id="paint3_linear_271_3519" x1="35.7412" y1="46.4932" x2="47.2766" y2="48.3805" gradientUnits="userSpaceOnUse">
<stop stop-color="#9854CB"/>
<stop offset="1" stop-color="#5C19E9"/>
</linearGradient>
<linearGradient id="paint4_linear_271_3519" x1="35.5576" y1="33.4131" x2="47.0066" y2="35.3261" gradientUnits="userSpaceOnUse">
<stop stop-color="#9854CB"/>
<stop offset="1" stop-color="#5C19E9"/>
</linearGradient>
<linearGradient id="paint5_linear_271_3519" x1="48.7217" y1="33.4131" x2="60.1707" y2="35.3261" gradientUnits="userSpaceOnUse">
<stop stop-color="#9854CB"/>
<stop offset="1" stop-color="#5C19E9"/>
</linearGradient>
<linearGradient id="paint6_linear_271_3519" x1="35.5576" y1="59.793" x2="47.0066" y2="61.706" gradientUnits="userSpaceOnUse">
<stop stop-color="#9854CB"/>
<stop offset="1" stop-color="#5C19E9"/>
</linearGradient>
<linearGradient id="paint7_linear_271_3519" x1="48.7217" y1="59.793" x2="60.1707" y2="61.706" gradientUnits="userSpaceOnUse">
<stop stop-color="#9854CB"/>
<stop offset="1" stop-color="#5C19E9"/>
</linearGradient>
<linearGradient id="paint8_linear_271_3519" x1="50.7471" y1="46.3447" x2="73.7331" y2="49.9044" gradientUnits="userSpaceOnUse">
<stop stop-color="#9854CB"/>
<stop offset="1" stop-color="#5C19E9"/>
</linearGradient>
</defs>
</svg>
