<svg  viewBox="0 0 420 376" fill="none" xmlns="http://www.w3.org/2000/svg">
<g opacity="0.5">
<g opacity="0.6">
<path d="M158.422 253.761C75.8149 298.009 29.2492 304.99 54.5046 269.342C79.76 233.693 167.337 168.821 249.944 124.573C332.55 80.3253 379.116 73.3434 353.861 108.992C328.605 144.641 241.028 209.513 158.422 253.761Z" stroke="url(#paint0_linear_271_3991)" stroke-width="1.25698" stroke-linecap="round" stroke-linejoin="round" stroke-dasharray="60.34 60.34"/>
<path d="M158.421 253.759C75.8155 298.006 29.2514 304.988 54.5064 269.339C79.7615 233.691 167.336 168.822 249.941 124.574C332.547 80.327 379.111 73.3453 353.856 108.994C328.601 144.642 241.026 209.511 158.421 253.759Z" stroke="#C413FF" stroke-width="3.56829"/>
<path d="M158.421 253.759C75.8155 298.006 29.2514 304.988 54.5064 269.339C79.7615 233.691 167.336 168.822 249.941 124.574C332.547 80.327 379.111 73.3453 353.856 108.994C328.601 144.642 241.026 209.511 158.421 253.759Z" stroke="#9A9A9A" stroke-opacity="0.5" stroke-width="1.07049" stroke-linecap="round" stroke-linejoin="round"/>
</g>
<g opacity="0.8">
<path d="M214.657 163.146C284.123 236.639 340.525 309.231 340.525 325.147C340.525 341.062 284.123 294.313 214.657 220.82C145.19 147.327 88.7891 74.7338 88.7891 58.8186C88.7891 42.9034 145.19 89.6523 214.657 163.146Z" stroke="#C413FF" stroke-width="2.23814"/>
</g>
<g opacity="0.5">
<path d="M217.61 3.65994C319.465 4.02417 401.872 86.9223 401.512 188.659C401.152 290.396 318.16 372.703 216.304 372.339C114.448 371.974 32.0419 289.076 32.402 187.339C32.7622 85.6025 115.754 3.29572 217.61 3.65994Z" stroke="#C413FF" stroke-width="5.67755"/>
</g>
<path d="M214.94 69.5016C280.126 69.8321 332.788 122.963 332.462 188.072C332.136 253.18 278.944 305.775 213.757 305.445C148.571 305.114 95.9089 251.983 96.2351 186.874C96.5613 121.766 149.753 69.1712 214.94 69.5016Z" stroke="#C413FF" stroke-width="3.63345"/>
<path d="M130.758 173.008C80.9057 182.56 74.4838 196.726 116.426 204.622C158.369 212.518 232.899 211.174 282.751 201.622C332.603 192.071 339.025 177.905 297.083 170.009C255.14 162.113 180.61 163.457 130.758 173.008Z" stroke="#C413FF" stroke-width="2.59448"/>
<path d="M28.713 166.784C12.8664 168.628 81.2346 179.1 181.287 190.153C281.339 201.207 375.439 208.684 391.286 206.84C407.133 204.996 338.764 194.524 238.712 183.471C138.66 172.417 44.5596 164.94 28.713 166.784Z" stroke="#C413FF" stroke-width="2.23375"/>
<g opacity="0.5">
<path d="M28.7138 166.786C12.8677 168.63 81.2364 179.102 181.288 190.155C281.341 201.208 375.441 208.685 391.287 206.841C407.133 204.997 338.765 194.525 238.712 183.472C138.66 172.419 44.5599 164.942 28.7138 166.786Z" stroke="#C413FF" stroke-width="2.23372"/>
</g>
<path d="M155.012 293.686C184.476 309.988 220.676 313.659 254.544 300.666C315.365 277.33 345.792 209.028 322.444 148.238C299.097 87.4478 230.758 57.0374 169.937 80.3725C109.115 103.708 78.6886 172.01 102.036 232.8C112.382 259.739 131.564 280.713 155.012 293.686Z" stroke="#C413FF" stroke-width="3.63252"/>
<path d="M155.012 293.686C184.476 309.988 220.676 313.659 254.544 300.666C315.365 277.33 345.792 209.028 322.444 148.238C299.097 87.4478 230.758 57.0374 169.937 80.3725C109.115 103.708 78.6886 172.01 102.036 232.8C112.382 259.739 131.564 280.713 155.012 293.686Z" stroke="#C413FF" stroke-width="3.63252"/>
</g>
<defs>
<linearGradient id="paint0_linear_271_3991" x1="235.254" y1="150.463" x2="147.095" y2="119.524" gradientUnits="userSpaceOnUse">
<stop stop-color="white"/>
<stop offset="1"/>
</linearGradient>
</defs>
</svg>
