<svg width="101" height="101" viewBox="0 0 101 101" fill="none" xmlns="http://www.w3.org/2000/svg">
<circle cx="50.5" cy="50.5" r="50.5" fill="#5B5B5B" fill-opacity="0.2"/>
<circle cx="50.5" cy="50.5" r="50" stroke="#797979" stroke-opacity="0.4"/>
<path d="M33.0531 70.5658C32.9505 70.5658 32.8352 70.5398 32.7326 70.4876C32.5403 70.3702 32.4121 70.1485 32.4121 69.9137V62.0885C32.4121 61.8538 32.5275 61.6451 32.7198 61.5277L39.1298 57.6151C39.3349 57.4977 39.5784 57.4977 39.7707 57.6021C39.9759 57.7195 40.1041 57.9412 40.1041 58.1759V66.0011C40.1041 66.2359 39.9887 66.4446 39.7964 66.5619L33.3864 70.4745C33.2839 70.5398 33.1685 70.5658 33.0531 70.5658ZM33.6941 62.4537V68.753L38.8221 65.6229V59.3236L33.6941 62.4537Z" fill="url(#paint0_linear_271_3557)"/>
<path d="M68.9467 70.5658C68.8441 70.5658 68.7287 70.5398 68.6262 70.4876C68.4339 70.3702 68.3057 70.1485 68.3057 69.9137V62.0885C68.3057 61.8538 68.421 61.6451 68.6133 61.5277L75.0233 57.6151C75.2156 57.4977 75.472 57.4977 75.6643 57.6021C75.8694 57.7195 75.9976 57.9412 75.9976 58.1759V66.0011C75.9976 66.2359 75.8822 66.4446 75.6899 66.5619L69.28 70.4745C69.1774 70.5398 69.062 70.5658 68.9467 70.5658ZM69.5877 62.4537V68.753L74.7156 65.6229V59.3236L69.5877 62.4537Z" fill="url(#paint1_linear_271_3557)"/>
<path d="M51.0013 37.9604C50.8988 37.9604 50.7834 37.9343 50.6808 37.8821C50.4886 37.7647 50.3604 37.543 50.3604 37.3083V29.4831C50.3604 29.2483 50.4757 29.0396 50.668 28.9223L57.078 25.0097C57.2703 24.8923 57.5267 24.8923 57.719 24.9966C57.9241 25.114 58.0523 25.3357 58.0523 25.5705V33.3957C58.0523 33.6304 57.9369 33.8391 57.7446 33.9565L51.3347 37.8691C51.2321 37.9343 51.1167 37.9604 51.0013 37.9604ZM51.6423 29.8482V36.1475L56.7703 33.0175V26.7182L51.6423 29.8482Z" fill="url(#paint2_linear_271_3557)"/>
<path d="M51.0013 80.9994C50.8988 80.9994 50.7834 80.9733 50.6808 80.9212C50.4886 80.8038 50.3604 80.5821 50.3604 80.3473V72.5221C50.3604 72.2874 50.4757 72.0787 50.668 71.9613L57.078 68.0487C57.2703 67.9313 57.5267 67.9313 57.719 68.0357C57.9241 68.1531 58.0523 68.3748 58.0523 68.6095V76.4347C58.0523 76.6695 57.9369 76.8782 57.7446 76.9955L51.3347 80.9081C51.2321 80.9733 51.1167 80.9994 51.0013 80.9994ZM51.6423 72.8873V79.1866L56.7703 76.0565V69.7572L51.6423 72.8873Z" fill="url(#paint3_linear_271_3557)"/>
<path d="M68.9476 48.3949C68.8451 48.3949 68.7297 48.3689 68.6271 48.3167C68.4348 48.1993 68.3066 47.9776 68.3066 47.7428V39.9176C68.3066 39.6829 68.422 39.4742 68.6143 39.3568L75.0243 35.4442C75.2166 35.3268 75.473 35.3269 75.6653 35.4312C75.8704 35.5486 75.9986 35.7703 75.9986 36.005V43.8302C75.9986 44.065 75.8832 44.2737 75.6909 44.391L69.281 48.3036C69.1784 48.3689 69.063 48.3949 68.9476 48.3949ZM69.5886 40.2828V46.5821L74.7166 43.452V37.1527L69.5886 40.2828Z" fill="url(#paint4_linear_271_3557)"/>
<path d="M33.0531 48.3949C32.9505 48.3949 32.8352 48.3689 32.7326 48.3167C32.5403 48.1993 32.4121 47.9776 32.4121 47.7428V39.9176C32.4121 39.6829 32.5275 39.4742 32.7198 39.3568L39.1298 35.4442C39.3349 35.3268 39.5784 35.3269 39.7707 35.4312C39.9759 35.5486 40.1041 35.7703 40.1041 36.005V43.8302C40.1041 44.065 39.9887 44.2737 39.7964 44.391L33.3864 48.3036C33.2839 48.3689 33.1685 48.3949 33.0531 48.3949ZM33.6941 40.2828V46.5821L38.8221 43.452V37.1527L33.6941 40.2828Z" fill="url(#paint5_linear_271_3557)"/>
<path d="M60.6164 35.6141C60.501 35.6141 60.3856 35.5881 60.2831 35.5228L59.0011 34.7403C58.6934 34.5577 58.6037 34.1534 58.7831 33.8404C58.9626 33.5274 59.36 33.4361 59.6677 33.6187L60.9497 34.4012C61.2574 34.5838 61.3471 34.9881 61.1676 35.3011C61.0394 35.4968 60.8343 35.6141 60.6164 35.6141Z" fill="url(#paint6_linear_271_3557)"/>
<path d="M51.0004 63.0024C50.6414 63.0024 50.3594 62.7155 50.3594 62.3503V61.1765C50.3594 60.8113 50.6414 60.5244 51.0004 60.5244C51.3593 60.5244 51.6414 60.8113 51.6414 61.1765V62.3503C51.6414 62.7155 51.3593 63.0024 51.0004 63.0024Z" fill="url(#paint7_linear_271_3557)"/>
<path d="M60.719 57.5904C60.6036 57.5904 60.4882 57.5643 60.3856 57.4991L59.0011 56.6514C58.6934 56.4688 58.6037 56.0645 58.7831 55.7515C58.9626 55.4385 59.36 55.3342 59.6677 55.5298L61.0523 56.3775C61.3599 56.5601 61.4497 56.9644 61.2702 57.2774C61.1548 57.473 60.9369 57.5904 60.719 57.5904Z" fill="url(#paint8_linear_271_3557)"/>
<path d="M59.3344 68.4794C59.1165 68.4794 58.9113 68.362 58.7831 68.1664C58.6037 67.8534 58.6934 67.4621 59.0011 67.2665L60.2831 66.4839C60.5908 66.3014 60.9754 66.3927 61.1676 66.7057C61.3599 67.0187 61.2574 67.4099 60.9497 67.6056L59.6677 68.3881C59.5652 68.4533 59.4498 68.4794 59.3344 68.4794Z" fill="url(#paint9_linear_271_3557)"/>
<path d="M59.3334 46.57C59.1155 46.57 58.9104 46.4526 58.7822 46.257C58.6027 45.944 58.6924 45.5527 59.0001 45.3571L60.3847 44.5093C60.6795 44.3268 61.0769 44.418 61.2692 44.7311C61.4487 45.0441 61.359 45.4353 61.0513 45.631L59.6667 46.4787C59.5642 46.5439 59.4488 46.57 59.3334 46.57Z" fill="url(#paint10_linear_271_3557)"/>
<path d="M68.9486 52.5686C68.5897 52.5686 68.3076 52.2816 68.3076 51.9165V50.0906C68.3076 49.7254 68.5897 49.4385 68.9486 49.4385C69.3076 49.4385 69.5896 49.7254 69.5896 50.0906V51.9165C69.5896 52.2816 69.3076 52.5686 68.9486 52.5686Z" fill="url(#paint11_linear_271_3557)"/>
<path d="M51.0004 41.4809C50.6414 41.4809 50.3594 41.194 50.3594 40.8288V39.655C50.3594 39.2899 50.6414 39.0029 51.0004 39.0029C51.3593 39.0029 51.6414 39.2899 51.6414 39.655V40.8288C51.6414 41.194 51.3593 41.4809 51.0004 41.4809Z" fill="url(#paint12_linear_271_3557)"/>
<path d="M41.3862 35.6141C41.1682 35.6141 40.9631 35.4968 40.8349 35.3011C40.6554 34.9881 40.7452 34.5969 41.0528 34.4012L42.3348 33.6187C42.6425 33.4361 43.0271 33.5274 43.2194 33.8404C43.3989 34.1534 43.3091 34.5447 43.0015 34.7403L41.7195 35.5228C41.6169 35.5881 41.5015 35.6141 41.3862 35.6141Z" fill="url(#paint13_linear_271_3557)"/>
<path d="M41.3862 57.5243C41.1682 57.5243 40.9631 57.4069 40.8349 57.2113C40.6554 56.8983 40.7452 56.507 41.0528 56.3114L42.3348 55.5289C42.6297 55.3463 43.0271 55.4376 43.2194 55.7506C43.3989 56.0636 43.3091 56.4549 43.0015 56.6505L41.7195 57.433C41.6169 57.4982 41.5015 57.5243 41.3862 57.5243Z" fill="url(#paint14_linear_271_3557)"/>
<path d="M42.6681 68.4794C42.5528 68.4794 42.4374 68.4533 42.3348 68.3881L41.0528 67.6056C40.7452 67.423 40.6554 67.0187 40.8349 66.7057C41.0144 66.3927 41.4118 66.3014 41.7195 66.4839L43.0015 67.2665C43.3091 67.4491 43.3989 67.8534 43.2194 68.1664C43.0912 68.362 42.8861 68.4794 42.6681 68.4794Z" fill="url(#paint15_linear_271_3557)"/>
<path d="M33.0531 52.4381C32.6941 52.4381 32.4121 52.1512 32.4121 51.786V50.0906C32.4121 49.7254 32.6941 49.4385 33.0531 49.4385C33.4121 49.4385 33.6941 49.7254 33.6941 50.0906V51.786C33.6941 52.1512 33.4121 52.4381 33.0531 52.4381Z" fill="url(#paint16_linear_271_3557)"/>
<path d="M42.6672 46.5689C42.5518 46.5689 42.4364 46.5428 42.3339 46.4776L40.9493 45.6299C40.6416 45.4473 40.5519 45.043 40.7314 44.73C40.9109 44.417 41.3083 44.3127 41.616 44.5083L43.0005 45.356C43.3082 45.5386 43.3979 45.9429 43.2185 46.2559C43.0903 46.4516 42.8851 46.5689 42.6672 46.5689Z" fill="url(#paint17_linear_271_3557)"/>
<path d="M33.0519 40.5695C32.9366 40.5695 32.8212 40.5434 32.7186 40.4782L26.3087 36.5656C26.1164 36.4482 26.001 36.2396 26.001 36.0048C26.001 35.7701 26.1164 35.5614 26.3087 35.444L32.7186 31.5314C32.9237 31.401 33.1801 31.401 33.3724 31.5314L39.7824 35.444C39.9875 35.5614 40.1029 35.7701 40.1029 36.0048C40.1029 36.2396 39.9875 36.4482 39.7952 36.5656L33.3853 40.4782C33.2827 40.5434 33.1673 40.5695 33.0519 40.5695ZM27.8855 36.0048L33.0519 39.161L38.2184 36.0048L33.0519 32.8487L27.8855 36.0048Z" fill="url(#paint18_linear_271_3557)"/>
<path d="M33.053 62.7414C32.835 62.7414 32.6299 62.624 32.5017 62.4284C32.3222 62.1154 32.412 61.7241 32.7196 61.5285L38.2194 58.1767L33.053 55.0205L26.9763 58.7375C26.6686 58.9201 26.2712 58.8288 26.0917 58.5158C25.9123 58.2028 26.002 57.8115 26.3097 57.6159L32.7196 53.7033C32.9248 53.5729 33.1812 53.5729 33.3735 53.7033L39.7834 57.6159C39.9885 57.7333 40.1039 57.9419 40.1039 58.1767C40.1039 58.4114 39.9885 58.6201 39.7962 58.7375L33.3863 62.6501C33.2837 62.7153 33.1683 62.7414 33.053 62.7414Z" fill="url(#paint19_linear_271_3557)"/>
<path d="M33.0519 70.5668C32.9366 70.5668 32.8212 70.5407 32.7186 70.4755L26.3087 66.5629C26.1164 66.4456 26.001 66.2369 26.001 66.0021V58.1769C26.001 57.9422 26.1292 57.7204 26.3215 57.6031C26.5266 57.4857 26.7702 57.4857 26.9625 57.6161L33.3724 61.5287C33.5776 61.6461 33.6929 61.8548 33.6929 62.0895V69.9147C33.6929 70.1495 33.5647 70.3712 33.3724 70.4886C33.2699 70.5407 33.1545 70.5668 33.0519 70.5668ZM27.283 65.6369L32.4109 68.767V62.4677L27.283 59.3377V65.6369Z" fill="url(#paint20_linear_271_3557)"/>
<path d="M68.9494 62.7414C68.7315 62.7414 68.5264 62.624 68.3982 62.4284C68.2187 62.1154 68.3084 61.7241 68.6161 61.5285L74.1159 58.1767L68.9494 55.0205L62.8728 58.7375C62.5779 58.9201 62.1805 58.8288 61.9882 58.5158C61.8087 58.2028 61.8985 57.8115 62.2062 57.6159L68.6161 53.7033C68.8212 53.5729 69.0776 53.5729 69.2699 53.7033L75.6799 57.6159C75.885 57.7333 76.0004 57.9419 76.0004 58.1767C76.0004 58.4114 75.885 58.6201 75.6927 58.7375L69.2828 62.6501C69.1802 62.7153 69.0648 62.7414 68.9494 62.7414Z" fill="url(#paint21_linear_271_3557)"/>
<path d="M68.9474 70.5668C68.8321 70.5668 68.7167 70.5407 68.6141 70.4755L62.2042 66.5629C62.0119 66.4456 61.8965 66.2369 61.8965 66.0021V58.1769C61.8965 57.9422 62.0247 57.7204 62.217 57.6031C62.4221 57.4857 62.6657 57.4857 62.858 57.6161L69.2679 61.5287C69.4731 61.6461 69.5884 61.8548 69.5884 62.0895V69.9147C69.5884 70.1495 69.4602 70.3712 69.2679 70.4886C69.1654 70.5407 69.05 70.5668 68.9474 70.5668ZM63.1785 65.6369L68.3064 68.767V62.4677L63.1785 59.3377V65.6369Z" fill="url(#paint22_linear_271_3557)"/>
<path d="M51.0002 30.1359C50.7823 30.1359 50.5772 30.0185 50.449 29.8229C50.2695 29.5099 50.3592 29.1187 50.6669 28.923L56.1667 25.5712L51.0002 22.4151L44.9236 26.132C44.6159 26.3146 44.2185 26.2233 44.039 25.9103C43.8595 25.5973 43.9493 25.206 44.2569 25.0104L50.6669 21.0978C50.872 20.9674 51.1284 20.9674 51.3207 21.0978L57.7307 25.0104C57.9358 25.1278 58.0512 25.3365 58.0512 25.5712C58.0512 25.806 57.9358 26.0147 57.7435 26.132L51.3335 30.0446C51.231 30.1098 51.1156 30.1359 51.0002 30.1359Z" fill="url(#paint23_linear_271_3557)"/>
<path d="M51.0002 37.9604C50.8848 37.9604 50.7694 37.9343 50.6669 37.8691L44.2569 33.9565C44.0646 33.8391 43.9492 33.6304 43.9492 33.3957V25.5705C43.9492 25.3357 44.0774 25.114 44.2697 24.9966C44.4748 24.8792 44.7184 24.8792 44.9107 25.0097L51.3207 28.9223C51.5258 29.0396 51.6412 29.2483 51.6412 29.4831V37.3083C51.6412 37.543 51.513 37.7647 51.3207 37.8821C51.2181 37.9343 51.1027 37.9604 51.0002 37.9604ZM45.2312 33.0305L50.3592 36.1606V29.8483L45.2312 26.7182V33.0305Z" fill="url(#paint24_linear_271_3557)"/>
<path d="M51.0002 73.174C50.7823 73.174 50.5772 73.0566 50.449 72.861C50.2695 72.548 50.3592 72.1567 50.6669 71.9611L56.1667 68.6093L51.0002 65.4531L44.9236 69.1701C44.6287 69.3527 44.2313 69.2614 44.039 68.9484C43.8595 68.6354 43.9493 68.2441 44.2569 68.0485L50.6669 64.1359C50.872 64.0055 51.1284 64.0055 51.3207 64.1359L57.7307 68.0485C57.9358 68.1659 58.0512 68.3746 58.0512 68.6093C58.0512 68.8441 57.9358 69.0527 57.7435 69.1701L51.3335 73.0827C51.231 73.1479 51.1156 73.174 51.0002 73.174Z" fill="url(#paint25_linear_271_3557)"/>
<path d="M51.0002 81.0004C50.8848 81.0004 50.7694 80.9743 50.6669 80.9091L44.2569 76.9965C44.0646 76.8791 43.9492 76.6705 43.9492 76.4357V68.6105C43.9492 68.3758 44.0774 68.154 44.2697 68.0367C44.4748 67.9193 44.7184 67.9193 44.9107 68.0497L51.3207 71.9623C51.5258 72.0797 51.6412 72.2884 51.6412 72.5231V80.3483C51.6412 80.5831 51.513 80.8048 51.3207 80.9222C51.2181 80.9743 51.1027 81.0004 51.0002 81.0004ZM45.2312 76.0705L50.3592 79.2006V72.9013L45.2312 69.7712V76.0705Z" fill="url(#paint26_linear_271_3557)"/>
<path d="M68.9494 40.5695C68.7315 40.5695 68.5264 40.4521 68.3982 40.2565C68.2187 39.9435 68.3084 39.5522 68.6161 39.3566L74.1159 36.0048L68.9494 32.8487L62.8728 36.5656C62.5779 36.7482 62.1805 36.6569 61.9882 36.3439C61.8087 36.0309 61.8985 35.6396 62.2062 35.444L68.6161 31.5314C68.8212 31.401 69.0776 31.401 69.2699 31.5314L75.6799 35.444C75.885 35.5614 76.0004 35.7701 76.0004 36.0048C76.0004 36.2396 75.885 36.4482 75.6927 36.5656L69.2828 40.4782C69.1802 40.5434 69.0648 40.5695 68.9494 40.5695Z" fill="url(#paint27_linear_271_3557)"/>
<path d="M68.9474 48.3959C68.8321 48.3959 68.7167 48.3698 68.6141 48.3046L62.2042 44.392C62.0119 44.2747 61.8965 44.066 61.8965 43.8312V36.006C61.8965 35.7713 62.0247 35.5495 62.217 35.4322C62.4221 35.3148 62.6657 35.3148 62.858 35.4452L69.2679 39.3578C69.4731 39.4752 69.5884 39.6839 69.5884 39.9186V47.7438C69.5884 47.9786 69.4602 48.2003 69.2679 48.3177C69.1654 48.3698 69.05 48.3959 68.9474 48.3959ZM63.1785 43.466L68.3064 46.5961V40.2968L63.1785 37.1668V43.466Z" fill="url(#paint28_linear_271_3557)"/>
<path d="M33.0519 48.3959C32.9366 48.3959 32.8212 48.3698 32.7186 48.3046L26.3087 44.392C26.1164 44.2747 26.001 44.066 26.001 43.8312V36.006C26.001 35.7713 26.1292 35.5495 26.3215 35.4322C26.5266 35.3148 26.7702 35.3148 26.9625 35.4452L33.3724 39.3578C33.5776 39.4752 33.6929 39.6839 33.6929 39.9186V47.7438C33.6929 47.9786 33.5647 48.2003 33.3724 48.3177C33.2699 48.3698 33.1545 48.3959 33.0519 48.3959ZM27.283 43.466L32.4109 46.5961V40.2968L27.283 37.1668V43.466Z" fill="url(#paint29_linear_271_3557)"/>
<path d="M57.4102 47.7429C57.2948 47.7429 57.1794 47.7168 57.0769 47.6516L51.0002 43.9346L44.9236 47.6516C44.6287 47.8342 44.2313 47.7429 44.039 47.4298C43.8595 47.1168 43.9493 46.7256 44.2569 46.5299L50.6669 42.6173C50.872 42.4869 51.1284 42.4869 51.3207 42.6173L57.7307 46.5299C58.0384 46.7125 58.1281 47.1168 57.9486 47.4298C57.8332 47.6255 57.6281 47.7429 57.4102 47.7429Z" fill="url(#paint30_linear_271_3557)"/>
<path d="M51.0014 59.4805C50.7835 59.4805 50.5783 59.3632 50.4501 59.1675C50.2707 58.8545 50.3604 58.4633 50.6681 58.2676L56.7704 54.5507V48.2514L51.3347 51.5771C51.0399 51.7597 50.6424 51.6684 50.4501 51.3554C50.2707 51.0424 50.3604 50.6511 50.6681 50.4555L57.078 46.5429C57.2703 46.4255 57.5267 46.4255 57.719 46.5298C57.9242 46.6342 58.0524 46.8559 58.0524 47.0906V54.9158C58.0524 55.1506 57.937 55.3593 57.7447 55.4766L51.3347 59.3892C51.2322 59.4545 51.1168 59.4805 51.0014 59.4805Z" fill="url(#paint31_linear_271_3557)"/>
<path d="M51.0002 59.4809C50.8848 59.4809 50.7694 59.4548 50.6669 59.3896L44.2569 55.477C44.0646 55.3596 43.9492 55.1509 43.9492 54.9162V47.091C43.9492 46.8562 44.0774 46.6345 44.2697 46.5171C44.4748 46.3998 44.7184 46.3998 44.9107 46.5302L51.3207 50.4428C51.5258 50.5602 51.6412 50.7688 51.6412 51.0036V58.8288C51.6412 59.0635 51.513 59.2853 51.3207 59.4026C51.2181 59.4548 51.1027 59.4809 51.0002 59.4809ZM45.2312 54.551L50.3592 57.6811V51.3818L45.2312 48.2517V54.551Z" fill="url(#paint32_linear_271_3557)"/>
<defs>
<linearGradient id="paint0_linear_271_3557" x1="32.4121" y1="57.5254" x2="41.2703" y2="58.3727" gradientUnits="userSpaceOnUse">
<stop stop-color="#9854CB"/>
<stop offset="1" stop-color="#5C19E9"/>
</linearGradient>
<linearGradient id="paint1_linear_271_3557" x1="68.3057" y1="57.5254" x2="77.1639" y2="58.3727" gradientUnits="userSpaceOnUse">
<stop stop-color="#9854CB"/>
<stop offset="1" stop-color="#5C19E9"/>
</linearGradient>
<linearGradient id="paint2_linear_271_3557" x1="50.3604" y1="24.9199" x2="59.2186" y2="25.7672" gradientUnits="userSpaceOnUse">
<stop stop-color="#9854CB"/>
<stop offset="1" stop-color="#5C19E9"/>
</linearGradient>
<linearGradient id="paint3_linear_271_3557" x1="50.3604" y1="67.959" x2="59.2186" y2="68.8063" gradientUnits="userSpaceOnUse">
<stop stop-color="#9854CB"/>
<stop offset="1" stop-color="#5C19E9"/>
</linearGradient>
<linearGradient id="paint4_linear_271_3557" x1="68.3066" y1="35.3545" x2="77.1648" y2="36.2018" gradientUnits="userSpaceOnUse">
<stop stop-color="#9854CB"/>
<stop offset="1" stop-color="#5C19E9"/>
</linearGradient>
<linearGradient id="paint5_linear_271_3557" x1="32.4121" y1="35.3545" x2="41.2703" y2="36.2018" gradientUnits="userSpaceOnUse">
<stop stop-color="#9854CB"/>
<stop offset="1" stop-color="#5C19E9"/>
</linearGradient>
<linearGradient id="paint6_linear_271_3557" x1="58.6914" y1="33.5254" x2="61.5617" y2="34.0976" gradientUnits="userSpaceOnUse">
<stop stop-color="#9854CB"/>
<stop offset="1" stop-color="#5C19E9"/>
</linearGradient>
<linearGradient id="paint7_linear_271_3557" x1="50.3594" y1="60.5244" x2="51.8388" y2="60.6485" gradientUnits="userSpaceOnUse">
<stop stop-color="#9854CB"/>
<stop offset="1" stop-color="#5C19E9"/>
</linearGradient>
<linearGradient id="paint8_linear_271_3557" x1="58.6914" y1="55.4307" x2="61.675" y2="56.0289" gradientUnits="userSpaceOnUse">
<stop stop-color="#9854CB"/>
<stop offset="1" stop-color="#5C19E9"/>
</linearGradient>
<linearGradient id="paint9_linear_271_3557" x1="58.6914" y1="66.3906" x2="61.5676" y2="66.9653" gradientUnits="userSpaceOnUse">
<stop stop-color="#9854CB"/>
<stop offset="1" stop-color="#5C19E9"/>
</linearGradient>
<linearGradient id="paint10_linear_271_3557" x1="58.6904" y1="44.416" x2="61.6734" y2="45.0157" gradientUnits="userSpaceOnUse">
<stop stop-color="#9854CB"/>
<stop offset="1" stop-color="#5C19E9"/>
</linearGradient>
<linearGradient id="paint11_linear_271_3557" x1="68.3076" y1="49.4385" x2="69.7909" y2="49.537" gradientUnits="userSpaceOnUse">
<stop stop-color="#9854CB"/>
<stop offset="1" stop-color="#5C19E9"/>
</linearGradient>
<linearGradient id="paint12_linear_271_3557" x1="50.3594" y1="39.0029" x2="51.8388" y2="39.127" gradientUnits="userSpaceOnUse">
<stop stop-color="#9854CB"/>
<stop offset="1" stop-color="#5C19E9"/>
</linearGradient>
<linearGradient id="paint13_linear_271_3557" x1="40.7432" y1="33.5254" x2="43.6135" y2="34.0976" gradientUnits="userSpaceOnUse">
<stop stop-color="#9854CB"/>
<stop offset="1" stop-color="#5C19E9"/>
</linearGradient>
<linearGradient id="paint14_linear_271_3557" x1="40.7432" y1="55.4355" x2="43.6135" y2="56.0078" gradientUnits="userSpaceOnUse">
<stop stop-color="#9854CB"/>
<stop offset="1" stop-color="#5C19E9"/>
</linearGradient>
<linearGradient id="paint15_linear_271_3557" x1="40.7432" y1="66.3906" x2="43.6135" y2="66.9628" gradientUnits="userSpaceOnUse">
<stop stop-color="#9854CB"/>
<stop offset="1" stop-color="#5C19E9"/>
</linearGradient>
<linearGradient id="paint16_linear_271_3557" x1="32.4121" y1="49.4385" x2="33.8949" y2="49.5412" gradientUnits="userSpaceOnUse">
<stop stop-color="#9854CB"/>
<stop offset="1" stop-color="#5C19E9"/>
</linearGradient>
<linearGradient id="paint17_linear_271_3557" x1="40.6396" y1="44.4092" x2="43.6233" y2="45.0074" gradientUnits="userSpaceOnUse">
<stop stop-color="#9854CB"/>
<stop offset="1" stop-color="#5C19E9"/>
</linearGradient>
<linearGradient id="paint18_linear_271_3557" x1="26.001" y1="31.4336" x2="41.4234" y2="35.2938" gradientUnits="userSpaceOnUse">
<stop stop-color="#9854CB"/>
<stop offset="1" stop-color="#5C19E9"/>
</linearGradient>
<linearGradient id="paint19_linear_271_3557" x1="26" y1="53.6055" x2="41.4243" y2="57.4667" gradientUnits="userSpaceOnUse">
<stop stop-color="#9854CB"/>
<stop offset="1" stop-color="#5C19E9"/>
</linearGradient>
<linearGradient id="paint20_linear_271_3557" x1="26.001" y1="57.5166" x2="34.8593" y2="58.3632" gradientUnits="userSpaceOnUse">
<stop stop-color="#9854CB"/>
<stop offset="1" stop-color="#5C19E9"/>
</linearGradient>
<linearGradient id="paint21_linear_271_3557" x1="61.8965" y1="53.6055" x2="77.3208" y2="57.4667" gradientUnits="userSpaceOnUse">
<stop stop-color="#9854CB"/>
<stop offset="1" stop-color="#5C19E9"/>
</linearGradient>
<linearGradient id="paint22_linear_271_3557" x1="61.8965" y1="57.5166" x2="70.7548" y2="58.3632" gradientUnits="userSpaceOnUse">
<stop stop-color="#9854CB"/>
<stop offset="1" stop-color="#5C19E9"/>
</linearGradient>
<linearGradient id="paint23_linear_271_3557" x1="43.9473" y1="21" x2="59.3716" y2="24.8612" gradientUnits="userSpaceOnUse">
<stop stop-color="#9854CB"/>
<stop offset="1" stop-color="#5C19E9"/>
</linearGradient>
<linearGradient id="paint24_linear_271_3557" x1="43.9492" y1="24.9102" x2="52.8075" y2="25.7568" gradientUnits="userSpaceOnUse">
<stop stop-color="#9854CB"/>
<stop offset="1" stop-color="#5C19E9"/>
</linearGradient>
<linearGradient id="paint25_linear_271_3557" x1="43.9473" y1="64.0381" x2="59.3716" y2="67.8993" gradientUnits="userSpaceOnUse">
<stop stop-color="#9854CB"/>
<stop offset="1" stop-color="#5C19E9"/>
</linearGradient>
<linearGradient id="paint26_linear_271_3557" x1="43.9492" y1="67.9502" x2="52.8075" y2="68.7968" gradientUnits="userSpaceOnUse">
<stop stop-color="#9854CB"/>
<stop offset="1" stop-color="#5C19E9"/>
</linearGradient>
<linearGradient id="paint27_linear_271_3557" x1="61.8965" y1="31.4336" x2="77.3208" y2="35.2948" gradientUnits="userSpaceOnUse">
<stop stop-color="#9854CB"/>
<stop offset="1" stop-color="#5C19E9"/>
</linearGradient>
<linearGradient id="paint28_linear_271_3557" x1="61.8965" y1="35.3457" x2="70.7548" y2="36.1923" gradientUnits="userSpaceOnUse">
<stop stop-color="#9854CB"/>
<stop offset="1" stop-color="#5C19E9"/>
</linearGradient>
<linearGradient id="paint29_linear_271_3557" x1="26.001" y1="35.3457" x2="34.8593" y2="36.1923" gradientUnits="userSpaceOnUse">
<stop stop-color="#9854CB"/>
<stop offset="1" stop-color="#5C19E9"/>
</linearGradient>
<linearGradient id="paint30_linear_271_3557" x1="43.9473" y1="42.5195" x2="57.6959" y2="48.5324" gradientUnits="userSpaceOnUse">
<stop stop-color="#9854CB"/>
<stop offset="1" stop-color="#5C19E9"/>
</linearGradient>
<linearGradient id="paint31_linear_271_3557" x1="50.3584" y1="46.4531" x2="59.2187" y2="47.3017" gradientUnits="userSpaceOnUse">
<stop stop-color="#9854CB"/>
<stop offset="1" stop-color="#5C19E9"/>
</linearGradient>
<linearGradient id="paint32_linear_271_3557" x1="43.9492" y1="46.4307" x2="52.8075" y2="47.2773" gradientUnits="userSpaceOnUse">
<stop stop-color="#9854CB"/>
<stop offset="1" stop-color="#5C19E9"/>
</linearGradient>
</defs>
</svg>
