<svg  viewBox="0 0 20 20" fill="none" xmlns="http://www.w3.org/2000/svg">
<path d="M10 0C4.47715 0 0 4.47715 0 10C0 15.5228 4.47715 20 10 20C15.5228 20 20 15.5228 20 10C20 7.34784 18.9464 4.8043 17.0711 2.92893C15.1957 1.05357 12.6522 0 10 0ZM10 18C5.58172 18 2 14.4183 2 10C2 5.58172 5.58172 2 10 2C14.4183 2 18 5.58172 18 10C18 12.1217 17.1571 14.1566 15.6569 15.6569C14.1566 17.1571 12.1217 18 10 18ZM10.88 9.64V4.5C10.88 4.22386 10.6561 4 10.38 4H9.62C9.34386 4 9.12 4.22386 9.12 4.5V10.16C9.12492 10.2912 9.17837 10.4159 9.27 10.51L13.27 14.51C13.4678 14.7018 13.7822 14.7018 13.98 14.51L14.51 13.98C14.7018 13.7822 14.7018 13.4678 14.51 13.27L10.88 9.64Z" fill="white"/>
</svg>
