<svg viewBox="0 0 280 50" fill="none" xmlns="http://www.w3.org/2000/svg">
<mask id="mask0_2381_511" style="mask-type:luminance" maskUnits="userSpaceOnUse" x="67" y="3" width="213" height="47">
<path d="M67.2734 3.06885H279.432V49.4325H67.2734V3.06885Z" fill="white"/>
</mask>
<g mask="url(#mask0_2381_511)">
<mask id="mask1_2381_511" style="mask-type:luminance" maskUnits="userSpaceOnUse" x="67" y="3" width="213" height="47">
<path d="M67.2734 3.07031H279.432V49.4339H67.2734V3.07031Z" fill="white"/>
</mask>
<g mask="url(#mask1_2381_511)">
<path d="M180.341 12.161H184.545V37.2746H180.341V12.161ZM165 11.5928C162.273 11.5928 159.773 12.5019 157.727 14.2064V12.161H153.523V37.2746H157.727V23.0701C157.727 18.9792 161.023 15.7973 165 15.7973C168.977 15.7973 172.273 19.0928 172.273 23.0701V37.2746H176.477V23.0701C176.477 16.7064 171.363 11.5928 165 11.5928ZM145.113 12.0473H149.318V36.2519C149.204 43.411 143.409 49.2064 136.25 49.3201C130.568 49.4337 125.341 45.6837 123.75 40.2292H128.295C129.773 43.2973 132.841 45.2291 136.25 45.1155C141.136 45.0019 145 41.0246 145.227 36.1382V34.0928C139.886 38.9791 131.591 38.7519 126.704 33.411C121.818 28.0701 122.045 19.7746 127.386 14.8882C132.386 10.2292 140.227 10.2292 145.227 14.8882L145.113 12.0473ZM145.113 24.661C145.113 19.7746 141.136 15.6837 136.25 15.6837C131.363 15.6837 127.273 19.661 127.273 24.5473C127.273 29.4337 131.25 33.5246 136.25 33.5246C141.136 33.5246 145.113 29.5473 145.113 24.661ZM80.3407 15.6837C83.7498 15.6837 86.9316 17.7292 88.4089 20.7973H92.8407C90.7952 13.8655 83.4089 9.88825 76.4771 12.0473C69.5452 14.0928 65.568 21.4792 67.7271 28.411C69.8862 35.3428 77.1589 39.3201 84.0907 37.161C88.2952 35.911 91.5907 32.6155 92.8407 28.411H88.4089C86.3634 32.8428 81.0225 34.7746 76.5907 32.7292C72.1589 30.6837 70.2271 25.3428 72.2725 20.911C73.7498 17.7292 76.818 15.6837 80.3407 15.6837ZM121.136 24.661C121.136 31.9337 115.227 37.7292 108.068 37.7292C100.795 37.7292 94.9998 31.8201 94.9998 24.661C94.9998 17.5019 100.682 11.5928 107.954 11.5928C115.227 11.5928 121.136 17.3882 121.136 24.661ZM116.932 24.661C116.932 19.7746 112.954 15.6837 108.068 15.6837C103.182 15.6837 99.0907 19.661 99.0907 24.5473C99.0907 29.4337 103.068 33.5246 107.954 33.5246C112.954 33.5246 116.932 29.5473 116.932 24.661ZM253.863 11.5928C251.136 11.5928 248.636 12.5019 246.591 14.2064V12.161H242.386V37.2746H246.591V23.0701C246.591 18.9792 249.886 15.6837 253.863 15.6837C257.954 15.6837 261.25 18.9792 261.25 22.9564V37.161H265.454V23.0701C265.341 16.7064 260.227 11.5928 253.863 11.5928ZM233.977 12.161H238.182V37.2746H233.977V34.3201C228.636 39.2064 220.341 38.9791 215.454 33.6382C210.568 28.2973 210.795 20.0019 216.136 15.1155C218.523 12.8428 221.704 11.5928 225 11.5928C228.295 11.5928 231.477 12.8428 233.977 15.1155V12.161ZM233.977 24.661C233.977 19.7746 230 15.7973 225 15.7973C220.113 15.7973 216.136 19.7746 216.136 24.7746C216.136 29.661 220.113 33.6382 225 33.6382C230 33.5246 233.977 29.5473 233.977 24.661ZM279.318 16.2519V12.0473H273.068V5.22916H268.863V28.8655C268.863 33.5246 272.613 37.2746 277.273 37.2746H279.318V33.0701H277.273C275 33.0701 273.068 31.1382 273.068 28.8655V16.2519H279.318ZM182.386 3.07007C180.795 3.07007 179.659 4.32007 179.659 5.79734C179.659 7.38825 180.909 8.52461 182.386 8.52461C183.977 8.52461 185.113 7.27461 185.113 5.79734C185.227 4.32007 183.977 3.07007 182.386 3.07007C182.5 3.07007 182.5 3.07007 182.386 3.07007ZM209.659 12.161H188.75V16.3655H204.204L188.75 33.0701V37.2746H209.659V33.0701H194.091L209.545 16.3655L209.659 12.161Z" fill="white"/>
</g>
</g>
<mask id="mask2_2381_511" style="mask-type:luminance" maskUnits="userSpaceOnUse" x="0" y="0" width="60" height="50">
<path d="M0 0H59.2045V50H0V0Z" fill="white"/>
</mask>
<g mask="url(#mask2_2381_511)">
<mask id="mask3_2381_511" style="mask-type:luminance" maskUnits="userSpaceOnUse" x="0" y="25" width="36" height="25">
<path d="M0 25L17.3864 50L35.3409 39.2045L25.2273 25H0Z" fill="white"/>
</mask>
<g mask="url(#mask3_2381_511)">
<path d="M0 25H35.3409V50H0V25Z" fill="white"/>
</g>
<mask id="mask4_2381_511" style="mask-type:luminance" maskUnits="userSpaceOnUse" x="17" y="25" width="43" height="25">
<path d="M17.3867 50H42.1594L59.2049 25L17.3867 50Z" fill="white"/>
</mask>
<g mask="url(#mask4_2381_511)">
<path d="M17.3867 25H59.2049V50H17.3867V25Z" fill="white"/>
</g>
<mask id="mask5_2381_511" style="mask-type:luminance" maskUnits="userSpaceOnUse" x="0" y="0" width="36" height="25">
<path d="M17.3864 0L0 25H25.2273L35.3409 10.7955L17.3864 0Z" fill="white"/>
</mask>
<g mask="url(#mask5_2381_511)">
<path d="M0 0H35.3409V25H0V0Z" fill="white"/>
</g>
<mask id="mask6_2381_511" style="mask-type:luminance" maskUnits="userSpaceOnUse" x="17" y="0" width="43" height="25">
<path d="M17.3867 0L59.2049 25L42.1594 0H17.3867Z" fill="white"/>
</mask>
<g mask="url(#mask6_2381_511)">
<path d="M17.3867 0H59.2049V25H17.3867V0Z" fill="white"/>
</g>
</g>
</svg>
