<svg width="20" height="19" viewBox="0 0 20 19" fill="none" xmlns="http://www.w3.org/2000/svg">
<path d="M5.26496 0.676873L17.5978 0.702986L17.5978 0.703038L17.6045 0.703062C18.3905 0.705769 19.0356 1.34846 19.0384 2.13692L19.0383 2.13692L19.0385 2.14239L19.0646 14.4764C19.0663 15.2616 18.4317 15.8934 17.6462 15.888H17.6462C16.859 15.8825 16.2189 15.2394 16.2172 14.4522L16.1996 6.16895L16.1983 5.5672L15.7728 5.9927L3.56086 18.2047C3.00934 18.7562 2.10796 18.7544 1.54749 18.1939C0.98702 17.6335 0.985238 16.7321 1.53676 16.1806L13.7488 3.96854L14.1743 3.54303L13.5725 3.54177L5.28914 3.52432C5.28914 3.52432 5.28913 3.52432 5.28913 3.52432C4.502 3.52261 3.85884 2.88248 3.85341 2.09531C3.84799 1.30979 4.47964 0.675222 5.26496 0.676873Z" fill="white" stroke="#020001" stroke-width="0.5"/>
</svg>
