<svg viewBox="0 0 219 50" fill="none" xmlns="http://www.w3.org/2000/svg">
<path d="M84.5199 0C82.8009 0 81.2394 0.408471 79.8721 1.21505C78.535 1.99885 77.377 3.02556 76.4389 4.26295C75.4995 5.49219 74.7793 6.87232 74.2942 8.37068C73.8084 9.86486 73.5625 11.3696 73.5625 12.8483C73.5625 14.2878 73.7998 15.7811 74.262 17.2902C74.7277 18.8036 75.4104 20.1945 76.2849 21.4194C77.1698 22.6624 78.2598 23.6879 79.5216 24.4769C80.818 25.2873 82.3134 25.7001 83.9653 25.7001H116.96C117.898 25.7001 118.704 25.3668 119.361 24.7099C120.018 24.0533 120.353 23.245 120.353 22.3094C120.353 21.3734 120.018 20.5664 119.361 19.9086C118.704 19.253 117.898 18.9205 116.96 18.9205H85.6885C84.5242 18.9205 83.5869 18.7176 82.9089 18.3221C82.2024 17.9136 81.6456 17.4148 81.2414 16.8383C80.8382 16.2514 80.557 15.5991 80.4095 14.8996C80.2548 14.1553 80.1752 13.4657 80.1752 12.8483C80.1752 12.2361 80.2548 11.5446 80.4095 10.8009C80.557 10.0992 80.8382 9.4499 81.2414 8.8639C81.6456 8.28472 82.2024 7.78808 82.9054 7.3784C83.5882 6.97852 84.5242 6.77985 85.6885 6.77985H116.96C117.898 6.77985 118.704 6.44756 119.361 5.79101C120.018 5.13191 120.353 4.32565 120.353 3.39095C120.353 2.45328 120.018 1.64674 119.361 0.990616C118.704 0.333622 117.898 0 116.96 0H84.5199Z" fill="#717171"/>
<path d="M131.028 0.000488281C129.895 0.000488281 128.824 0.21588 127.846 0.645367C126.879 1.07056 126.017 1.65495 125.288 2.38029C124.563 3.10686 123.979 3.96724 123.555 4.93761C123.127 5.91788 122.91 6.9872 122.91 8.12013C122.91 9.25218 123.127 10.3228 123.555 11.3009C123.979 12.27 124.563 13.1312 125.288 13.8592C126.017 14.588 126.879 15.1726 127.848 15.5948C128.824 16.0218 129.895 16.239 131.028 16.239H161.91C162.279 16.239 162.577 16.3645 162.85 16.641C163.126 16.9184 163.252 17.2308 163.252 17.635C163.252 17.9953 163.126 18.2812 162.863 18.5349C162.584 18.7968 162.285 18.9219 161.91 18.9219H127.969C127.033 18.9219 126.225 19.253 125.569 19.9087C124.912 20.5665 124.579 21.3748 124.579 22.3095C124.579 23.2451 124.912 24.0534 125.569 24.7091C126.225 25.3656 127.033 25.7001 127.969 25.7001H161.687C162.817 25.7001 163.891 25.4938 164.881 25.0896C165.875 24.6833 166.75 24.1071 167.483 23.3727C168.212 22.6474 168.795 21.7884 169.218 20.8179C169.646 19.8399 169.862 18.7671 169.862 17.635C169.862 16.5034 169.646 15.4272 169.218 14.4306C168.795 13.4422 168.212 12.5693 167.483 11.8405C166.755 11.1118 165.882 10.5292 164.895 10.1022C163.895 9.6778 162.82 9.45858 161.687 9.45858H130.915C130.545 9.45858 130.232 9.32953 129.939 9.04798C129.652 8.77489 129.522 8.48258 129.522 8.12013C129.522 7.73016 129.652 7.42921 129.927 7.17848C130.223 6.90683 130.536 6.77991 130.915 6.77991H164.807C165.74 6.77991 166.551 6.44677 167.207 5.79198C167.862 5.13322 168.196 4.32616 168.196 3.39058C168.196 2.45291 167.862 1.64709 167.207 0.989761C166.551 0.334087 165.738 0.000488281 164.807 0.000488281H131.028Z" fill="#717171"/>
<path d="M179.493 0.000488281C178.36 0.000488281 177.289 0.21588 176.31 0.645367C175.344 1.07056 174.482 1.65495 173.754 2.38029C173.026 3.11027 172.443 3.96845 172.018 4.93761C171.592 5.91578 171.373 6.98511 171.373 8.12013C171.373 9.25527 171.592 10.3249 172.018 11.3009C172.443 12.27 173.026 13.1312 173.754 13.8592C174.482 14.588 175.344 15.1726 176.312 15.5948C177.289 16.0218 178.358 16.239 179.493 16.239H210.375C210.741 16.239 211.038 16.3645 211.313 16.641C211.59 16.9162 211.716 17.2308 211.716 17.635C211.716 17.9953 211.592 18.2812 211.326 18.5349C211.049 18.7968 210.749 18.9219 210.375 18.9219H176.432C175.496 18.9219 174.688 19.253 174.032 19.9087C173.377 20.5665 173.046 21.3748 173.046 22.3095C173.046 23.2451 173.377 24.0534 174.032 24.7091C174.688 25.3656 175.496 25.7001 176.432 25.7001H210.153C211.279 25.7001 212.355 25.4938 213.344 25.0896C214.338 24.6833 215.213 24.1093 215.946 23.3727C216.676 22.6474 217.261 21.7853 217.684 20.8179C218.11 19.8399 218.327 18.7671 218.327 17.635C218.327 16.5034 218.11 15.4259 217.684 14.4306C217.263 13.4422 216.676 12.5714 215.946 11.8405C215.218 11.1118 214.345 10.5279 213.359 10.1022C212.361 9.6778 211.283 9.45858 210.153 9.45858H179.379C179.006 9.45858 178.699 9.32953 178.403 9.04798C178.117 8.77489 177.985 8.48258 177.985 8.12013C177.985 7.73016 178.117 7.42921 178.39 7.17848C178.687 6.90683 179.002 6.77991 179.379 6.77991H213.271C214.204 6.77991 215.013 6.44677 215.671 5.79198C216.326 5.13322 216.66 4.32616 216.66 3.39058C216.66 2.45291 216.326 1.64709 215.671 0.989761C215.013 0.334087 214.202 0.000488281 213.271 0.000488281H179.493Z" fill="#717171"/>
<path d="M37.8726 9.09951C37.8726 10.4969 36.7376 11.6319 35.3402 11.6319H28.5791C27.1805 11.6319 26.0488 10.4969 26.0488 9.09951V2.55914C26.0488 1.16259 27.1805 0.0283203 28.5791 0.0283203H35.3402C36.7376 0.0283203 37.8726 1.16259 37.8726 2.55914V9.09951Z" fill="#717171"/>
<path d="M24.8908 9.09951C24.8908 10.4969 23.7566 11.6319 22.3584 11.6319H15.5977C14.2 11.6319 13.0684 10.4969 13.0684 9.09951V2.55914C13.0684 1.16259 14.2 0.0283203 15.5977 0.0283203H22.3584C23.7566 0.0283203 24.8908 1.16259 24.8908 2.55914V9.09951Z" fill="#717171"/>
<path d="M24.8707 34.6345C24.8707 36.0313 23.7355 37.1625 22.3373 37.1625H15.5789C14.1806 37.1625 13.0469 36.0313 13.0469 34.6345V28.0956C13.0469 26.7005 14.1806 25.5667 15.5789 25.5667H22.3373C23.7355 25.5667 24.8707 26.7005 24.8707 28.0956V34.6345Z" fill="#717171"/>
<path d="M37.8161 34.6302C37.8161 36.0275 36.6811 37.1604 35.2816 37.1604H28.5235C27.1232 37.1604 25.9902 36.0275 25.9902 34.6302V28.0956C25.9902 26.6953 27.1232 25.5645 28.5235 25.5645H35.2816C36.6811 25.5645 37.8161 26.6953 37.8161 28.0956V34.6302Z" fill="#717171"/>
<path d="M50.8804 34.609C50.8804 36.0072 49.7475 37.1368 48.3459 37.1368H41.587C40.1875 37.1368 39.0566 36.0072 39.0566 34.609V28.0716C39.0566 26.6751 40.1875 25.5474 41.587 25.5474H48.3459C49.7475 25.5474 50.8804 26.6751 50.8804 28.0716V34.609Z" fill="#717171"/>
<path d="M11.8251 21.9078C11.8251 23.3073 10.6895 24.4401 9.29176 24.4401H2.53071C1.13293 24.4401 0 23.3073 0 21.9078V15.3682C0 13.9708 1.13293 12.8357 2.53071 12.8357H9.29176C10.6895 12.8357 11.8251 13.9708 11.8251 15.3682V21.9078Z" fill="#717171"/>
<path d="M11.8717 34.6952V28.0652C11.8717 26.6945 10.7155 25.583 9.29324 25.583H2.64098C1.75957 25.583 0.984361 26.01 0.521299 26.6635C0.278805 27.317 0.12144 28.0071 0.0664062 28.7294V29.884C0.373392 33.9427 3.88396 37.151 8.17751 37.151C9.07353 37.151 9.93516 37.004 10.7396 36.7447C11.4224 36.301 11.8717 35.5464 11.8717 34.6952Z" fill="#717171"/>
<path d="M2.53929 11.5964H9.28098C10.6723 11.5964 11.8014 10.4647 11.8014 9.06952V2.53893C11.8014 1.67467 11.3688 0.913236 10.7063 0.458433C10.0416 0.218924 9.34074 0.0645613 8.6038 0.0107422H7.43045C3.29987 0.314311 0.0429688 3.75739 0.0429688 7.97104C0.0429688 8.85236 0.190015 9.69813 0.452286 10.4884C0.905891 11.1591 1.67164 11.5964 2.53929 11.5964Z" fill="#717171"/>
<path d="M48.3337 11.5964H41.5929C40.2019 11.5964 39.0703 10.4647 39.0703 9.06952V2.53893C39.0703 1.67467 39.5075 0.913236 40.1667 0.458433C40.8353 0.218924 41.5348 0.0645613 42.2687 0.0107422H43.4451C47.5714 0.314311 50.8339 3.75739 50.8339 7.97104C50.8339 8.85236 50.6851 9.69813 50.4219 10.4884C49.9676 11.1591 49.2018 11.5964 48.3337 11.5964Z" fill="#717171"/>
<path d="M15.5388 38.259H22.3244C23.7252 38.259 24.8641 39.3942 24.8641 40.7958V47.357C24.8641 48.2276 24.429 48.9907 23.7625 49.4495C23.0919 49.689 22.3846 49.8442 21.6463 49.898H20.4613C16.3046 49.5927 13.0215 46.1325 13.0215 41.8996C13.0215 41.0151 13.1731 40.166 13.435 39.3701C13.8938 38.7007 14.6647 38.259 15.5388 38.259Z" fill="#717171"/>
<path d="M76.3105 40.9939C76.3105 39.9435 76.4813 38.8915 76.8265 37.8316C77.1705 36.7718 77.6722 35.8065 78.3335 34.941C78.9943 34.0716 79.7932 33.3622 80.7305 32.8119C81.6678 32.2581 82.7247 31.9829 83.9122 31.9829H108.001C108.555 31.9829 109.024 32.1776 109.408 32.5633C109.794 32.9481 109.987 33.4168 109.987 33.9706C109.987 34.5183 109.794 34.9883 109.408 35.3722C109.024 35.7579 108.555 35.9526 108.001 35.9526H84.7807C83.8155 35.9526 83.0373 36.1233 82.4461 36.4686C81.8541 36.8126 81.384 37.2318 81.0401 37.7284C80.6961 38.225 80.4605 38.7697 80.3371 39.3622C80.2146 39.9512 80.1522 40.4952 80.1522 40.9939C80.1522 41.4892 80.2145 42.0323 80.3371 42.6255C80.4605 43.2167 80.6961 43.7607 81.0401 44.256C81.384 44.7538 81.8541 45.1731 82.4461 45.517C83.0373 45.861 83.8155 46.0329 84.7807 46.0329H108.001C108.555 46.0329 109.024 46.2264 109.408 46.6112C109.794 46.9982 109.987 47.4647 109.987 48.0151C109.987 48.5676 109.794 49.0363 109.408 49.4211C109.024 49.8068 108.555 50.0001 108.001 50.0001H83.4972C82.3708 50.0001 81.3647 49.725 80.4833 49.1712C79.6019 48.6235 78.8495 47.914 78.2303 47.0456C77.6103 46.1779 77.1361 45.2074 76.8072 44.1335C76.4761 43.0577 76.3105 42.0129 76.3105 40.9939Z" fill="#717171"/>
<path d="M139.91 45.5169C140.516 45.173 140.99 44.7537 141.334 44.2546C141.678 43.7606 141.912 43.2166 142.039 42.6254C142.162 42.0321 142.224 41.4891 142.224 40.9938C142.224 40.4951 142.162 39.9511 142.039 39.3621C141.912 38.7709 141.678 38.2236 141.334 37.7283C140.99 37.2316 140.516 36.8103 139.91 36.4685C139.306 36.1232 138.531 35.9525 137.594 35.9525H120.901C119.937 35.9525 119.159 36.1232 118.57 36.4685C117.979 36.8103 117.507 37.2316 117.162 37.7283C116.819 38.2236 116.585 38.7709 116.461 39.3621C116.337 39.9511 116.276 40.4951 116.276 40.9938C116.276 41.4891 116.337 42.0321 116.461 42.6254C116.585 43.2166 116.819 43.7606 117.162 44.2546C117.507 44.7537 117.979 45.173 118.57 45.5169C119.159 45.8596 119.937 46.0328 120.901 46.0328H137.594C138.531 46.0328 139.306 45.8596 139.91 45.5169ZM146.065 40.9938C146.065 42.0408 145.892 43.092 145.548 44.1535C145.207 45.2134 144.702 46.1765 144.041 47.0455C143.382 47.9139 142.581 48.6234 141.647 49.1711C140.708 49.7249 139.646 50 138.464 50H119.62C118.493 49.9454 117.488 49.6346 116.604 49.0701C115.724 48.506 114.974 47.7979 114.354 46.9418C113.735 46.0896 113.259 45.1407 112.931 44.0917C112.598 43.0447 112.434 42.0128 112.434 40.9938C112.434 39.9434 112.606 38.8914 112.95 37.8315C113.29 36.7717 113.794 35.8064 114.459 34.94C115.117 34.0703 115.916 33.3621 116.854 32.8117C117.79 32.2593 118.85 31.9841 120.035 31.9841H138.877C140.007 32.04 141.014 32.3517 141.892 32.915C142.776 33.4769 143.526 34.1898 144.147 35.0433C144.763 35.8967 145.238 36.8456 145.572 37.8934C145.902 38.9386 146.065 39.9727 146.065 40.9938Z" fill="#717171"/>
<path d="M177.359 44.4837C178.13 45.0203 178.917 45.6072 179.714 46.2392C180.017 46.4602 180.282 46.7165 180.5 47.002C180.722 47.2934 180.832 47.6297 180.832 48.0149C180.832 48.5675 180.638 49.0362 180.252 49.421C179.867 49.8066 179.396 50 178.848 50C178.38 50 177.911 49.8066 177.442 49.421C176.312 48.5928 175.158 47.7952 173.973 47.0239C172.787 46.2522 171.555 45.5659 170.274 44.958C168.993 44.3517 167.664 43.8702 166.287 43.5111C164.908 43.1565 163.476 42.9759 161.992 42.9759H153.769C153.41 43.0296 153.109 43.1938 152.86 43.4703C152.612 43.7485 152.488 44.0917 152.488 44.5044V48.0149C152.488 48.5675 152.287 49.0362 151.888 49.421C151.488 49.8066 151.028 50 150.504 50C149.953 50 149.486 49.8066 149.099 49.421C148.712 49.0362 148.52 48.5675 148.52 48.0149V44.0508C148.52 43.3594 148.652 42.7072 148.914 42.0881C149.174 41.4663 149.526 40.9293 149.966 40.4753C150.408 40.0217 150.929 39.6652 151.538 39.4016C152.145 39.1406 152.802 39.0083 153.52 39.0083H175.42C175.831 39.0083 176.195 38.8655 176.512 38.574C176.829 38.2872 176.989 37.9196 176.989 37.4806C176.989 37.0679 176.829 36.7092 176.512 36.404C176.195 36.1031 175.831 35.9525 175.42 35.9525H150.504C149.953 35.9525 149.486 35.7592 149.099 35.373C148.712 34.9874 148.52 34.5182 148.52 33.9692C148.52 33.4175 148.712 32.9472 149.099 32.5632C149.486 32.1775 149.953 31.9841 150.504 31.9841H175.252C176.026 31.9841 176.745 32.129 177.421 32.4179C178.097 32.7086 178.689 33.1007 179.198 33.596C179.71 34.0908 180.108 34.6713 180.399 35.3334C180.685 35.9921 180.832 36.7093 180.832 37.4806C180.832 38.2507 180.685 38.9687 180.399 39.6287C180.108 40.2886 179.71 40.8691 179.198 41.3679C178.689 41.8588 178.097 42.2514 177.421 42.5417C176.745 42.8318 176.026 42.9759 175.252 42.9759H175.087C175.831 43.4445 176.593 43.9472 177.359 44.4837Z" fill="#717171"/>
<path d="M183.275 33.9692C183.275 33.4175 183.467 32.9472 183.853 32.5624C184.237 32.1775 184.706 31.9841 185.258 31.9841H210.004C210.775 31.9841 211.501 32.129 212.175 32.4179C212.85 32.7073 213.443 33.1007 213.95 33.596C214.462 34.0908 214.86 34.67 215.15 35.3334C215.438 35.9921 215.584 36.7093 215.584 37.4806C215.584 38.2507 215.438 38.9687 215.15 39.6287C214.86 40.2907 214.462 40.8691 213.95 41.3653C213.443 41.8601 212.85 42.2514 212.175 42.5417C211.501 42.8318 210.775 42.9759 210.004 42.9759H188.522C188.162 43.0318 187.862 43.1938 187.613 43.4703C187.366 43.7485 187.239 44.0917 187.239 44.5044V48.0149C187.239 48.5675 187.04 49.0362 186.642 49.421C186.244 49.8066 185.779 50 185.258 50C184.706 50 184.237 49.8066 183.853 49.421C183.467 49.0362 183.275 48.5675 183.275 48.0149V44.0508C183.275 43.3602 183.395 42.7072 183.645 42.0881C183.892 41.4689 184.247 40.9293 184.701 40.4753C185.154 40.0217 185.676 39.6652 186.268 39.4016C186.864 39.1406 187.515 39.0083 188.231 39.0083H210.172C210.583 39.0083 210.949 38.8655 211.266 38.574C211.584 38.2872 211.74 37.9196 211.74 37.4806C211.74 37.0679 211.584 36.7092 211.266 36.404C210.949 36.1031 210.583 35.9513 210.172 35.9513H185.258C184.706 35.9513 184.237 35.7591 183.853 35.373C183.467 34.9894 183.275 34.5182 183.275 33.9692Z" fill="#717171"/>
<path d="M24.8805 21.869C24.8805 23.2681 23.7455 24.4023 22.3481 24.4023H15.5875C14.1876 24.4023 13.0547 23.2681 13.0547 21.869V15.3289C13.0547 13.932 14.1876 12.7991 15.5875 12.7991H22.3481C23.7455 12.7991 24.8805 13.932 24.8805 15.3289V21.869Z" fill="#717171"/>
<path d="M37.8314 21.869C37.8314 23.2681 36.6985 24.4023 35.3033 24.4023H28.5423C27.1449 24.4023 26.0098 23.2681 26.0098 21.869V15.3289C26.0098 13.932 27.1449 12.7991 28.5423 12.7991H35.3033C36.6985 12.7991 37.8314 13.932 37.8314 15.3289V21.869Z" fill="#717171"/>
<path d="M50.8804 21.869C50.8804 23.2681 49.7475 24.4023 48.3459 24.4023H41.587C40.1875 24.4023 39.0566 23.2681 39.0566 21.869V15.3289C39.0566 13.932 40.1875 12.7991 41.587 12.7991H48.3459C49.7475 12.7991 50.8804 13.932 50.8804 15.3289V21.869Z" fill="#717171"/>
<path d="M37.8314 47.3698C37.8314 48.7671 36.6985 49.9022 35.3033 49.9022H28.5423C27.1449 49.9022 26.0098 48.7671 26.0098 47.3698V40.8301C26.0098 39.4327 27.1449 38.2998 28.5423 38.2998H35.3033C36.6985 38.2998 37.8314 39.4327 37.8314 40.8301V47.3698Z" fill="#717171"/>
<path d="M50.8804 47.3698C50.8804 48.7671 49.7475 49.9022 48.3459 49.9022H41.587C40.1875 49.9022 39.0566 48.7671 39.0566 47.3698V40.8301C39.0566 39.4327 40.1875 38.2998 41.587 38.2998H48.3459C49.7475 38.2998 50.8804 39.4327 50.8804 40.8301V47.3698Z" fill="#717171"/>
<path d="M63.8514 34.6215C63.8514 36.0189 62.7185 37.1518 61.3203 37.1518H54.5579C53.1606 37.1518 52.0254 36.0189 52.0254 34.6215V28.0837C52.0254 26.6876 53.1606 25.5559 54.5579 25.5559H61.3203C62.7185 25.5559 63.8514 26.6876 63.8514 28.0837V34.6215Z" fill="#717171"/>
<path d="M52.0156 15.2866V21.9196C52.0156 23.2911 53.1756 24.4017 54.6031 24.4017H61.2898C62.1737 24.4017 62.9537 23.9761 63.4215 23.3247C63.6666 22.669 63.8214 21.9768 63.8773 21.2566V20.1C63.5678 16.0347 60.042 12.8281 55.7296 12.8281C54.8259 12.8281 53.9603 12.9722 53.1512 13.2332C52.4662 13.6773 52.0156 14.4319 52.0156 15.2866Z" fill="#717171"/>
<path d="M61.3486 38.3052H54.5617C53.1579 38.3052 52.0215 39.4403 52.0215 40.8433V47.4043C52.0215 48.2729 52.4571 49.0377 53.1235 49.496C53.7942 49.7369 54.5015 49.8903 55.241 49.9442H56.4234C60.5832 49.6388 63.863 46.1789 63.863 41.946C63.863 41.0625 63.7146 40.2113 63.4489 39.4158C62.9931 38.745 62.2205 38.3052 61.3486 38.3052Z" fill="#717171"/>
</svg>
