<svg width="101" height="101" viewBox="0 0 101 101" fill="none" xmlns="http://www.w3.org/2000/svg">
<circle cx="50.5" cy="50.5" r="50.5" fill="#5B5B5B" fill-opacity="0.2"/>
<circle cx="50.5" cy="50.5" r="50" stroke="#797979" stroke-opacity="0.4"/>
<path d="M80.083 79.1178H77.0037V67.9535C78.1405 67.6507 79.153 66.9701 79.8903 65.9831C80.9104 64.6176 81.2474 62.8804 80.8148 61.2171C80.8126 61.2085 80.8102 61.2 80.8077 61.1914L78.5251 53.3165C77.9311 51.2672 76.0631 49.8359 73.9825 49.8359H70.3632H67.6594H61.5146H56.7705H55.1914C53.1109 49.8359 51.2429 51.2672 50.6488 53.3165L48.3662 61.1914C48.3637 61.2 48.3614 61.2085 48.3591 61.2171C47.9266 62.8804 48.2636 64.6176 49.2837 65.9832C50.021 66.9701 51.0335 67.6508 52.1703 67.9535V79.1178H49.091C48.5853 79.1178 48.1754 79.5392 48.1754 80.0589C48.1754 80.5786 48.5853 81 49.091 81H53.0859H60.9832H68.1907H76.0881H80.083C80.5887 81 80.9986 80.5786 80.9986 80.0589C80.9986 79.5392 80.5887 79.1178 80.083 79.1178ZM70.3632 51.7181H73.9826C75.2593 51.7181 76.4056 52.5964 76.77 53.8539L79.0488 61.7153C79.3285 62.8053 79.106 63.9424 78.4377 64.8369C77.767 65.7348 76.7505 66.2499 75.649 66.2499C74.0596 66.2499 72.6629 65.1476 72.2524 63.5694C72.2506 63.5624 72.2486 63.5553 72.2466 63.5483L68.8811 51.7181L70.3632 51.7181ZM68.4263 64.2826C67.5127 65.5089 66.1182 66.2122 64.6005 66.2122C63.0817 66.2122 61.6829 65.5057 60.7627 64.274C59.8094 62.9979 59.4981 61.3589 59.9083 59.7766L62.2009 51.7181H66.9731L69.2662 59.7783C69.6822 61.3661 69.3763 63.0076 68.4263 64.2826ZM50.7363 64.837C50.0679 63.9424 49.8455 62.8053 50.1251 61.7152L52.4039 53.8539C52.7684 52.5964 53.9147 51.7181 55.1914 51.7181H56.7705H60.2929L56.9274 63.5483C56.9254 63.5553 56.9234 63.5624 56.9216 63.5694C56.5112 65.1476 55.1144 66.2499 53.525 66.2499C53.4554 66.2499 53.3861 66.2478 53.3173 66.2437C53.2433 66.2238 53.166 66.2122 53.086 66.2122C53.0702 66.2122 53.0549 66.2138 53.0393 66.2146C52.1285 66.0865 51.3071 65.601 50.7363 64.837ZM61.8989 79.1178V72.4532H67.2751V79.1178H61.8989ZM69.1063 79.1178V71.5121C69.1063 70.9924 68.6964 70.571 68.1907 70.571H60.9832C60.4775 70.571 60.0676 70.9924 60.0676 71.5121V79.1178H54.0016V68.1097C56.1385 67.9132 57.973 66.4093 58.6236 64.2922C58.8158 64.6851 59.0437 65.0634 59.3103 65.4202C60.5798 67.1197 62.5081 68.0943 64.6006 68.0943C66.6929 68.0943 68.6173 67.1221 69.8803 65.4269C70.1428 65.0746 70.3676 64.7013 70.5574 64.3134C71.2138 66.4192 73.0427 67.9139 75.1724 68.1097V79.1178H69.1063Z" fill="url(#paint0_linear_271_3536)"/>
<path d="M56.8791 75.4805H55.8678C55.3621 75.4805 54.9521 75.9018 54.9521 76.4215C54.9521 76.9413 55.3621 77.3626 55.8678 77.3626H56.8791C57.3848 77.3626 57.7947 76.9413 57.7947 76.4215C57.7947 75.9018 57.3848 75.4805 56.8791 75.4805Z" fill="url(#paint1_linear_271_3536)"/>
<path d="M56.8791 72.6641H55.8678C55.3621 72.6641 54.9521 73.0854 54.9521 73.6051C54.9521 74.1249 55.3621 74.5462 55.8678 74.5462H56.8791C57.3848 74.5462 57.7947 74.1249 57.7947 73.6051C57.7947 73.0854 57.3848 72.6641 56.8791 72.6641Z" fill="url(#paint2_linear_271_3536)"/>
<path d="M54.8143 31.1682C54.1033 29.7725 53.3065 28.4539 52.4463 27.2489C48.8888 22.2656 44.8515 19.9812 42.161 21.4291C41.0666 22.0181 40.3284 23.146 39.9835 24.7052C39.1699 26.9382 36.5584 32.9688 31.0089 36.6891L24.6517 40.1102C24.2674 40.3169 23.9852 40.6827 23.8773 41.1137C23.7836 41.4881 23.7215 41.8679 23.6871 42.2496C23.5357 42.3093 23.386 42.3748 23.2421 42.4523C22.2422 42.9903 21.5109 43.9037 21.183 45.0241C20.8571 46.1371 20.9691 47.322 21.4981 48.3604C22.0271 49.3988 22.9108 50.1683 23.9864 50.5272C24.4162 50.6706 24.856 50.7417 25.2928 50.7417C25.9564 50.7417 26.613 50.5775 27.216 50.253C27.3146 50.1999 27.4106 50.1413 27.5048 50.0803C27.9035 50.3335 28.326 50.5483 28.7694 50.7169C28.8923 50.7637 29.0196 50.7928 29.1479 50.8059L31.655 54.0919C31.835 54.3279 32.1038 54.4524 32.3761 54.4524C32.5389 54.4524 32.702 54.4052 32.849 54.3135L38.1245 61.8563C38.4806 62.3655 39.0338 62.6862 39.642 62.7361C39.6975 62.7407 39.7528 62.743 39.808 62.743C40.3576 62.743 40.8852 62.5191 41.2763 62.1149L43.8654 59.4387C44.3386 58.9496 44.5524 58.2519 44.4376 57.5724C44.3226 56.8929 43.8923 56.3103 43.2863 56.014L41.2101 54.9989L38.178 50.4672C38.4781 50.1818 38.5634 49.7213 38.3681 49.3403L37.0818 46.8305L37.5499 46.5786C37.6026 46.5503 37.6503 46.5156 37.6957 46.4784C42.4767 44.2608 48.4083 46.1062 50.8527 47.0575C51.2696 47.2764 51.678 47.4492 52.0758 47.5761C52.0897 47.5811 52.1037 47.5849 52.1176 47.5892C52.6423 47.7525 53.1485 47.8368 53.63 47.8368C54.2642 47.8367 54.8566 47.6938 55.3938 47.4047C57.1303 46.4702 57.9722 44.1816 57.7643 40.9604C57.5737 38.0058 56.526 34.5282 54.8143 31.1682ZM45.0432 31.6605C45.2282 31.6634 45.5825 31.7887 46.0529 32.1691C46.7659 32.7457 47.4959 33.7066 48.0556 34.8054C48.6154 35.9042 48.9679 37.0681 49.0228 37.9989C49.0553 38.5502 48.9765 38.9051 48.8855 39.0863L45.492 38.8135C45.0979 38.1669 44.7195 37.4925 44.3629 36.7925C43.8859 35.8561 43.4773 34.9359 43.1292 34.0409L45.0432 31.6605ZM25.6198 41.7138L31.4317 38.5861C31.3744 41.386 32.8227 44.229 35.0943 45.7756L29.2823 48.9032C26.67 47.8291 24.9905 44.5322 25.6198 41.7138ZM24.5518 48.7371C23.9343 48.531 23.426 48.0872 23.1204 47.4874C22.8148 46.8875 22.7495 46.2053 22.9366 45.5663C23.0844 45.0614 23.378 44.634 23.7751 44.3281C24.0566 45.9746 24.8258 47.5437 25.9421 48.7617C25.4932 48.8973 25.0128 48.8909 24.5518 48.7371ZM40.2015 56.59L42.4996 57.7136C42.5925 57.7591 42.6236 57.8372 42.6334 57.8947C42.6431 57.9523 42.6395 58.0366 42.5669 58.1116L39.9778 60.7878C39.9127 60.8551 39.8382 60.864 39.7878 60.86C39.737 60.8558 39.6652 60.8347 39.6114 60.7578L34.3516 53.2372L36.6846 51.557L39.8404 56.2734C39.9316 56.4097 40.0562 56.5189 40.2015 56.59ZM36.372 49.4839L32.5607 52.2288L30.9568 50.1266L35.4595 47.7036L36.372 49.4839ZM37.05 44.7164C34.3414 43.5977 32.6283 40.0589 33.4834 37.1828C36.5258 34.7455 38.5997 31.7595 39.9422 29.2805C40.3236 31.902 41.2936 34.8252 42.7406 37.6656C43.9786 40.0958 45.4643 42.2651 47.0442 43.9788C46.9923 43.9683 46.9408 43.9576 46.8884 43.9474C43.1433 43.2185 39.7818 43.487 37.05 44.7164ZM54.5444 45.7373C54.0527 46.0018 53.4244 46.0182 52.7064 45.8068C52.5525 45.7337 52.1555 45.551 51.5664 45.3182C51.0766 45.0489 50.5618 44.6979 50.0308 44.2634C48.9314 43.3639 47.846 42.1862 46.8293 40.8089L49.1307 40.9939C49.1532 40.9957 49.1754 40.9965 49.1976 40.9966C49.1994 40.9966 49.2011 40.997 49.2029 40.997C49.2067 40.997 49.2105 40.9963 49.2142 40.9963C49.2435 40.9959 49.2724 40.9942 49.301 40.991C49.3116 40.9898 49.3222 40.9879 49.3328 40.9863C49.356 40.9828 49.3791 40.9787 49.4017 40.9735C49.4122 40.9711 49.4225 40.9685 49.4328 40.9657C49.4585 40.9589 49.4836 40.9509 49.5083 40.9418C49.5152 40.9393 49.522 40.9372 49.5288 40.9345C49.5612 40.9218 49.5929 40.9073 49.6235 40.891C49.6246 40.8904 49.6257 40.89 49.6268 40.8894C50.134 40.6165 50.9674 39.8633 50.8506 37.885C50.7797 36.6812 50.3632 35.2774 49.6779 33.9323C48.9927 32.5872 48.1075 31.4357 47.1853 30.6899C45.679 29.4718 44.6062 29.736 44.0952 30.0072C44.0645 30.0232 44.0346 30.0409 44.0055 30.0607C44.0014 30.0635 43.9977 30.0667 43.9936 30.0696C43.9732 30.0839 43.953 30.0987 43.9336 30.1149C43.916 30.1296 43.8995 30.1454 43.8832 30.1612C43.8779 30.1663 43.8723 30.1708 43.8671 30.1761C43.8434 30.2001 43.8211 30.2254 43.8003 30.2517L42.4173 31.9717C41.6038 29.2289 41.4223 26.856 41.7545 25.2254C41.928 24.7312 42.0168 24.4216 42.0344 24.3588C42.0467 24.3147 42.0547 24.2704 42.0606 24.2261C42.2951 23.696 42.6142 23.3098 43.0105 23.0965C43.2829 22.9499 43.5933 22.8792 43.9342 22.8792C45.7939 22.8792 48.5581 24.9841 50.9698 28.3623C51.7758 29.4913 52.5236 30.7291 53.1921 32.0412C56.5905 38.7125 56.6324 44.6137 54.5444 45.7373Z" fill="url(#paint3_linear_271_3536)"/>
<path d="M28.1198 44.1217L30.1182 43.0463C30.5661 42.8053 30.7392 42.2366 30.5046 41.7761C30.27 41.3157 29.7166 41.1381 29.2687 41.379L27.2704 42.4543C26.8224 42.6953 26.6494 43.264 26.884 43.7245C27.0475 44.0456 27.3661 44.2292 27.6959 44.2292C27.839 44.2293 27.9843 44.1946 28.1198 44.1217Z" fill="url(#paint4_linear_271_3536)"/>
<path d="M28.5458 44.9583C28.0978 45.1993 27.9247 45.768 28.1594 46.2285C28.3229 46.5496 28.6415 46.7332 28.9713 46.7332C29.1144 46.7332 29.2597 46.6986 29.3952 46.6256L31.3935 45.5503C31.8415 45.3093 32.0145 44.7406 31.7799 44.2801C31.5454 43.8198 30.992 43.6418 30.544 43.883L28.5458 44.9583Z" fill="url(#paint5_linear_271_3536)"/>
<path d="M65.4282 26.079C65.2277 25.6019 64.6888 25.382 64.2246 25.5881L57.3556 28.6374C56.8913 28.8435 56.6775 29.3974 56.878 29.8745C57.0275 30.2301 57.3647 30.4426 57.7191 30.4426C57.8402 30.4426 57.9634 30.4178 58.0816 30.3653L64.9506 27.316C65.4149 27.11 65.6287 26.5561 65.4282 26.079Z" fill="url(#paint6_linear_271_3536)"/>
<path d="M55.2695 25.9451C55.4857 25.9451 55.7028 25.8669 55.8772 25.7077L58.983 22.8723C59.3611 22.5271 59.3954 21.9323 59.0596 21.5437C58.7237 21.1551 58.1449 21.1199 57.767 21.465L54.6611 24.3004C54.283 24.6456 54.2488 25.2404 54.5845 25.629C54.7655 25.8384 55.0169 25.9451 55.2695 25.9451Z" fill="url(#paint7_linear_271_3536)"/>
<path d="M63.4851 33.0809L59.1427 33.48C58.6391 33.5263 58.2672 33.9834 58.3123 34.5011C58.3549 34.9902 58.7544 35.3584 59.2232 35.3584C59.2505 35.3584 59.2781 35.3571 59.3058 35.3546L63.6482 34.9555C64.1518 34.9092 64.5237 34.4521 64.4786 33.9344C64.4336 33.4168 63.9903 33.0349 63.4851 33.0809Z" fill="url(#paint8_linear_271_3536)"/>
<path d="M29.1051 65.303H33.7999C34.3056 65.303 34.7156 64.8817 34.7156 64.362C34.7156 63.8422 34.3056 63.4209 33.7999 63.4209H29.1051C28.5994 63.4209 28.1895 63.8422 28.1895 64.362C28.1895 64.8817 28.5994 65.303 29.1051 65.303Z" fill="url(#paint9_linear_271_3536)"/>
<path d="M46.0101 68.3164H29.1051C28.5994 68.3164 28.1895 68.7377 28.1895 69.2575C28.1895 69.7772 28.5994 70.1985 29.1051 70.1985H46.0101C46.5158 70.1985 46.9258 69.7772 46.9258 69.2575C46.9258 68.7377 46.5158 68.3164 46.0101 68.3164Z" fill="url(#paint10_linear_271_3536)"/>
<path d="M46.0101 73.3564H29.1051C28.5994 73.3564 28.1895 73.7778 28.1895 74.2975C28.1895 74.8172 28.5994 75.2386 29.1051 75.2386H46.0101C46.5158 75.2386 46.9258 74.8172 46.9258 74.2975C46.9258 73.7778 46.5158 73.3564 46.0101 73.3564Z" fill="url(#paint11_linear_271_3536)"/>
<defs>
<linearGradient id="paint0_linear_271_3536" x1="48.1748" y1="49.8359" x2="85.2405" y2="56.1665" gradientUnits="userSpaceOnUse">
<stop stop-color="#9854CB"/>
<stop offset="1" stop-color="#5C19E9"/>
</linearGradient>
<linearGradient id="paint1_linear_271_3536" x1="54.9521" y1="75.4805" x2="58.0687" y2="76.2437" gradientUnits="userSpaceOnUse">
<stop stop-color="#9854CB"/>
<stop offset="1" stop-color="#5C19E9"/>
</linearGradient>
<linearGradient id="paint2_linear_271_3536" x1="54.9521" y1="72.6641" x2="58.0687" y2="73.4273" gradientUnits="userSpaceOnUse">
<stop stop-color="#9854CB"/>
<stop offset="1" stop-color="#5C19E9"/>
</linearGradient>
<linearGradient id="paint3_linear_271_3536" x1="21" y1="21" x2="62.9057" y2="26.9898" gradientUnits="userSpaceOnUse">
<stop stop-color="#9854CB"/>
<stop offset="1" stop-color="#5C19E9"/>
</linearGradient>
<linearGradient id="paint4_linear_271_3536" x1="26.7793" y1="41.2715" x2="31.0424" y2="42.1666" gradientUnits="userSpaceOnUse">
<stop stop-color="#9854CB"/>
<stop offset="1" stop-color="#5C19E9"/>
</linearGradient>
<linearGradient id="paint5_linear_271_3536" x1="28.0547" y1="43.7754" x2="32.3177" y2="44.6705" gradientUnits="userSpaceOnUse">
<stop stop-color="#9854CB"/>
<stop offset="1" stop-color="#5C19E9"/>
</linearGradient>
<linearGradient id="paint6_linear_271_3536" x1="56.8027" y1="25.5107" x2="66.1494" y2="28.1845" gradientUnits="userSpaceOnUse">
<stop stop-color="#9854CB"/>
<stop offset="1" stop-color="#5C19E9"/>
</linearGradient>
<linearGradient id="paint7_linear_271_3536" x1="54.3535" y1="21.2275" x2="59.9306" y2="22.174" gradientUnits="userSpaceOnUse">
<stop stop-color="#9854CB"/>
<stop offset="1" stop-color="#5C19E9"/>
</linearGradient>
<linearGradient id="paint8_linear_271_3536" x1="58.3086" y1="33.0771" x2="64.3248" y2="35.7173" gradientUnits="userSpaceOnUse">
<stop stop-color="#9854CB"/>
<stop offset="1" stop-color="#5C19E9"/>
</linearGradient>
<linearGradient id="paint9_linear_271_3536" x1="28.1895" y1="63.4209" x2="33.9521" y2="66.661" gradientUnits="userSpaceOnUse">
<stop stop-color="#9854CB"/>
<stop offset="1" stop-color="#5C19E9"/>
</linearGradient>
<linearGradient id="paint10_linear_271_3536" x1="28.1895" y1="68.3164" x2="34.2284" y2="78.0645" gradientUnits="userSpaceOnUse">
<stop stop-color="#9854CB"/>
<stop offset="1" stop-color="#5C19E9"/>
</linearGradient>
<linearGradient id="paint11_linear_271_3536" x1="28.1895" y1="73.3564" x2="34.2284" y2="83.1046" gradientUnits="userSpaceOnUse">
<stop stop-color="#9854CB"/>
<stop offset="1" stop-color="#5C19E9"/>
</linearGradient>
</defs>
</svg>
