<svg width="40" height="40" viewBox="0 0 40 40" fill="none" xmlns="http://www.w3.org/2000/svg">
<rect x="0.262695" width="39.4737" height="39.4737" rx="10" fill="white" fill-opacity="0.1"/>
<rect x="0.762695" y="0.5" width="38.4737" height="38.4737" rx="9.5" stroke="#F6FBFF" stroke-opacity="0.7"/>
<path d="M17.2066 21.2662C17.1149 21.2662 15.1911 21.2668 14.3039 21.2659C13.8471 21.2656 13.6841 21.0992 13.6841 20.6333C13.6836 19.4363 13.6833 18.2394 13.6841 17.0424C13.6844 16.5824 13.8567 16.4068 14.3077 16.4065C15.1949 16.4059 17.1081 16.4062 17.2066 16.4062C17.2066 16.3242 17.2063 14.5962 17.2066 13.8004C17.2071 12.6239 17.4142 11.4977 18.0039 10.4665C18.6075 9.41109 19.486 8.68813 20.6119 8.27011C21.3329 8.00218 22.0815 7.89531 22.8466 7.89471C23.804 7.89412 24.7613 7.89501 25.719 7.89679C26.1305 7.89738 26.313 8.08182 26.3139 8.50192C26.3156 9.6278 26.3156 10.7537 26.3139 11.8793C26.3133 12.3038 26.1383 12.4743 25.7175 12.4791C24.9328 12.4877 24.1474 12.4823 23.3636 12.5143C22.5718 12.5143 22.1554 12.9063 22.1554 13.737C22.1364 14.6157 22.1475 15.4953 22.1475 16.4059C22.2217 16.4059 24.4748 16.4056 25.528 16.4059C26.0063 16.4059 26.1699 16.5726 26.1699 17.0602C26.1699 18.2506 26.1696 19.4413 26.1687 20.6318C26.1684 21.1123 26.0148 21.2656 25.5335 21.2659C24.4804 21.2665 22.236 21.2662 22.1378 21.2662V30.9012C22.1378 31.4149 21.9784 31.5786 21.4784 31.5786C20.2594 31.5786 19.0401 31.5789 17.821 31.5786C17.3792 31.5786 17.2069 31.4045 17.2069 30.9566C17.2066 27.8187 17.2066 21.3763 17.2066 21.2662Z" fill="#F6FBFF"/>
</svg>
