<svg viewBox="0 0 282 40" fill="none" xmlns="http://www.w3.org/2000/svg">
<path fill-rule="evenodd" clip-rule="evenodd" d="M0 39.2971H30.4183L36.8863 24.1582H66.9296L60.5085 39.2971H91.3486L108.315 1.70776H77.1003L71.4291 14.5031H41.5732L47.0101 1.70776H16.5918L0 39.2971Z" fill="white"/>
<path fill-rule="evenodd" clip-rule="evenodd" d="M175.434 14.2217C204.446 14.2217 204.446 14.2217 204.446 14.2217C203.977 7.80061 197.978 3.6761 186.026 1.84818C162.076 -1.80764 136.251 -0.448431 117.831 9.62851C103.067 17.8775 102.177 29.7824 116.472 35.688C128.939 40.703 154.249 41.1717 172.669 37.9846C184.667 36.1566 193.385 32.0321 198.494 26.5484C169.013 26.5484 169.013 26.5484 169.013 26.5484C165.357 29.3137 160.248 30.6729 154.296 31.1416C137.704 31.1416 135.407 26.1266 138.641 20.1741C141.875 13.753 149.234 9.62851 160.295 9.62851C168.966 9.15981 173.137 10.9877 175.434 14.2217Z" fill="white"/>
<path fill-rule="evenodd" clip-rule="evenodd" d="M250.94 1.70776L237.91 29.9701H281.217L277.702 39.2971H202.57L219.537 1.70776H250.94Z" fill="white"/>
</svg>
