<svg viewBox="0 0 118 50" fill="none" xmlns="http://www.w3.org/2000/svg">
<path fill-rule="evenodd" clip-rule="evenodd" d="M0.000936224 5.11435L0 5.05296V0.138496H4.51833V36.1838L4.52021 36.2962V41.1597H0V36.2452L0.000936224 36.1838V5.11435Z" fill="white"/>
<path fill-rule="evenodd" clip-rule="evenodd" d="M45.9443 26.2206C46.0603 33.676 50.3102 39.6383 55.4373 39.5384C60.5634 39.4385 64.6244 33.3139 64.5084 25.8584C64.3914 18.4019 60.1416 12.4397 55.0145 12.5406C49.8884 12.6405 45.8273 18.7651 45.9443 26.2206ZM83.3553 17.2064C83.4733 17.4904 83.1934 16.7818 83.1934 16.7818L83.3553 17.2064ZM86.4347 48.0719C86.6418 47.6869 86.9303 47.0979 87.2736 46.3623L86.4347 48.0719ZM86.7002 14.6342C86.7549 14.7996 86.8182 14.9723 86.8891 15.1544L88.4105 19.2219L86.7002 14.6342ZM67.768 35.1099C70.5606 37.8777 73.0753 39.3085 76.2908 39.3085C79.582 39.3355 82.5079 37.578 82.5079 34.1953C82.5079 31.3723 80.2156 29.7209 76.1201 27.8303C72.6496 26.1904 70.0669 25.0406 68.7171 22.6671C68.882 23.6983 68.9683 24.7638 68.9683 25.8543C68.9683 35.01 62.8863 42.4332 55.3836 42.4332C47.8808 42.4332 41.7989 35.01 41.7989 25.8543C41.7989 20.3342 44.0096 15.4447 47.4082 12.4313H38.2153V36.1837L38.2163 36.2784V41.1596H34.1332V36.4376C34.1361 36.3544 34.137 36.2701 34.137 36.1837V12.4313H30.5371V9.44186H34.1897C34.6614 3.41089 38.083 0 42.8199 0C45.8915 0 47.5779 0.349628 48.5519 0.841801V4.93008C48.5366 5.23496 48.5366 5.42122 48.5366 5.42122C48.4944 5.41602 48.3938 5.41393 48.3938 5.41393C46.9155 3.92492 45.4573 2.81674 42.051 2.8209C39.3379 2.8209 37.5433 5.22768 38.1703 9.44186H53.4518C54.0836 9.3326 54.7278 9.27537 55.3836 9.27537C60.8261 9.27537 65.5218 13.1815 67.6894 18.8234C67.6693 18.5102 67.6597 18.1834 67.6597 17.8421C67.6597 11.9558 72.8778 9.45227 78.2983 9.46476C78.5053 9.46371 78.7086 9.46474 78.908 9.46995C80.8158 9.43665 83.5337 10.1161 85.1932 10.5927L88.4105 19.2219L93.0084 31.4669L93.5482 33.4336L94.1493 31.4669L99.9638 15.7496C101.037 11.422 105.283 9.54903 109.973 9.55943C112.304 9.54799 114.026 9.85495 116.091 10.6478V15.401C113.548 13.3834 111.728 12.2107 108.843 12.2107C106.307 12.2107 103.26 13.4365 103.26 17.5112C103.211 20.5736 104.893 21.1334 109.831 23.8086C113.889 25.7325 117.632 27.8563 117.655 32.7749C117.655 40.9754 110.255 42.3957 106.654 42.4082C103.438 42.4082 100.491 41.5415 98.8517 40.0524V34.6385L99.1153 34.8768C102.04 37.859 104.625 39.4042 107.965 39.4042C111.257 39.4312 114.182 37.6727 114.182 34.2899C114.182 31.467 111.89 29.8156 107.794 27.925C103.88 26.0749 101.312 24.8491 100.262 21.7847C98.6657 26.0353 91.2406 45.7796 89.4929 50H85.4894L87.3013 46.3061C88.3051 44.148 89.7652 40.7621 91.0623 37.5229L83.3553 17.2064C83.3036 17.0825 83.1771 16.7704 82.9192 16.1304C82.3277 14.6591 81.7774 13.3002 80.1131 12.6155C79.2215 12.2877 78.2724 12.116 77.1689 12.116C74.6332 12.116 71.3899 13.3418 71.3899 17.4166C71.341 20.4789 73.2181 21.0387 78.1564 23.7129C82.2145 25.6379 85.9582 27.7616 85.9803 32.6802C85.9803 40.8807 78.5801 42.3 74.9783 42.3135C72.1195 42.3135 69.4716 41.6278 67.768 40.4291V35.1099Z" fill="white"/>
<path fill-rule="evenodd" clip-rule="evenodd" d="M12.9495 9.74786L12.9993 13.3356L12.9964 13.577L13.0405 13.576C13.0932 13.4262 13.1642 13.2992 13.2313 13.2045C14.8908 11.2618 16.9827 9.33164 21.9545 9.33164C26.7134 9.33164 29.7937 13.7466 29.9173 16.5259L29.9221 36.1838V36.2816V41.1597H25.8439V35.2983L25.8429 18.5633C25.8429 15.0983 23.0579 12.5927 19.6488 12.5927C16.8149 12.5927 13.1776 15.3772 13.0568 18.196V36.189L13.0588 36.3212V41.1638H8.97852V13.8788L8.97951 9.74786H12.9495Z" fill="white"/>
</svg>
