<svg width="40" height="40" viewBox="0 0 40 40" fill="none" xmlns="http://www.w3.org/2000/svg">
<rect width="39.4737" height="39.4737" rx="10" fill="white" fill-opacity="0.1"/>
<rect x="0.5" y="0.5" width="38.4737" height="38.4737" rx="9.5" stroke="#F6FBFF" stroke-opacity="0.7"/>
<path d="M31.5075 14.8542C31.4499 13.5937 31.2497 12.7329 30.957 11.9797C30.6597 11.1895 30.1935 10.4738 29.5911 9.88219C28.9997 9.27975 28.2837 8.81337 27.4936 8.51595C26.7402 8.2234 25.8796 8.02337 24.619 7.96609C23.3562 7.90826 22.9527 7.89453 19.7366 7.89453C16.5206 7.89453 16.1171 7.90826 14.8542 7.96573C13.5937 8.02337 12.733 8.22358 11.9797 8.51631C11.1895 8.81355 10.4738 9.27975 9.88219 9.88219C9.27975 10.4736 8.81337 11.1893 8.51595 11.9795C8.2234 12.7329 8.02337 13.5937 7.96609 14.854C7.90826 16.1171 7.89453 16.5204 7.89453 19.7365C7.89453 22.9527 7.90826 23.3562 7.96609 24.619C8.02355 25.8794 8.22376 26.7402 8.51649 27.4936C8.81373 28.2836 9.27993 28.9995 9.88237 29.5909C10.4738 30.1933 11.1897 30.6595 11.9799 30.9568C12.733 31.2497 13.5939 31.4497 14.8544 31.5074C16.1175 31.565 16.5208 31.5786 19.7368 31.5786C22.9528 31.5786 23.3563 31.565 24.6192 31.5074C25.8798 31.4497 26.7404 31.2497 27.4937 30.9568C29.0844 30.3417 30.3419 29.0842 30.957 27.4936C31.2499 26.7402 31.4499 25.8794 31.5075 24.619C31.565 23.356 31.5787 22.9527 31.5787 19.7366C31.5787 16.5204 31.565 16.1171 31.5075 14.8542ZM29.3759 24.522C29.3233 25.6767 29.1303 26.3037 28.9682 26.7209C28.5698 27.7538 27.7536 28.57 26.7207 28.9684C26.3035 29.1305 25.6765 29.3235 24.5218 29.3761C23.2734 29.4332 22.8988 29.4451 19.7366 29.4451C16.5743 29.4451 16.1999 29.4332 14.9513 29.3761C13.7968 29.3235 13.1698 29.1305 12.7524 28.9684C12.2381 28.7785 11.7728 28.4758 11.3908 28.0825C10.9974 27.7005 10.6948 27.2353 10.5049 26.7209C10.3428 26.3037 10.1498 25.6767 10.0972 24.522C10.0403 23.2734 10.0282 22.8988 10.0282 19.7368C10.0282 16.5746 10.0403 16.2002 10.0972 14.9514C10.15 13.7968 10.3428 13.1698 10.5049 12.7525C10.6948 12.2381 10.9976 11.7728 11.3908 11.3908C11.7728 10.9974 12.2381 10.6948 12.7525 10.505C13.1698 10.3428 13.7968 10.15 14.9514 10.0972C16.2001 10.0403 16.5746 10.0282 19.7366 10.0282H19.7365C22.8985 10.0282 23.273 10.0403 24.5218 10.0974C25.6765 10.15 26.3033 10.343 26.7207 10.505C27.235 10.695 27.7003 10.9976 28.0823 11.3908C28.4756 11.7728 28.7783 12.2381 28.968 12.7525C29.1303 13.1698 29.3233 13.7968 29.3759 14.9514C29.4328 16.2001 29.4449 16.5746 29.4449 19.7366C29.4449 22.8988 29.433 23.2732 29.3759 24.522Z" fill="#F6FBFF"/>
<path d="M19.7372 13.6553C16.3788 13.6553 13.6562 16.378 13.6562 19.7364C13.6562 23.0948 16.3788 25.8174 19.7372 25.8174C23.0958 25.8174 25.8184 23.0948 25.8184 19.7364C25.8184 16.378 23.0958 13.6553 19.7372 13.6553ZM19.7372 23.6837C17.5573 23.6835 15.7899 21.9163 15.7901 19.7362C15.7901 17.5563 17.5573 15.7889 19.7374 15.7889C21.9175 15.7891 23.6847 17.5563 23.6847 19.7362C23.6847 21.9163 21.9173 23.6837 19.7372 23.6837Z" fill="url(#paint0_linear_271_3929)"/>
<path d="M27.4789 13.4153C27.4789 14.2001 26.8427 14.8363 26.0579 14.8363C25.2729 14.8363 24.6367 14.2001 24.6367 13.4153C24.6367 12.6304 25.2729 11.9941 26.0579 11.9941C26.8427 11.9941 27.4789 12.6304 27.4789 13.4153Z" fill="url(#paint1_linear_271_3929)"/>
<defs>
<linearGradient id="paint0_linear_271_3929" x1="15.4374" y1="24.0363" x2="24.0373" y2="15.4364" gradientUnits="userSpaceOnUse">
<stop stop-color="#F6FBFF"/>
<stop offset="0.5" stop-color="#F6FBFF"/>
<stop offset="1" stop-color="#F6FBFF"/>
</linearGradient>
<linearGradient id="paint1_linear_271_3929" x1="25.053" y1="14.42" x2="27.0626" y2="12.4104" gradientUnits="userSpaceOnUse">
<stop stop-color="#F6FBFF"/>
<stop offset="1" stop-color="#F6FBFF"/>
</linearGradient>
</defs>
</svg>
