<svg  viewBox="0 0 33 28" fill="none" xmlns="http://www.w3.org/2000/svg">
<path d="M0.836941 12.5726L0.837009 12.5727L0.832165 12.5776C0.0571632 13.3601 0.0547562 14.6374 0.832077 15.4225L0.832146 15.4224L0.83638 15.4269L0.836914 15.4275L12.494 27.1663C13.2694 27.9471 14.5225 27.9443 15.2943 27.1595L15.2943 27.1595C16.0678 26.3732 16.0648 25.1001 15.2877 24.3176L7.45927 16.4342L7.03609 16.0081H7.63667L30.7685 16.0081C31.8601 16.0081 32.75 15.1119 32.75 14C32.75 12.8881 31.8601 11.9919 30.7685 11.9919L7.63655 11.9919H7.03596L7.45916 11.5658L15.2878 3.68243C16.0649 2.89985 16.0679 1.62684 15.2945 0.840525C14.5226 0.0557488 13.2696 0.052857 12.4941 0.8337L0.836941 12.5726Z" fill="white" stroke="#020001" stroke-width="0.5"/>
</svg>
