
<svg width="40" height="40" viewBox="0 0 40 40" fill="none" xmlns="http://www.w3.org/2000/svg">
<rect width="39.4737" height="39.4737" rx="10" fill="white" fill-opacity="0.1"/>
<rect x="0.5" y="0.5" width="38.4737" height="38.4737" rx="9.5" stroke="#F6FBFF" stroke-opacity="0.7"/>
<path d="M28.6001 28.5999V22.1539C28.6001 18.9859 27.9181 16.5659 24.2221 16.5659C22.4401 16.5659 21.2521 17.5339 20.7681 18.4579H20.7241V16.8519H17.2261V28.5999H20.8781V22.7699C20.8781 21.2299 21.1641 19.7559 23.0561 19.7559C24.9261 19.7559 24.9481 21.4939 24.9481 22.8579V28.5779H28.6001V28.5999Z" fill="#F6FBFF"/>
<path d="M11.2861 16.8521H14.9381V28.6H11.2861V16.8521Z" fill="#F6FBFF"/>
<path d="M13.112 11C11.946 11 11 11.946 11 13.112C11 14.278 11.946 15.246 13.112 15.246C14.278 15.246 15.224 14.278 15.224 13.112C15.224 11.946 14.278 11 13.112 11Z" fill="#F6FBFF"/>
</svg>
