<svg viewBox="0 0 238 40" fill="none" xmlns="http://www.w3.org/2000/svg">
<path d="M11.4269 39.5076H0V0.646692H19.7627L42.4355 29.6589V0.646692H53.8624V39.5076H34.5002L11.4269 10V39.5076ZM108.535 27.4904C108.535 32.8923 107.579 34.7553 105.998 36.5411C103.575 39.1991 100.047 40 93.2513 40H73.7407C66.9445 40 63.4115 39.1991 60.9908 36.5411C59.4097 34.7553 58.4545 32.8923 58.4545 27.4904V12.5096C58.4545 7.11065 59.4097 5.25067 60.9908 3.46188C63.4144 0.800949 66.9445 0 73.7407 0H93.2513C100.047 0 103.575 0.800949 105.998 3.46188C107.579 5.25067 108.535 7.11065 108.535 12.5096V27.4904ZM92.7707 30.1543C95.3812 30.1543 96.3008 30 96.9267 29.4304C97.5111 28.8994 97.7692 28.2142 97.7692 25.93V14.07C97.7692 11.7858 97.5111 11.1065 96.9267 10.5725C96.3008 10 95.3812 9.84871 92.7707 9.84871H74.2183C71.6078 9.84871 70.6882 10 70.0653 10.5725C69.4779 11.1065 69.2198 11.7858 69.2198 14.07V25.93C69.2198 28.2142 69.4779 28.8994 70.0653 29.4304C70.6882 30 71.6078 30.1543 74.2183 30.1543H92.7707ZM125.141 0.646692V39.5076H113.201V0.646692H125.141ZM145.313 0.646692H161.077L139.801 18.8223L163.797 39.5076H146.93L125.141 19.2406L145.313 0.646692ZM165.998 0.646692H177.941V39.5076H165.998M223.468 39.5076L219.935 32.7381H196.829L193.337 39.5046H180.145L201.311 0.646692H216.155L237.318 39.5076H223.468ZM200.979 24.2984H215.826L208.401 10.2284L200.979 24.2984Z" fill="white"/>
</svg>
