<svg width="170" height="41" viewBox="0 0 170 41" fill="none" xmlns="http://www.w3.org/2000/svg">
<path d="M70.4 18H68.2C66.9667 18 66.0083 17.6583 65.325 16.975C64.6583 16.2917 64.325 15.3417 64.325 14.125V9.125C64.325 7.89167 64.6583 6.94167 65.325 6.275C66.0083 5.59167 66.9667 5.25 68.2 5.25H70.4C71.6167 5.25 72.5667 5.59167 73.25 6.275C73.95 6.94167 74.3 7.89167 74.3 9.125V14.125C74.3 15.3417 73.95 16.2917 73.25 16.975C72.5667 17.6583 71.6167 18 70.4 18ZM68.55 15.875H70.075C71.275 15.875 71.875 15.2667 71.875 14.05V9.2C71.875 7.98333 71.275 7.375 70.075 7.375H68.55C67.9167 7.375 67.4583 7.525 67.175 7.825C66.8917 8.10833 66.75 8.56667 66.75 9.2V14.05C66.75 14.6833 66.8917 15.15 67.175 15.45C67.4583 15.7333 67.9167 15.875 68.55 15.875ZM79.1727 21.525H77.5977C77.3143 21.525 77.1727 21.3833 77.1727 21.1V5.675C77.1727 5.39167 77.3143 5.25 77.5977 5.25H79.1727C79.456 5.25 79.5977 5.39167 79.5977 5.675V6.575H79.6977C80.0977 5.69167 80.9393 5.25 82.2227 5.25H83.4977C84.6977 5.25 85.6143 5.58333 86.2477 6.25C86.8977 6.91667 87.2227 7.875 87.2227 9.125V14.125C87.2227 15.3583 86.8977 16.3167 86.2477 17C85.6143 17.6667 84.6977 18 83.4977 18H82.2227C80.9393 18 80.0977 17.5583 79.6977 16.675H79.5977V21.1C79.5977 21.3833 79.456 21.525 79.1727 21.525ZM81.6477 15.875H82.9727C84.1727 15.875 84.7727 15.2583 84.7727 14.025V9.225C84.7727 7.99167 84.1727 7.375 82.9727 7.375H81.6477C80.281 7.375 79.5977 8.08333 79.5977 9.5V13.75C79.5977 15.1667 80.281 15.875 81.6477 15.875ZM99.1371 18H93.7371C92.5038 18 91.5454 17.6583 90.8621 16.975C90.1954 16.2917 89.8621 15.3417 89.8621 14.125V9.125C89.8621 7.89167 90.1954 6.94167 90.8621 6.275C91.5454 5.59167 92.5038 5.25 93.7371 5.25H95.7871C97.0204 5.25 97.9788 5.59167 98.6621 6.275C99.3454 6.94167 99.6871 7.89167 99.6871 9.125V12.3C99.6871 12.6 99.5371 12.75 99.2371 12.75H92.5371C92.3538 12.75 92.2621 12.8333 92.2621 13V14.075C92.2621 15.2917 92.8704 15.9 94.0871 15.9H99.1371C99.4371 15.9 99.5871 16.05 99.5871 16.35V17.6C99.5871 17.8667 99.4371 18 99.1371 18ZM92.5371 11.05H97.0121C97.1788 11.05 97.2621 10.9667 97.2621 10.8V9.2C97.2621 8.56667 97.1204 8.10833 96.8371 7.825C96.5538 7.525 96.0954 7.375 95.4621 7.375H94.0871C93.4538 7.375 92.9954 7.525 92.7121 7.825C92.4288 8.10833 92.2871 8.56667 92.2871 9.2V10.8C92.2871 10.9667 92.3704 11.05 92.5371 11.05ZM104.441 18H102.866C102.583 18 102.441 17.8583 102.441 17.575V5.675C102.441 5.39167 102.583 5.25 102.866 5.25H104.441C104.725 5.25 104.866 5.39167 104.866 5.675V6.575H104.966C105.366 5.69167 106.208 5.25 107.491 5.25H108.591C109.808 5.25 110.741 5.58333 111.391 6.25C112.041 6.91667 112.366 7.875 112.366 9.125V17.575C112.366 17.8583 112.216 18 111.916 18H110.341C110.058 18 109.916 17.8583 109.916 17.575V9.225C109.916 7.99167 109.308 7.375 108.091 7.375H106.916C105.55 7.375 104.866 8.08333 104.866 9.5V17.575C104.866 17.8583 104.725 18 104.441 18ZM119.906 18H115.306C115.023 18 114.881 17.8583 114.881 17.575V16.35C114.881 16.0833 115.023 15.95 115.306 15.95H119.506C120.59 15.95 121.131 15.575 121.131 14.825V14.525C121.131 13.8583 120.74 13.35 119.956 13L117.231 11.7C116.381 11.3 115.765 10.8583 115.381 10.375C114.998 9.89167 114.806 9.25833 114.806 8.475C114.806 6.325 115.998 5.25 118.381 5.25H122.531C122.798 5.25 122.931 5.39167 122.931 5.675V6.9C122.931 7.18333 122.798 7.325 122.531 7.325H118.881C118.381 7.325 117.998 7.41667 117.731 7.6C117.465 7.76667 117.331 7.99167 117.331 8.275V8.55C117.331 9.08333 117.756 9.55 118.606 9.95L121.356 11.35C122.223 11.7333 122.815 12.1917 123.131 12.725C123.465 13.2417 123.631 13.9167 123.631 14.75C123.631 16.9167 122.39 18 119.906 18ZM126.596 7.375H125.396C125.229 7.375 125.112 7.35 125.046 7.3C124.996 7.23333 124.971 7.125 124.971 6.975V5.675C124.971 5.39167 125.112 5.25 125.396 5.25H126.596C126.762 5.25 126.846 5.16667 126.846 5V2.75C126.846 2.46667 126.996 2.325 127.296 2.325H128.871C129.154 2.325 129.296 2.46667 129.296 2.75V5C129.296 5.16667 129.387 5.25 129.571 5.25H131.896C132.196 5.25 132.346 5.39167 132.346 5.675V6.975C132.346 7.24167 132.196 7.375 131.896 7.375H129.571C129.387 7.375 129.296 7.45833 129.296 7.625V14.05C129.296 15.2667 129.921 15.875 131.171 15.875H132.146C132.446 15.875 132.596 16.0167 132.596 16.3V17.6C132.596 17.8667 132.446 18 132.146 18H130.796C129.562 18 128.596 17.6667 127.896 17C127.196 16.3333 126.846 15.3917 126.846 14.175V7.625C126.846 7.45833 126.762 7.375 126.596 7.375ZM139.585 18H138.61C137.377 18 136.418 17.6583 135.735 16.975C135.068 16.2917 134.735 15.3417 134.735 14.125V9.125C134.735 7.89167 135.068 6.94167 135.735 6.275C136.418 5.59167 137.377 5.25 138.61 5.25H144.21C144.51 5.25 144.66 5.39167 144.66 5.675V17.575C144.66 17.8583 144.51 18 144.21 18H142.635C142.352 18 142.21 17.8583 142.21 17.575V16.675H142.11C141.71 17.5583 140.868 18 139.585 18ZM142.21 13.75V7.625C142.21 7.45833 142.118 7.375 141.935 7.375H138.96C137.76 7.375 137.16 7.99167 137.16 9.225V14.025C137.16 15.2583 137.76 15.875 138.96 15.875H140.16C141.527 15.875 142.21 15.1667 142.21 13.75ZM155.528 16.3V17.6C155.528 17.8667 155.378 18 155.078 18H151.403C150.17 18 149.211 17.6583 148.528 16.975C147.861 16.2917 147.528 15.3417 147.528 14.125V9.125C147.528 7.89167 147.861 6.94167 148.528 6.275C149.211 5.59167 150.17 5.25 151.403 5.25H155.078C155.378 5.25 155.528 5.39167 155.528 5.675V6.975C155.528 7.24167 155.378 7.375 155.078 7.375H151.753C150.553 7.375 149.953 7.99167 149.953 9.225V14.025C149.953 15.2583 150.553 15.875 151.753 15.875H155.078C155.378 15.875 155.528 16.0167 155.528 16.3ZM165.16 5.25H166.96C167.11 5.25 167.21 5.3 167.26 5.4C167.327 5.48333 167.31 5.6 167.21 5.75L163.685 11.35V11.45L167.485 17.5C167.568 17.6333 167.577 17.75 167.51 17.85C167.46 17.95 167.343 18 167.16 18H165.535C165.152 18 164.868 17.8583 164.685 17.575L161.16 11.8C161.043 11.5833 161.043 11.3583 161.16 11.125L164.435 5.65C164.585 5.38333 164.827 5.25 165.16 5.25ZM159.91 18H158.335C158.052 18 157.91 17.8583 157.91 17.575V0.849999C157.91 0.566666 158.052 0.425 158.335 0.425H159.91C160.193 0.425 160.335 0.566666 160.335 0.849999V17.575C160.335 17.8583 160.193 18 159.91 18ZM66.575 40H65C64.7167 40 64.575 39.8583 64.575 39.575V22.85C64.575 22.5667 64.7167 22.425 65 22.425H66.575C66.8583 22.425 67 22.5667 67 22.85V28.575H67.1C67.5 27.6917 68.3417 27.25 69.625 27.25H70.725C71.9417 27.25 72.875 27.5833 73.525 28.25C74.175 28.9167 74.5 29.875 74.5 31.125V39.575C74.5 39.8583 74.35 40 74.05 40H72.475C72.1917 40 72.05 39.8583 72.05 39.575V31.225C72.05 29.9917 71.4417 29.375 70.225 29.375H69.05C67.6833 29.375 67 30.0833 67 31.5V39.575C67 39.8583 66.8583 40 66.575 40ZM82.215 40H81.09C79.89 40 78.965 39.6667 78.315 39C77.6817 38.3167 77.365 37.3583 77.365 36.125V27.675C77.365 27.3917 77.5067 27.25 77.79 27.25H79.365C79.6484 27.25 79.79 27.3917 79.79 27.675V36.025C79.79 37.2583 80.39 37.875 81.59 37.875H82.79C84.1567 37.875 84.84 37.1667 84.84 35.75V27.675C84.84 27.3917 84.9817 27.25 85.265 27.25H86.84C87.14 27.25 87.29 27.3917 87.29 27.675V39.575C87.29 39.8583 87.14 40 86.84 40H85.265C84.9817 40 84.84 39.8583 84.84 39.575V38.675H84.74C84.34 39.5583 83.4984 40 82.215 40ZM93.1051 37.875H96.2051C97.4051 37.875 98.0051 37.2583 98.0051 36.025V31.125C98.0051 29.8917 97.4051 29.275 96.2051 29.275H94.8801C93.5134 29.275 92.8301 29.975 92.8301 31.375V37.6C92.8301 37.7833 92.9217 37.875 93.1051 37.875ZM90.4051 39.575V22.85C90.4051 22.5667 90.5467 22.425 90.8301 22.425H92.4051C92.6884 22.425 92.8301 22.5667 92.8301 22.85V28.5H92.9301C93.3467 27.6 94.1884 27.15 95.4551 27.15H96.5551C97.7884 27.15 98.7467 27.4917 99.4301 28.175C100.113 28.8417 100.455 29.7833 100.455 31V36.125C100.455 37.3417 100.113 38.2917 99.4301 38.975C98.7467 39.6583 97.7884 40 96.5551 40H90.8301C90.5467 40 90.4051 39.8583 90.4051 39.575Z" fill="#F6FBFF"/>
<path d="M35.2559 40.3047H46.1035L37.6062 23.8525H26.7586L35.2559 40.3047Z" fill="#492189"/>
<path d="M37.6081 23.8525L44.2969 0.53017H33.4493L26.7605 23.8525H37.6081Z" fill="#6437A0"/>
<path d="M44.2949 0.529785H33.4473L41.9446 16.982H52.7922L44.2949 0.529785Z" fill="#C765F4"/>
<path d="M41.9427 16.9824L35.2539 40.3048H46.1015L52.7903 16.9824H41.9427Z" fill="#6C1DA8"/>
<path d="M21.877 40.3047H32.7246L24.2273 23.8525H13.3797L21.877 40.3047Z" fill="#492189"/>
<path d="M24.2272 23.8525L30.916 0.53017H20.0684L13.3796 23.8525H24.2272Z" fill="#6437A0"/>
<path d="M30.916 0.529785H20.0684L28.5657 16.982H39.4133L30.916 0.529785Z" fill="#C983EA"/>
<path d="M28.5638 16.9824L21.875 40.3048H32.7226L39.4114 16.9824H28.5638Z" fill="#8121C9"/>
<path d="M8.49809 40.3047H19.3457L10.8484 23.8525H0.000789642L8.49809 40.3047Z" fill="#492189"/>
<path d="M10.8483 23.8525L17.5371 0.53017H6.6895L0.000686646 23.8525H10.8483Z" fill="#6437A0"/>
<path d="M17.5371 0.529785H6.68945L15.1868 16.982H26.0344L17.5371 0.529785Z" fill="#DEACF5"/>
<path d="M15.1869 16.9824L8.49805 40.3048H19.3457L26.0345 16.9824H15.1869Z" fill="#9854CB"/>
</svg>
