<svg viewBox="0 0 25 25" fill="none" xmlns="http://www.w3.org/2000/svg">
<path fill-rule="evenodd" clip-rule="evenodd" d="M10.8508 0H4.8665C2.22266 0 0.0791016 2.15618 0.0791016 4.81559V19.2624C0.0791016 21.9218 2.22266 24.0779 4.8665 24.0779H19.2287C21.8726 24.0779 24.0161 21.9218 24.0161 19.2624C24.0161 16.5283 24.0161 13.2429 24.0161 13.2429C24.0161 12.5783 23.4799 12.039 22.8193 12.039C22.1586 12.039 21.6224 12.5783 21.6224 13.2429V19.2624C21.6224 20.5915 20.55 21.6701 19.2287 21.6701C15.2432 21.6701 8.85082 21.6701 4.8665 21.6701C3.54398 21.6701 2.4728 20.5915 2.4728 19.2624C2.4728 15.2534 2.4728 8.82336 2.4728 4.81559C2.4728 3.48528 3.54398 2.40779 4.8665 2.40779H10.8508C11.5114 2.40779 12.0476 1.86845 12.0476 1.2039C12.0476 0.539346 11.5114 0 10.8508 0ZM19.9301 2.40779H15.6382C14.9775 2.40779 14.4413 1.86845 14.4413 1.2039C14.4413 0.539346 14.9775 0 15.6382 0H22.8193C23.4799 0 24.0161 0.539346 24.0161 1.2039V8.42728C24.0161 9.09183 23.4799 9.63118 22.8193 9.63118C22.1586 9.63118 21.6224 9.09183 21.6224 8.42728V4.11011L12.8938 12.8901C12.427 13.3596 11.6682 13.3596 11.2014 12.8901C10.7335 12.4206 10.7335 11.6573 11.2014 11.1878L19.9301 2.40779Z" fill="#F6FBFF"/>
</svg>
