<svg  viewBox="0 0 33 28" fill="none" xmlns="http://www.w3.org/2000/svg">
<path d="M32.1631 12.5726L32.163 12.5727L32.1678 12.5776C32.9428 13.3601 32.9452 14.6374 32.1679 15.4225L32.1679 15.4224L32.1636 15.4269L32.1631 15.4275L20.506 27.1663C19.7306 27.9471 18.4775 27.9443 17.7057 27.1595L17.7057 27.1595C16.9322 26.3732 16.9352 25.1001 17.7123 24.3176L25.5407 16.4342L25.9639 16.0081H25.3633L2.23153 16.0081C1.13991 16.0081 0.25 15.1119 0.25 14C0.25 12.8881 1.13991 11.9919 2.23153 11.9919L25.3634 11.9919H25.964L25.5408 11.5658L17.7122 3.68243C16.9351 2.89985 16.9321 1.62684 17.7055 0.840525C18.4774 0.0557488 19.7304 0.052857 20.5059 0.8337L32.1631 12.5726Z" fill="white" stroke="#020001" stroke-width="0.5"/>
</svg>
