<svg viewBox="0 0 177 60" fill="none" xmlns="http://www.w3.org/2000/svg">
<path fill-rule="evenodd" clip-rule="evenodd" d="M62.3386 29.8898C60.927 28.6176 59.1942 27.9219 56.3664 27.4939C56.3615 27.4939 56.3599 27.4939 52.8338 26.9711C51.4778 26.7658 50.2839 26.2751 49.5555 25.6293C48.8629 25.0084 48.5123 24.1415 48.5123 23.0478C48.5123 20.3503 50.5791 18.6074 53.7784 18.6074C56.601 18.6072 58.5968 19.312 60.2524 20.8909C60.4024 21.0354 60.6442 21.0318 60.7908 20.8873L63.7925 17.9293C63.8671 17.8563 63.9085 17.7527 63.9062 17.6494C63.9054 17.5458 63.8611 17.444 63.785 17.3726C61.0642 14.8304 58.1111 13.7476 53.9092 13.7476C47.3868 13.7476 43.1722 17.4655 43.1722 23.221C43.1722 25.8792 43.9518 27.9058 45.5548 29.417C46.9849 30.7533 49.0887 31.6471 51.6386 31.9967L55.2896 32.5194C57.0337 32.7693 57.7468 33.0386 58.4703 33.7219C59.1888 34.3643 59.5679 35.3811 59.5679 36.6602C59.5679 39.4274 57.3783 41.0155 53.5615 41.0155C50.1529 41.0152 47.9388 40.191 45.9202 38.1696C45.7697 38.0199 45.5245 38.0199 45.3751 38.168L42.2436 41.2578C42.1706 41.3293 42.1289 41.4256 42.1289 41.5292C42.1276 41.6325 42.1678 41.7288 42.2392 41.8021C45.1442 44.7492 48.5043 46.0071 53.4747 46.0071C60.4723 46.0071 64.9937 42.2855 64.9937 36.53C64.9937 33.7004 64.0758 31.4027 62.3386 29.8898Z" fill="white"/>
<path fill-rule="evenodd" clip-rule="evenodd" d="M79.4788 37.3992C79.4788 38.8639 79.2113 39.8129 78.6367 40.3893C77.6217 41.3652 76.5831 41.5382 74.7787 41.5382C72.3162 41.5382 71.1195 40.6389 71.1195 38.7925C71.1197 36.4875 73.0612 36.0041 74.6904 36.0041H79.4324H79.4787L79.4788 37.3992ZM84.6866 30.6142C84.6866 25.412 81.4109 22.6609 75.2123 22.6609C71.2971 22.6609 69.0729 23.5583 67.004 25.9705C66.8704 26.1293 66.8833 26.3628 67.0322 26.5037L69.9465 29.2442C70.0254 29.3172 70.1334 29.3566 70.2414 29.3475C70.3496 29.3387 70.4506 29.2851 70.5156 29.1996C71.6839 27.6991 72.7828 27.2191 75.0383 27.2191C78.1926 27.2191 79.4787 28.304 79.4787 30.9622V32.1413H74.0391C69.1052 32.1413 66.041 34.7231 66.041 38.8782C66.041 40.8727 66.6982 42.6516 67.8903 43.8861C69.3354 45.333 71.3032 46.0073 74.0818 46.0073C76.4521 46.0073 78.0194 45.5114 79.4896 44.2981L79.5662 44.2339V45.3579C79.5662 45.572 79.7402 45.7432 79.9533 45.7432H84.302C84.5136 45.7432 84.6866 45.572 84.6866 45.3579L84.6866 30.6142Z" fill="white"/>
<path fill-rule="evenodd" clip-rule="evenodd" d="M96.5637 41.2759C93.0578 41.2759 92.339 38.4926 92.339 34.3127C92.339 30.1595 93.0578 27.3923 96.5637 27.3923C100.044 27.3923 100.744 30.0399 100.744 34.3127C100.744 38.4926 100.034 41.2759 96.5637 41.2759ZM103.361 24.7323C102.045 23.4157 99.9779 22.6609 97.6944 22.6609C95.3578 22.6609 93.7538 23.2406 92.3315 24.5985L92.253 24.6751V23.3085C92.253 23.0961 92.0803 22.9214 91.8657 22.9214H87.5164C87.3041 22.9214 87.1309 23.0961 87.1309 23.3085L87.1311 54.2747C87.1311 54.487 87.3041 54.6584 87.5164 54.6584H91.9524C92.1652 54.6584 92.339 54.487 92.339 54.2747V44.0609L92.4185 44.1357C93.8177 45.4293 95.4573 46.0073 97.7374 46.0073C99.9945 46.0073 102.045 45.2525 103.361 43.9361C105.644 41.6505 105.953 37.788 105.953 34.3127C105.953 30.6838 105.637 27.0122 103.361 24.7323Z" fill="white"/>
<path fill-rule="evenodd" clip-rule="evenodd" d="M113.087 23.3085C113.087 23.0962 112.914 22.9214 112.701 22.9214H108.258C108.044 22.9214 107.869 23.0962 107.869 23.3085V45.3579C107.869 45.572 108.044 45.7432 108.258 45.7432H112.701C112.914 45.7432 113.087 45.572 113.087 45.3579L113.087 23.3085Z" fill="white"/>
<path fill-rule="evenodd" clip-rule="evenodd" d="M113.219 15.1658C113.219 14.9535 113.046 14.7805 112.831 14.7805H108.127C107.916 14.7805 107.74 14.9535 107.74 15.1658V18.9607C107.74 19.173 107.916 19.346 108.127 19.346H112.831C113.046 19.346 113.219 19.173 113.219 18.9607V15.1658Z" fill="white"/>
<path fill-rule="evenodd" clip-rule="evenodd" d="M120.021 32.1413V32.0934C120.074 31.0246 120.196 30.4591 120.535 29.6776C121.206 28.0826 122.714 27.13 124.569 27.13C126.4 27.13 127.893 28.0829 128.564 29.6776C128.92 30.4984 129.059 31.1085 129.118 32.0916L129.12 32.1414L120.021 32.1413ZM134.307 33.6597C134.307 26.9783 130.486 22.6609 124.569 22.6609C118.565 22.6609 114.834 27.1264 114.834 34.3127C114.834 41.8522 118.493 46.0073 125.136 46.0073C129.289 46.0073 131.481 44.6479 133.673 42.4571C133.747 42.382 133.788 42.2802 133.788 42.1787C133.784 42.0734 133.741 41.9734 133.665 41.9022L130.837 39.2492C130.683 39.1047 130.45 39.1084 130.3 39.258C128.875 40.6819 127.698 41.4061 125.224 41.4061C122.074 41.4061 120.18 39.4545 120.027 36.0522L120.025 36.004H133.921C134.135 36.004 134.307 35.829 134.307 35.6169L134.307 33.6597Z" fill="white"/>
<path fill-rule="evenodd" clip-rule="evenodd" d="M154.876 31.2654C154.876 28.3485 154.154 26.3434 152.538 24.7714C151.111 23.3905 149.138 22.6609 146.835 22.6609C144.783 22.6609 142.913 23.3191 141.425 24.5627L141.35 24.6288V23.3085C141.35 23.0961 141.176 22.9214 140.963 22.9214H136.614C136.399 22.9214 136.229 23.0961 136.229 23.3085V45.3579C136.229 45.572 136.399 45.7432 136.614 45.7432H141.05C141.262 45.7432 141.436 45.572 141.436 45.3579V31.9183C141.436 29.0854 142.999 27.3922 145.617 27.3922C148.19 27.3922 149.666 29.0424 149.666 31.9183V45.3579C149.666 45.572 149.839 45.7432 150.054 45.7432H154.487C154.7 45.7432 154.876 45.572 154.876 45.3579V31.2654Z" fill="white"/>
<path fill-rule="evenodd" clip-rule="evenodd" d="M167.442 41.5741C167.442 41.3636 167.268 41.1888 167.056 41.1888H165.228C163.849 41.1888 163.18 40.4752 163.18 39.0086L163.18 27.4779H167.056C167.268 27.4779 167.442 27.3049 167.442 27.0926V23.6993C167.442 23.487 167.268 23.314 167.056 23.314H163.18V17.0037C163.18 16.7898 163.006 16.6166 162.806 16.6147C162.806 16.6147 158.369 17.819 158.357 17.8208C158.143 17.8208 157.968 17.9938 157.968 18.2061L157.969 23.314H155.836C155.622 23.314 155.449 23.487 155.449 23.6993V27.0926C155.449 27.3049 155.622 27.4779 155.836 27.4779H157.969V39.2263C157.969 42.4696 159.959 45.7433 164.403 45.7433H167.056C167.268 45.7433 167.442 45.5721 167.442 45.358V41.5741Z" fill="white"/>
<path fill-rule="evenodd" clip-rule="evenodd" d="M14.1249 49.7042C14.1249 46.828 16.6712 44.7193 19.441 44.7193L25.2027 44.7211C27.4999 44.7211 29.3601 42.8622 29.3601 40.5642V34.7624C29.3601 32.4628 27.4999 30.6179 25.2027 30.6179L19.0518 30.6143C16.1759 30.6143 14.0635 28.0685 14.0635 25.2998L14.0674 19.0269C14.0674 16.151 16.6153 14.0262 19.3848 14.0262L25.2027 14.0438C27.4999 14.0438 29.3601 12.2135 29.3601 9.91909V4.1566C29.3601 1.85834 27.4999 0.00025893 25.2027 0.00025893L19.441 0C17.1471 0 15.2823 1.85834 15.2823 4.1566L15.2826 9.97812C15.2826 12.745 13.1575 15.2929 10.2834 15.2929H4.161C1.86559 15.2929 3.19761e-06 17.1393 3.19761e-06 19.4371V25.2389C3.19761e-06 27.5369 1.86559 29.3976 4.161 29.3976H10.0198C12.7878 29.3976 15.3354 31.5208 15.3354 34.3968L15.339 40.6535C15.339 43.4241 13.215 45.9611 10.3391 45.9254H4.161C1.86559 45.9254 0 47.7808 0 50.077V55.8395C0 58.1391 1.86559 60 4.161 60H9.96181C12.2598 60 14.1231 58.1391 14.1231 55.8395L14.1249 49.7042Z" fill="white"/>
<path fill-rule="evenodd" clip-rule="evenodd" d="M173.155 18.6168H172.576V19.5839H173.155C173.467 19.5839 173.669 19.3607 173.669 19.1002C173.669 18.8379 173.467 18.6168 173.155 18.6168ZM173.651 21.6533L172.972 20.2118H172.576V21.6533H171.743V17.9299H173.265C174.019 17.9299 174.502 18.4811 174.502 19.1002C174.502 19.6124 174.172 19.9407 173.814 20.0868L174.599 21.6533H173.651ZM173.022 17.0772C171.513 17.0772 170.351 18.2385 170.351 19.796C170.351 21.3537 171.513 22.5132 173.022 22.5132C174.531 22.5132 175.692 21.3537 175.692 19.796C175.693 18.2385 174.531 17.0772 173.022 17.0772ZM173.022 23.2983C171.089 23.2983 169.52 21.7299 169.52 19.796C169.52 17.862 171.089 16.2939 173.022 16.2939C174.955 16.2939 176.525 17.862 176.525 19.796C176.525 21.7299 174.955 23.2983 173.022 23.2983Z" fill="white"/>
</svg>
