<svg viewBox="0 0 188 50" fill="none" xmlns="http://www.w3.org/2000/svg">
<path d="M97.2121 49.9999V25.641H93.4941V49.9999H93.6223H97.2121ZM93.4941 17.0513H97.0839V21.0256H93.4941V17.0513Z" fill="white"/>
<path d="M101.955 0H105.545V34.3589H101.955V0Z" fill="white"/>
<path d="M85.0332 0H88.6229V34.3589H85.0332V0ZM18.623 10.641H22.2128V34.3589H18.623V10.641Z" fill="white"/>
<path d="M119.008 10.6411C112.342 10.6411 108.367 16.0257 108.367 22.9488C108.367 29.7437 112.598 34.359 119.521 34.359C123.111 34.359 125.675 33.5898 127.085 32.9488L127.342 32.8206V29.7437C125.931 30.2565 122.854 31.1539 120.034 31.1539C115.931 31.1539 112.342 28.8462 112.213 23.3334H128.239C128.239 22.9488 128.367 22.3078 128.367 21.4103C128.367 17.1796 126.444 10.6411 119.008 10.6411ZM124.393 20.2565H112.342C112.726 17.436 114.521 13.5898 118.624 13.5898C123.367 13.5898 124.521 17.6924 124.393 20.2565ZM149.649 19.1026C149.777 14.4873 147.341 10.6411 140.547 10.6411C137.598 10.6411 135.034 11.0257 133.111 12.1796V15.2565C135.034 14.3591 137.726 13.5898 139.906 13.5898C144.777 13.8462 145.803 16.9232 145.803 18.8462V20.8975C135.675 17.8206 131.059 22.1796 131.188 27.8206C131.316 31.1539 133.624 34.359 138.367 34.359C141.572 34.359 144.521 33.5898 145.931 31.9231V34.359H149.649V19.1026ZM145.931 27.8206C144.393 29.6154 142.598 31.4103 139.521 31.4103C137.342 31.4103 135.162 30.0001 135.162 27.3078C135.162 22.8206 140.931 22.6924 145.931 24.1026V27.8206Z" fill="white"/>
<path d="M81.6979 17.9488C80.4159 13.077 77.0826 10.7693 72.339 10.6411H70.9287C70.8005 10.6411 70.5441 10.6411 70.4159 10.7693C67.339 11.2821 65.4159 13.3334 65.4159 13.3334V10.6411H61.8262V45.1283H65.4159V31.9231C65.4159 31.9231 67.7236 34.1026 70.9287 34.359H72.98C76.6979 33.9744 79.3902 32.3078 80.9287 28.9744C82.5954 25.3847 82.7236 21.6667 81.6979 17.9488ZM78.4928 23.2052V23.718C78.3646 24.6155 78.1082 25.5129 77.98 26.1539C77.7236 26.7949 76.5697 29.6154 73.7492 30.3847C73.2364 30.5129 72.7236 30.6411 72.0826 30.6411C72.0826 30.6411 67.4672 30.6411 65.4159 26.9231V17.8206C65.4159 17.6924 66.8262 14.7437 70.6723 13.9744C71.1851 13.8462 72.8518 13.718 74.3903 14.2309H74.5185L74.7749 14.3591L75.0313 14.4873L75.2877 14.6155C76.4415 15.3847 78.4928 17.436 78.621 21.6667C78.621 22.3078 78.4928 22.6924 78.4928 23.2052Z" fill="white"/>
<path d="M156.188 13.4615V10.641H152.342V34.3589H156.188V21.1538C156.188 18.5897 156.701 17.3077 156.829 17.1795L157.598 16.0256C157.983 15.641 158.752 15 159.906 14.4872C160.29 14.359 160.675 14.2308 161.188 14.1025H161.829C162.342 13.9743 162.855 13.9743 163.496 13.8461H165.29V10.641C159.649 10.3846 156.829 12.9487 156.188 13.4615Z" fill="white"/>
<path d="M15.8018 26.4104C15.5454 23.7181 13.8787 22.1796 11.3146 21.4104C10.6736 21.154 9.90438 21.0258 9.26335 20.8975C7.8531 20.5129 6.44285 20.2565 5.1608 19.7437C2.7249 18.7181 3.23772 15.7693 4.64798 14.7437C5.54541 14.1027 6.69926 13.7181 7.8531 13.7181H10.0326C10.8018 13.8463 11.4428 13.8463 12.2121 14.1027C13.6223 14.4873 14.7762 15.0001 14.7762 15.0001V11.9232C14.648 11.9232 14.0069 11.6668 14.0069 11.6668C11.4428 10.8976 8.87874 10.5129 6.18644 10.8976C2.7249 11.4104 -0.352015 13.8463 0.0325994 18.3334C0.160804 20.1283 1.05824 21.5386 2.7249 22.1796C4.00695 22.8206 5.54541 23.077 6.82746 23.4616C7.98131 23.8463 9.26336 24.2309 10.4172 24.6155C11.1864 24.8719 11.6992 25.5129 11.8275 26.2822C12.3403 28.077 11.6992 29.6155 9.77618 30.5129C8.10951 31.2822 6.31464 31.2822 4.51977 31.1539C1.31465 30.8975 0.0325994 29.8719 0.0325994 29.8719V32.8206C0.0325994 32.8206 0.930034 33.2052 2.08388 33.5898L3.62234 33.9745C5.41721 34.2309 7.21208 34.2309 9.13515 33.8463C10.289 33.5898 11.4428 33.2052 12.4685 32.6924C14.9044 31.6668 16.1864 29.2309 15.8018 26.4104ZM18.6223 3.46167H22.2121V7.43602H18.6223V3.46167Z" fill="white"/>
<path d="M186.825 16.9232C185.543 11.9232 181.441 11.0257 180.543 10.7693H180.159C177.851 10.5129 176.184 10.7693 174.774 11.2821L174.518 11.4103C172.723 12.1796 171.954 13.3334 171.954 13.3334V10.6411H168.107V34.2308H171.954V19.7437C171.954 16.6667 174.518 14.1026 177.723 14.1026H177.851C177.851 14.1026 180.671 13.8462 182.338 16.0257L182.466 16.1539L182.723 16.5385C182.851 16.795 182.979 16.9232 183.107 17.1796C183.107 17.3078 183.236 17.436 183.236 17.6924C183.364 18.2052 183.62 19.4873 183.62 21.9231V34.2308H187.466V20.1283C187.21 18.8462 187.082 17.8206 186.825 16.9232Z" fill="white"/>
<path d="M49.7748 10.6412C45.1594 10.7694 43.1081 12.9489 42.4671 13.8463L42.2107 14.2309V13.9745L42.0825 13.8463L41.9543 13.5899C41.0569 12.3079 39.7748 11.5386 39.1338 11.2822C37.3389 10.6412 35.8005 10.6412 35.5441 10.6412H35.4158C33.1082 10.513 31.4415 11.4104 31.4415 11.4104C29.5184 12.1797 28.621 13.3335 28.621 13.3335V10.6412H25.0312V34.2309H28.621V20.0002C28.621 19.1027 28.7492 18.4617 28.8774 18.0771C29.5184 15.513 31.8261 13.7181 34.5184 13.7181C36.9543 13.7181 38.8774 15.0002 39.7748 17.0514C40.0312 17.6925 40.1594 18.4617 40.1594 19.2309V34.1027H43.7492V19.4873C43.7492 16.154 46.3133 13.7181 49.5184 13.7181C50.6722 13.7181 51.8261 14.1027 52.7235 14.7438C54.262 15.7694 55.2876 17.3079 55.2876 19.3591V34.1027H59.0056V19.872C59.0056 17.9489 58.6209 16.4104 57.9799 15.1284C55.6722 11.0258 51.4415 10.6412 49.7748 10.6412Z" fill="white"/>
</svg>
