<svg  viewBox="0 0 43 41" fill="none" xmlns="http://www.w3.org/2000/svg">
<path d="M18.6468 2.78115C19.5449 0.0172195 23.4551 0.0172219 24.3532 2.78115L27.2251 11.6201C27.6267 12.8561 28.7786 13.693 30.0783 13.693H39.3721C42.2782 13.693 43.4866 17.4119 41.1354 19.1201L33.6166 24.5828C32.5651 25.3467 32.1252 26.7008 32.5268 27.9369L35.3987 36.7758C36.2968 39.5398 33.1333 41.8381 30.7822 40.1299L23.2634 34.6672C22.2119 33.9033 20.7881 33.9033 19.7366 34.6672L12.2178 40.1299C9.86667 41.8381 6.70323 39.5398 7.60129 36.7758L10.4732 27.9369C10.8749 26.7008 10.4349 25.3467 9.38341 24.5828L1.86458 19.1201C-0.486558 17.4119 0.721771 13.693 3.62794 13.693H12.9217C14.2214 13.693 15.3733 12.8561 15.7749 11.6201L18.6468 2.78115Z" fill="#F9CD35"/>
</svg>
