<svg viewBox="0 0 209 50" fill="none" xmlns="http://www.w3.org/2000/svg">
<path d="M47.4233 5.322e-09C46.0838 -2.21815e-05 40.074 0.0693338 40.074 0.0693338V10.1921H14.7678C14.7678 10.1921 8.80243 10.1921 6.30924 14.4214C4.58423 17.045 4.80889 19.5438 4.85327 19.8988C4.80889 20.2593 4.65082 22.7609 6.37857 25.3762C8.87733 29.6083 14.7678 29.6055 14.7678 29.6055H28.0796C30.2427 29.6055 30.5672 31.2557 30.5755 31.9629C30.5672 32.6673 30.2344 34.2509 28.0796 34.2509C25.8803 34.2509 2.7733 34.2509 2.7733 34.2509H9.86058e-06C-1.23257e-05 35.6098 9.86058e-06 41.6696 9.86058e-06 41.6696H27.8022C27.8022 41.6696 33.7149 41.6918 36.1914 37.4402C37.9136 34.8305 37.75 32.3151 37.7167 31.9629C37.7389 31.5912 37.922 29.0203 36.1914 26.4162C33.7093 22.1674 27.8022 22.1868 27.8022 22.1868L14.4904 22.2561C12.3384 22.2617 12.0167 20.6032 11.9945 19.8988C12.0111 19.1888 12.3245 17.6191 14.4904 17.6108C16.6952 17.6191 39.7967 17.6108 39.7967 17.6108H40.074V31.8242C40.074 31.8242 40.0574 37.8036 44.3033 40.2829C46.8104 41.9303 49.2176 41.8332 49.7112 41.8083H57.6151V34.4589H49.6419C48.8903 34.4062 47.4427 33.9874 47.4233 31.9629C47.4426 30.798 47.4149 23.9035 47.4233 17.6108L57.5458 17.5414C57.5458 16.1936 57.4764 10.1921 57.4764 10.1921H47.4233C47.4233 8.15643 47.4233 6.79471 47.4233 6.79471V5.322e-09ZM114.19 0.277335L114.26 18.0268V42.7789H121.609V33.7656L125.769 28.4962L133.95 42.9176H142.408L141.715 41.7389C141.715 41.7389 134.324 28.6654 131.038 22.8108L141.438 10.3307H131.87L121.609 22.6028V0.346669C121.609 0.346669 115.535 0.277335 114.19 0.277335ZM203.975 3.39736C201.502 3.39736 199.388 5.38585 199.4 7.97339C199.388 10.5554 201.496 12.627 203.975 12.6187C206.491 12.6187 208.621 10.5637 208.621 7.97339C208.621 5.40526 206.516 3.39736 203.975 3.39736ZM203.975 3.95203C206.258 3.94648 208.066 5.78798 208.066 7.97339C208.066 10.2364 206.23 12.0613 203.975 12.0641C201.771 12.0613 199.954 10.2642 199.954 7.97339C199.954 5.73806 201.754 3.94923 203.975 3.95203ZM202.311 5.47737V10.4001H203.005V8.18139H203.837C204.644 8.17861 204.871 8.39493 204.946 9.15206C205.046 9.93692 205.068 10.0756 205.154 10.4001H205.847C205.673 9.90364 205.637 9.48484 205.57 8.87472C205.481 8.27013 205.329 8.01776 204.807 7.90405C205.739 7.63504 205.767 6.87791 205.778 6.72538C205.767 5.48014 204.408 5.48014 204.045 5.47737H202.311ZM203.005 6.03204H204.045C204.414 6.03204 205.015 6.09305 205.015 6.86404C205.015 7.62949 204.433 7.62669 204.114 7.62672H203.005V6.03204ZM156.76 10.0534C147.697 10.0534 140.328 17.425 140.328 26.4855C140.334 35.4046 147.425 42.6153 156.275 42.8483H166.952V35.7762H156.968H155.998C152.437 35.7069 149.286 32.9419 148.094 29.3282H172.915C173.087 28.3742 173.192 27.4257 173.192 26.4162C173.181 17.3556 165.837 10.0534 156.76 10.0534ZM176.243 10.4001L176.312 41.9469H183.73V17.8188H189.97C192.472 17.8188 192.832 19.6242 192.882 20.3841V24.6135H200.231V20.0375C200.27 19.5299 200.354 17.1476 198.706 14.6294C196.21 10.4001 190.248 10.4001 190.248 10.4001H176.312H176.243ZM60.527 10.4694L60.6657 42.0163H68.0149V17.8188H74.2548C76.7813 17.8271 77.1141 19.6963 77.1668 20.4535V24.6828H84.516V20.1068C84.5465 19.5965 84.6408 17.2086 82.9907 14.6988C80.4975 10.4666 74.5322 10.4694 74.5322 10.4694H60.6657H60.527ZM84.5853 10.5387L93.2519 40.0056L93.5292 40.7683C93.6956 41.445 93.7316 42.4711 92.4892 42.5709H91.6572H83.3373V49.9897H92.6972C93.1992 50.0257 95.6091 50.059 98.1051 48.395C101.658 46.2817 102.836 41.3729 103.236 40.0056C103.707 38.3721 111.833 10.5387 111.833 10.5387C111.833 10.5387 105.956 10.5387 104.622 10.5387L98.2438 33.0029L91.7959 10.5387C90.4536 10.5387 84.5853 10.5387 84.5853 10.5387ZM156.76 17.3334C160.623 17.3334 163.918 19.7158 165.288 23.0882H148.232C149.588 19.713 152.905 17.3334 156.76 17.3334Z" fill="white"/>
</svg>
