<svg viewBox="0 0 202 50" fill="none" xmlns="http://www.w3.org/2000/svg">
<path fill-rule="evenodd" clip-rule="evenodd" d="M24.4193 0.00161743L0.00585938 0.000143051V5.14412L8.90399 5.14596V22.0247H15.508L15.506 5.14412L24.4193 5.14523V0.00161743Z" fill="white"/>
<path fill-rule="evenodd" clip-rule="evenodd" d="M90.8163 37.3283C90.8163 35.4017 89.0718 33.8533 86.9289 33.8533H86.8842H78.3377C77.587 33.8533 77.2116 34.1912 76.8137 34.7274C76.7915 34.7465 74.252 38.0439 74.252 38.0439H82.5337C83.5058 38.0837 84.2787 38.7983 84.2787 39.6919V49.9998H90.8163V37.3677V37.3283Z" fill="white"/>
<path fill-rule="evenodd" clip-rule="evenodd" d="M67.7168 27.9749H74.254V49.9998H67.7168V27.9749Z" fill="white"/>
<path fill-rule="evenodd" clip-rule="evenodd" d="M124.519 33.8534H105.945V49.9995H112.526V38.0441H119.991C121.008 38.0441 121.847 38.7785 121.847 39.692V49.9995H128.407V37.3284C128.407 35.4019 126.661 33.8534 124.519 33.8534Z" fill="white"/>
<path fill-rule="evenodd" clip-rule="evenodd" d="M31.4055 27.9751H0V50H6.51511V33.1187H13.4941C14.1568 33.1187 14.6871 33.6155 14.6871 34.2114V50H21.2243V34.2114C21.2243 33.5948 21.7767 33.1187 22.439 33.1187H22.4611H27.5849C28.5787 33.1187 29.3958 33.8336 29.3958 34.7276V50H35.9114V32.0261C35.9114 29.7823 33.9013 27.9751 31.4055 27.9751Z" fill="white"/>
<path fill-rule="evenodd" clip-rule="evenodd" d="M95.123 39.0964V49.9998H101.661V40.2483V34.0327C101.661 34.0327 98.6343 35.7205 96.4922 36.9318C95.6746 37.4079 95.123 38.2028 95.123 39.0964Z" fill="white"/>
<path fill-rule="evenodd" clip-rule="evenodd" d="M95.123 27.9563H101.661V32.0268L95.123 35.9189V27.9563Z" fill="white"/>
<path fill-rule="evenodd" clip-rule="evenodd" d="M163.369 33.8534C161.734 33.8534 160.674 34.9855 160.674 36.1971V49.9995H167.255V39.7116C167.255 38.7984 167.984 38.0234 169.022 38.0234H173.903C174.609 37.9847 175.207 37.607 175.582 37.1103C175.603 37.0904 178.143 33.8534 178.143 33.8534H163.369Z" fill="white"/>
<path fill-rule="evenodd" clip-rule="evenodd" d="M149.809 27.9751V33.8535V45.9685H140.334C139.672 45.9685 139.207 45.4515 139.207 45.0148V39.6921H139.23C139.23 38.7786 140.047 38.0442 141.063 38.0442H145.855C146.562 38.0442 147.291 37.6668 147.6 37.2302L149.809 33.8535H136.514C134.393 33.8535 132.648 35.402 132.648 37.3285V37.368V47.1002C132.648 48.9671 134.304 50 135.828 50H156.368V27.9751H149.809Z" fill="white"/>
<path fill-rule="evenodd" clip-rule="evenodd" d="M197.336 33.8534H182.229C181.478 33.8534 180.794 34.1707 180.374 34.6881L177.834 38.0441H193.051C194.001 38.0835 194.774 38.8187 194.774 39.692L194.751 46.1066H183.355V44.2597C183.355 43.9029 183.686 43.6041 184.084 43.6041H192.058V41.2217C192.058 40.6457 191.66 40.3273 191.107 40.3273H180.064C178.695 40.3273 177.613 41.3002 177.613 42.5122V48.3711C177.613 48.4105 177.613 48.4311 177.635 48.4709C177.79 49.3436 178.63 49.9995 179.645 49.9995H201.201V37.3284C201.201 35.4019 199.478 33.8534 197.336 33.8534Z" fill="white"/>
<path fill-rule="evenodd" clip-rule="evenodd" d="M59.7884 33.8534H44.6816C43.953 33.8534 43.2465 34.1707 42.849 34.6881L40.2865 38.0441H55.5038C56.4538 38.0835 57.2267 38.8187 57.2267 39.692V46.1066H45.8082V44.2597C45.8082 43.9029 46.1393 43.6041 46.5368 43.6041H54.5096V41.2217C54.5096 40.6457 54.1125 40.3273 53.5601 40.3273H42.517C41.1479 40.3273 40.0664 41.3002 40.0664 42.5122V48.3711C40.0664 48.4105 40.0664 48.4311 40.0881 48.4709C40.2426 49.3436 41.0815 49.9995 42.0978 49.9995H63.6536V37.3284C63.6536 35.4019 61.9312 33.8534 59.7884 33.8534Z" fill="white"/>
<path fill-rule="evenodd" clip-rule="evenodd" d="M101.662 9.62884C101.662 7.70266 99.9165 6.15346 97.7744 6.15346H97.7297H88.9578C88.2062 6.15346 87.8308 6.49101 87.4333 7.02682C87.4116 7.04672 84.8712 10.3437 84.8712 10.3437H93.3788C94.3509 10.3839 95.1238 11.0988 95.1238 11.9921V22.2996H101.662V9.66864V9.62884ZM78.334 0.275049H84.8712V22.2996H78.334V0.275049Z" fill="white"/>
<path fill-rule="evenodd" clip-rule="evenodd" d="M60.1902 16.4607H60.2123C60.2123 17.3742 61.0336 18.109 62.0548 18.109L74.2691 18.1083V22.2993H57.4818C55.3512 22.2993 53.5977 20.7501 53.5977 18.8239V18.7841V6.87438V9.35332C53.5977 7.42714 55.3512 5.87757 57.4818 5.87757H74.2298L73.1991 8.1811C72.9811 8.66679 72.868 9.07952 72.3721 9.39312C72.0181 9.61754 71.7185 9.77379 71.2628 9.77379H62.0548C61.0336 9.77379 60.2123 10.5086 60.2123 11.4225H60.1902V16.4607Z" fill="white"/>
<path fill-rule="evenodd" clip-rule="evenodd" d="M30.8571 22.0977H44.8434C45.572 22.0977 46.2785 21.7796 46.6764 21.2637L49.2385 17.907H35.1416C34.1925 17.8676 33.4188 17.1324 33.4188 16.2587V9.84409H43.7168V11.691C43.7168 12.0485 43.3857 12.3462 42.9878 12.3462H36.1362V14.7297C36.1362 15.3053 36.5337 15.623 37.0857 15.623H47.0076C48.3767 15.623 49.459 14.6505 49.459 13.4389V7.57961C49.459 7.54018 49.459 7.52065 49.4369 7.48085C49.2824 6.60676 48.4431 5.95155 47.4276 5.95155H29.3859H26.9922V8.01371V18.6219C26.9922 20.5485 28.715 22.0977 30.8571 22.0977Z" fill="white"/>
</svg>
