<svg viewBox="0 0 313 50" fill="none" xmlns="http://www.w3.org/2000/svg">
<path d="M20.7742 0L0 40.7772H9.65033L30.4321 0H20.7742Z" fill="white"/>
<path d="M140.337 16.323L138.673 19.5831H138.573C137.885 18.2815 136.821 17.2173 135.52 16.5292C134.204 15.9245 132.768 15.6294 131.32 15.6664C129.759 15.6337 128.212 15.9739 126.808 16.6589C125.527 17.2941 124.402 18.207 123.518 19.3311C122.611 20.4865 121.93 21.8022 121.51 23.2096C121.048 24.6924 120.816 26.2373 120.823 27.7904C120.812 29.3862 121.005 30.9767 121.395 32.524C121.752 33.9434 122.387 35.2776 123.266 36.4482C124.127 37.5773 125.244 38.4854 126.526 39.0975C128.009 39.7778 129.628 40.1095 131.259 40.0671C132.72 40.0742 134.164 39.7587 135.489 39.1433C136.808 38.5541 137.897 37.5483 138.589 36.2803H138.68V39.5021C138.68 43.3195 136.894 45.5031 133.336 45.5031C129.778 45.5031 127.885 43.9761 126.877 42.724L124.449 47.5263C124.449 47.5263 127.198 49.9999 132.397 49.9999C141.017 49.9999 145.063 45.8084 145.063 39.212V16.3077L140.337 16.323ZM138.322 30.7756C138.096 31.5513 137.734 32.2804 137.253 32.9286C136.776 33.5647 136.163 34.0864 135.458 34.4556C134.682 34.8445 133.823 35.0385 132.954 35.0205C132.041 35.0548 131.136 34.8241 130.351 34.3563C129.666 33.9272 129.091 33.3443 128.671 32.6538C128.233 31.9362 127.93 31.1444 127.778 30.3175C127.601 29.4532 127.512 28.5733 127.511 27.6912C127.509 26.8063 127.614 25.9244 127.824 25.0648C128.012 24.2686 128.349 23.5149 128.816 22.8431C129.261 22.2121 129.843 21.6901 130.519 21.3161C131.268 20.9191 132.107 20.7244 132.954 20.7512C133.905 20.714 134.85 20.9245 135.695 21.362C136.398 21.7563 136.993 22.3174 137.428 22.9958C137.886 23.7287 138.206 24.5383 138.375 25.3855C138.569 26.3247 138.664 27.2818 138.657 28.2409C138.667 29.0975 138.554 29.9511 138.322 30.7756Z" fill="white"/>
<path d="M50.8027 7.00879V19.7283H50.9478C51.7045 18.3977 52.8391 17.3216 54.2078 16.6362C55.406 16.0186 56.7309 15.6868 58.0787 15.6666C59.5907 15.6262 61.0957 15.8857 62.5068 16.4301C63.5735 16.86 64.5101 17.5598 65.2248 18.4609C65.9148 19.4023 66.3892 20.4841 66.6143 21.6293C66.8944 22.9906 67.03 24.3776 67.019 25.7674V40.8079H60.3157V26.966C60.4203 25.4036 60.0928 23.8425 59.3689 22.4539C58.7429 21.4537 57.6206 20.9269 56.0173 20.9269C54.1849 20.9269 52.8641 21.4767 52.0396 22.5608C51.215 23.6449 50.8104 25.4391 50.8104 27.9051V40.7773H44.0918V7.00879H50.8027Z" fill="white"/>
<path d="M69.832 23.2555C70.3821 21.7328 71.2516 20.3453 72.382 19.1862C73.512 18.0543 74.8636 17.1679 76.3521 16.5828C79.7207 15.3588 83.4126 15.3588 86.7812 16.5828C88.2922 17.1525 89.661 18.0445 90.7922 19.1969C91.9235 20.3492 92.7901 21.7343 93.3318 23.2555C93.9524 24.968 94.2577 26.7786 94.2327 28.5999C94.2557 30.406 93.9504 32.2013 93.3318 33.8984C92.7721 35.4074 91.9035 36.783 90.7818 37.9372C89.6442 39.0558 88.28 39.9175 86.7812 40.4643C83.4045 41.6571 79.7211 41.6571 76.3445 40.4643C74.8529 39.8958 73.4995 39.0161 72.3744 37.8837C71.2476 36.7335 70.3784 35.3568 69.8244 33.845C69.2021 32.1489 68.8968 30.3529 68.9235 28.5464C68.9037 26.7424 69.2116 24.9497 69.832 23.2555ZM75.9398 31.4324C76.1086 32.3213 76.4372 33.1724 76.9094 33.9442C77.3567 34.6779 77.9817 35.287 78.7265 35.7155C79.597 36.1865 80.5776 36.4158 81.5666 36.3797C82.5602 36.4127 83.545 36.1836 84.422 35.7155C85.1791 35.2925 85.8152 34.6827 86.2697 33.9442C86.7391 33.171 87.0674 32.3205 87.2393 31.4324C87.4303 30.4927 87.525 29.5359 87.5218 28.577C87.5239 27.608 87.4292 26.6412 87.2393 25.691C87.0711 24.8019 86.7425 23.9507 86.2697 23.1792C85.8059 22.4375 85.1693 21.8193 84.4144 21.3774C83.5401 20.9005 82.5544 20.666 81.559 20.6979C80.6339 20.6486 79.7127 20.8504 78.8928 21.2818C78.073 21.7132 77.385 22.3583 76.9018 23.1487C76.4258 23.9186 76.097 24.7704 75.9322 25.6605C75.7397 26.6104 75.6425 27.5772 75.6421 28.5464C75.6393 29.5158 75.7365 30.4829 75.9322 31.4324H75.9398Z" fill="white"/>
<path d="M112.561 40.7774V37.4104H112.423C111.654 38.7407 110.498 39.8057 109.11 40.4643C107.808 41.078 106.388 41.3986 104.949 41.4034C103.444 41.4513 101.944 41.213 100.528 40.701C99.4559 40.2886 98.5162 39.5918 97.8102 38.6854C97.1133 37.7471 96.6359 36.6644 96.4131 35.517C96.133 34.1557 95.9974 32.7687 96.0084 31.379V16.3232H102.727V30.1345C102.623 31.6994 102.95 33.2629 103.674 34.6543C104.3 35.6468 105.42 36.1558 107.033 36.1812C108.86 36.1812 110.184 35.6366 111.003 34.5474C111.82 33.4633 112.232 31.6691 112.232 29.2031V16.3232H118.943V40.7545L112.561 40.7774Z" fill="white"/>
<path d="M154.286 7.00879V19.7283H154.423C155.184 18.3983 156.321 17.3226 157.691 16.6362C158.889 16.0186 160.214 15.6868 161.561 15.6666C163.073 15.6262 164.578 15.8857 165.99 16.4301C167.061 16.848 168.006 17.5373 168.73 18.4304C169.42 19.373 169.897 20.454 170.128 21.5988C170.405 22.9604 170.538 24.3474 170.525 25.7368V40.7773H163.814V26.966C163.915 25.4039 163.588 23.8437 162.867 22.4539C162.236 21.4359 161.116 20.9269 159.508 20.9269C157.675 20.9269 156.355 21.4767 155.538 22.5608C154.721 23.6449 154.308 25.4391 154.308 27.9051V40.7773H147.59V7.00879H154.286Z" fill="white"/>
<path d="M221.756 23.2555C222.3 21.7405 223.164 20.3604 224.289 19.209C225.414 18.0576 226.774 17.1619 228.276 16.5828C231.645 15.3588 235.336 15.3588 238.705 16.5828C240.214 17.1556 241.581 18.0487 242.712 19.2007C243.843 20.3526 244.711 21.736 245.256 23.2555C245.876 24.968 246.182 26.7786 246.157 28.5999C246.18 30.406 245.874 32.2013 245.256 33.8984C244.697 35.4096 243.825 36.7858 242.698 37.9372C241.567 39.0564 240.207 39.9184 238.713 40.4643C235.336 41.6571 231.653 41.6571 228.276 40.4643C226.783 39.8977 225.43 39.0178 224.306 37.8837C223.179 36.7324 222.307 35.3562 221.748 33.845C221.132 32.1474 220.83 30.3521 220.855 28.5464C220.836 26.7431 221.142 24.9511 221.756 23.2555ZM227.864 31.4324C228.036 32.3205 228.364 33.171 228.833 33.9442C229.286 34.6766 229.913 35.2852 230.658 35.7155C231.528 36.1865 232.509 36.4158 233.498 36.3797C234.492 36.4127 235.477 36.1836 236.354 35.7155C237.109 35.2903 237.745 34.681 238.201 33.9442C238.671 33.171 238.999 32.3205 239.171 31.4324C239.362 30.4927 239.456 29.5359 239.453 28.577C239.455 27.608 239.361 26.6412 239.171 25.691C239.003 24.8019 238.674 23.9507 238.201 23.1792C237.735 22.4392 237.099 21.8214 236.346 21.3774C235.472 20.9005 234.486 20.666 233.491 20.6979C232.5 20.6627 231.518 20.8975 230.65 21.3774C229.913 21.8187 229.289 22.425 228.826 23.1487C228.353 23.9202 228.024 24.7713 227.856 25.6605C227.67 26.6112 227.575 27.5776 227.574 28.5464C227.572 29.5154 227.667 30.4821 227.856 31.4324H227.864Z" fill="white"/>
<path d="M273.881 7.00879V25.1261L282.34 16.3232H290.288L281.065 25.3093L291.334 40.7773H283.195L276.484 29.852L273.881 32.3562V40.7544H267.162V7.00879H273.881Z" fill="white"/>
<path d="M296.297 34.6997C296.583 35.2042 296.976 35.6395 297.449 35.9747C297.945 36.3235 298.498 36.582 299.083 36.7382C299.709 36.8985 300.353 36.978 301 36.9748C301.5 36.9733 302 36.917 302.488 36.8069C302.985 36.7069 303.464 36.5319 303.908 36.2877C304.329 36.0569 304.692 35.7331 304.97 35.341C305.276 34.8927 305.426 34.3562 305.397 33.8141C305.397 32.8063 304.725 32.0504 303.389 31.5236C301.56 30.8814 299.687 30.3711 297.785 29.9967C296.808 29.7753 295.854 29.5157 294.922 29.2332C294.034 28.971 293.188 28.5828 292.41 28.0804C291.696 27.6044 291.098 26.9727 290.662 26.2327C290.197 25.4042 289.968 24.4644 289.998 23.5148C289.941 22.1613 290.261 20.8186 290.922 19.6363C291.516 18.6447 292.355 17.822 293.357 17.2466C294.424 16.6483 295.587 16.2377 296.793 16.0327C298.069 15.7958 299.365 15.6782 300.664 15.6815C301.958 15.6771 303.25 15.8024 304.519 16.0556C305.699 16.2819 306.828 16.7162 307.856 17.3383C308.836 17.9387 309.669 18.753 310.291 19.7203C310.983 20.8596 311.382 22.1529 311.452 23.4842H305.069C305.082 22.9553 304.953 22.4326 304.695 21.9706C304.437 21.5086 304.06 21.1243 303.603 20.8579C302.633 20.3803 301.561 20.1446 300.48 20.1707C300.07 20.1723 299.659 20.1952 299.251 20.2395C298.836 20.2829 298.429 20.3884 298.045 20.5525C297.685 20.7014 297.367 20.9376 297.121 21.2396C296.856 21.5807 296.723 22.0066 296.747 22.4383C296.737 22.7166 296.791 22.9935 296.905 23.2477C297.018 23.5019 297.189 23.7265 297.404 23.9041C297.913 24.3216 298.499 24.6354 299.129 24.8279C299.928 25.0885 300.741 25.3026 301.565 25.4693C302.481 25.6627 303.412 25.8688 304.359 26.0877C305.325 26.3017 306.278 26.5694 307.214 26.8893C308.099 27.1807 308.936 27.6027 309.696 28.1414C310.416 28.651 311.016 29.3131 311.452 30.0807C311.921 30.9601 312.15 31.9476 312.116 32.9437C312.179 34.2663 311.888 35.5818 311.272 36.7538C310.656 37.9258 309.737 38.9115 308.611 39.6088C307.521 40.2932 306.311 40.7671 305.046 41.006C303.698 41.2722 302.328 41.4052 300.954 41.403C299.556 41.4067 298.162 41.2659 296.793 40.9831C295.51 40.7263 294.284 40.24 293.174 39.5478C292.026 38.8454 291.081 37.8568 290.431 36.679C289.78 35.5012 289.447 34.1746 289.463 32.8292H295.846C295.826 33.4818 295.981 34.128 296.297 34.6997Z" fill="white"/>
<path d="M184.706 35.7609C183.899 35.8592 183.084 35.6582 182.416 35.1959C181.954 34.5273 181.753 33.7124 181.851 32.9055V20.8196H185.6L187.89 16.3228H181.859V8.99341H175.14V16.3228H171.781L169.49 20.812H175.132V35.2417C175.088 36.2701 175.301 37.2934 175.751 38.2193C176.134 38.9512 176.716 39.56 177.43 39.9753C178.192 40.3992 179.026 40.6787 179.889 40.7998C180.867 40.947 181.855 41.0185 182.843 41.0136C183.508 41.0136 184.18 41.0136 184.874 40.9678C185.509 40.941 186.141 40.8773 186.768 40.7769V35.57C186.44 35.6392 186.109 35.6876 185.775 35.7151C185.447 35.7456 185.088 35.7609 184.706 35.7609Z" fill="white"/>
<path d="M39.9057 35.7609C39.0989 35.8585 38.2842 35.6575 37.6153 35.1959C37.153 34.5273 36.952 33.7124 37.0503 32.9055V20.8196H40.5088L42.7993 16.3228H37.0656V8.99341H30.3546V16.3228H26.9877L24.6973 20.812H30.347V35.2417C30.301 36.2695 30.5109 37.2926 30.9578 38.2193C31.3433 38.9495 31.925 39.5577 32.6374 39.9753C33.4066 40.4007 34.2479 40.6802 35.1187 40.7998C36.0966 40.947 37.0844 41.0185 38.0734 41.0136C38.7376 41.0136 39.4171 41.0136 40.1042 40.9678C40.736 40.9407 41.3656 40.877 41.99 40.7769V35.57C41.6625 35.6392 41.331 35.6876 40.9975 35.7151C40.6463 35.7456 40.2798 35.7609 39.9057 35.7609Z" fill="white"/>
<path d="M261.923 15.6668C256.281 15.6668 254.121 20.8661 254.121 20.8661H254.029V16.3234H247.646V40.7547H254.357V30.5393C254.357 24.5842 255.518 21.9273 260.595 21.9273C261.509 21.9141 262.412 22.1293 263.221 22.5534L266.1 16.9037C264.86 16.0897 263.407 15.6595 261.923 15.6668Z" fill="white"/>
<path d="M215.224 16.3306L210.727 32.8751H210.635L206.474 16.3306H199.947L195.877 32.9285H195.786L191.297 16.3306L186.922 24.9044L191.961 40.7771H198.908L203.069 24.3623H203.161L207.513 40.7771H214.422L222.126 16.3306H215.224Z" fill="white"/>
</svg>
