<svg width="40" height="40" viewBox="0 0 40 40" fill="none" xmlns="http://www.w3.org/2000/svg">
<rect x="0.526367" width="39.4737" height="39.4737" rx="10" fill="white" fill-opacity="0.1"/>
<rect x="1.02637" y="0.5" width="38.4737" height="38.4737" rx="9.5" stroke="#F6FBFF" stroke-opacity="0.7"/>
<path d="M32.1051 12.5058C31.2244 12.8862 30.2859 13.1383 29.3074 13.2608C30.314 12.669 31.0822 11.7391 31.4434 10.6183C30.5049 11.1693 29.4688 11.5584 28.3645 11.7756C27.4734 10.8413 26.2033 10.2627 24.8178 10.2627C22.1296 10.2627 19.9655 12.411 19.9655 15.0447C19.9655 15.4237 19.998 15.788 20.078 16.1349C16.0413 15.9411 12.4694 14.0361 10.0699 11.1343C9.651 11.8499 9.40527 12.669 9.40527 13.5508C9.40527 15.2065 10.2712 16.6742 11.562 17.5239C10.7819 17.5093 10.0166 17.2863 9.36827 16.9351C9.36827 16.9497 9.36827 16.9686 9.36827 16.9876C9.36827 19.3108 11.0513 21.2405 13.2584 21.685C12.8632 21.7914 12.4324 21.8425 11.9854 21.8425C11.6745 21.8425 11.3607 21.825 11.0661 21.7608C11.6952 23.6541 13.4804 25.046 15.6031 25.0912C13.9512 26.3636 11.8536 27.1302 9.58291 27.1302C9.18471 27.1302 8.80281 27.1127 8.4209 27.0646C10.5717 28.4303 13.1207 29.2101 15.8696 29.2101C24.8045 29.2101 29.6893 21.9226 29.6893 15.6059C29.6893 15.3945 29.6819 15.1905 29.6716 14.9879C30.6352 14.3145 31.4449 13.4735 32.1051 12.5058Z" fill="#F6FBFF"/>
</svg>
