<svg viewBox="0 0 157 40" fill="none" xmlns="http://www.w3.org/2000/svg">
<path d="M22.5239 9.54053V31.2231H14.9552V28.529C13.4133 30.6581 11.1927 31.8757 8.02133 31.8757C2.94507 31.8757 0 28.9208 0 23.4888V9.54053H7.56879V21.9248C7.56879 24.7922 8.74576 25.966 11.1032 25.966C13.5958 25.966 14.9552 24.5752 14.9552 21.7079V9.54053H22.5239Z" fill="white"/>
<path d="M50.6645 20.3607C50.6645 22.88 50.212 24.9233 49.4402 26.6185C47.8545 29.8777 44.8182 31.8318 40.6488 31.8318C37.7037 31.8318 35.4375 30.8749 33.85 28.8333V40H26.2812V9.54045H33.6676V12.1471C35.2989 9.93061 37.6108 8.88794 40.647 8.88794C44.8164 8.88794 47.8527 10.8438 49.4384 14.145C50.2119 15.8419 50.6645 17.8835 50.6645 20.3607ZM42.5993 20.3607C42.5993 18.8404 42.4169 17.754 42.0556 16.9704C41.3767 15.5375 40.0156 14.7976 38.158 14.7976C35.3024 14.7976 33.7623 16.5348 33.7623 19.7503V20.9241C33.7623 24.1396 35.3024 25.8785 38.158 25.8785C40.0173 25.8785 41.3767 25.1402 42.0556 23.7057C42.4169 22.9237 42.5993 21.881 42.5993 20.3607Z" fill="white"/>
<path d="M88.7812 9.54092H96.3062V11.4968C97.4832 9.67209 98.7531 8.93213 100.567 8.93213C103.286 8.93213 105.008 10.6273 105.008 13.1466C105.008 15.58 103.24 17.361 100.658 17.361C99.0706 17.361 97.7129 16.579 97.1236 15.4051C96.4886 15.6658 96.3518 16.0139 96.3518 17.5342V31.2218H88.783L88.7812 9.54092Z" fill="white"/>
<path d="M128.972 18.7528V31.2228H121.403V28.6599C119.909 30.6595 117.595 31.8316 113.924 31.8316C110.344 31.8316 107.67 30.6157 106.537 28.1823C106.083 27.3128 105.902 26.3139 105.902 25.0963C105.902 23.9224 106.083 22.9672 106.446 22.1415C108.077 18.7528 112.475 17.9708 118.002 17.9708H121.401V17.6227C121.401 16.3193 121.31 15.8417 121.038 15.2766C120.586 14.3214 119.544 13.8421 117.911 13.8421C116.144 13.8421 115.146 14.2777 114.694 15.2329C114.513 15.6668 114.467 15.9712 114.422 16.5363H106.718C106.764 15.3624 106.99 14.3635 107.397 13.4957C108.893 10.3239 112.745 8.8894 117.821 8.8894C123.304 8.8894 126.523 10.2802 128.019 13.4082C128.654 14.8427 128.972 16.6237 128.972 18.7528ZM120.994 24.7061C121.312 24.0973 121.403 23.4902 121.403 22.3164V22.012H118.502C116.327 22.012 114.559 22.2289 114.061 23.3591C113.924 23.6197 113.834 23.9241 113.834 24.316C113.834 24.7078 113.88 25.0105 114.061 25.3586C114.515 26.3155 115.692 26.662 117.053 26.662C119.091 26.6603 120.407 25.9657 120.994 24.7061Z" fill="white"/>
<path d="M156.464 0.546631V31.2232H149.077V28.6165C147.446 30.7893 145.18 31.8319 142.098 31.8319C137.928 31.8319 134.892 29.9198 133.306 26.6186C132.535 24.9234 132.082 22.8817 132.082 20.3608C132.082 17.8836 132.535 15.842 133.306 14.1468C134.848 10.8439 137.928 8.88972 142.098 8.88972C145.043 8.88972 147.265 9.84494 148.896 11.8882V0.546631H156.464ZM148.986 19.752C148.986 16.5366 147.444 14.7993 144.59 14.7993C142.731 14.7993 141.373 15.5376 140.693 16.9721C140.331 17.7541 140.149 18.8405 140.149 20.3625C140.149 21.9265 140.33 22.9692 140.693 23.7949C141.373 25.2278 142.733 25.9677 144.59 25.9677C147.446 25.9677 148.986 24.2305 148.986 21.015V19.752Z" fill="white"/>
<path d="M71.68 14.9052V20.4987H76.5598L76.3774 21.2285C75.7687 23.657 72.7395 25.2899 70.2925 25.2899C66.8879 25.2899 62.4799 23.7175 62.4799 16.2254C62.4799 10.0231 65.318 7.05656 69.6576 7.05656C72.0308 7.05656 73.8603 7.59471 74.9601 9.17891C75.4179 9.87515 75.8424 10.8287 75.8863 11.6225H84.5496C84.5496 11.6225 84.7548 7.7713 81.4887 4.41455C81.4361 4.36074 81.3853 4.31365 81.3344 4.2632C78.7015 1.52365 74.7409 0 69.8382 0C59.8348 0 53.3711 6.38555 53.3711 16.2674C53.3711 27.6965 61.5591 31.7528 68.5701 31.7528C72.5044 31.7528 76.0494 30.6261 78.2034 28.4079L78.3051 31.2231H85.0846V31.0129V26.1964V14.9052H71.68Z" fill="white"/>
</svg>
