<svg viewBox="0 0 229 50" fill="none" xmlns="http://www.w3.org/2000/svg">
<path fill-rule="evenodd" clip-rule="evenodd" d="M8.20495 7.01186H22.1255V20.8305L27.514 26.1807C28.5579 24.8974 29.185 23.2675 29.185 21.4973V0.00264598L21.6532 0H7.53287C5.7508 0 4.11029 0.624452 2.81641 1.66035L8.20495 7.01186Z" fill="white"/>
<path fill-rule="evenodd" clip-rule="evenodd" d="M20.8715 21.9654H12.4322L6.92586 21.8781L7.06081 15.1732V8.25258L1.62331 2.85742C0.609899 4.13146 0 5.73625 0 7.47863V21.4984C0 25.6116 3.3895 28.9772 7.53179 28.9772H21.6534C23.4064 28.9772 25.0231 28.3713 26.3077 27.3632L20.8702 21.9654H20.8715Z" fill="white"/>
<path fill-rule="evenodd" clip-rule="evenodd" d="M57.1073 4.73511L49.6879 24.6567H43.6233L36.2305 4.73511H41.3425L46.2759 19.4124L46.653 20.5396L47.034 19.4163L51.9966 4.73511H57.1073ZM73.4383 21.0516V24.6567H59.0481V21.3228C61.0564 19.8516 62.7154 18.6159 63.9855 17.6409C65.2966 16.6354 66.3312 15.7781 67.0522 15.0955C67.8063 14.3797 68.3064 13.7897 68.5842 13.2856C68.8687 12.7657 69.0076 12.2206 69.0076 11.6583C69.0076 10.8381 68.6676 10.1885 68.0259 9.76909C67.4293 9.38675 66.7281 9.19094 65.9382 9.19094C64.8005 9.19094 63.7778 9.39998 62.8954 9.80084C62.1505 10.1475 61.448 10.6026 60.8077 11.1635L58.5454 8.4117C58.9793 7.97115 59.445 7.58615 59.9411 7.25541C60.5352 6.86116 61.1675 6.53305 61.8251 6.28036C62.4826 6.02502 63.1639 5.83319 63.8426 5.71148C64.5226 5.58976 65.2013 5.5289 65.8496 5.5289C66.945 5.5289 67.9624 5.6784 68.8766 5.97872C69.7868 6.27639 70.5806 6.69975 71.2329 7.23159C71.8838 7.76476 72.3918 8.41038 72.753 9.15919C73.1102 9.90404 73.2901 10.7441 73.2901 11.6596C73.2901 12.3542 73.1658 13.0422 72.9131 13.709C72.6564 14.3837 72.2516 15.0716 71.7105 15.7503C71.1575 16.4449 70.4483 17.1765 69.5937 17.9253C68.7364 18.6768 67.7018 19.4825 66.5243 20.3107L65.4686 21.0516H73.4383Z" fill="white"/>
<path fill-rule="evenodd" clip-rule="evenodd" d="M89.6662 17.6328C89.3526 17.044 88.9253 16.5347 88.3987 16.1206C87.8616 15.7065 87.253 15.3638 86.5743 15.1045C85.889 14.8439 85.1759 14.6044 84.4549 14.3888C83.7286 14.1731 83.0234 13.9615 82.3341 13.7537C81.6369 13.5474 81.0032 13.2986 80.4423 13.0235C79.8681 12.7324 79.3998 12.3686 79.0558 11.9373C78.6986 11.4901 78.5186 10.9199 78.5186 10.2452C78.5186 9.68555 78.6417 9.16032 78.8864 8.69198C79.1352 8.22496 79.4725 7.8188 79.9012 7.47615C80.3219 7.14011 80.8273 6.87551 81.4001 6.69162C81.969 6.50904 82.5908 6.4204 83.2483 6.4204C84.3702 6.4204 85.4313 6.62282 86.4023 7.02236C87.3126 7.39942 88.1183 7.99344 88.7996 8.7912L89.6291 7.85982C88.92 7.06602 88.0574 6.44025 87.0599 5.99704C86.0055 5.53003 84.7513 5.29321 83.337 5.29321C82.4863 5.29321 81.6766 5.41625 80.9278 5.65174C80.1777 5.89121 79.5122 6.23386 78.9473 6.6678C78.3903 7.0991 77.9445 7.63226 77.6243 8.2501C77.3068 8.86397 77.148 9.56648 77.148 10.3351C77.148 11.416 77.4153 12.2799 77.9524 12.8964C78.5014 13.5275 79.1987 14.0422 80.0335 14.4219C80.8789 14.8082 81.8089 15.1244 82.7985 15.3638C83.8133 15.6125 84.7632 15.9089 85.6297 16.2423C86.5108 16.5836 87.257 17.0361 87.8418 17.5812C88.4556 18.15 88.7639 18.9505 88.7639 19.9665C88.7639 20.4018 88.6832 20.8662 88.5191 21.3451C88.3551 21.8372 88.0574 22.2884 87.642 22.6945C87.2292 23.0927 86.6709 23.4301 85.9935 23.6947C85.3122 23.9553 84.4589 24.089 83.4534 24.089C82.739 24.089 82.0696 24.0083 81.4689 23.8455C80.867 23.6868 80.2967 23.4711 79.7728 23.1986C79.2476 22.9274 78.77 22.6125 78.3572 22.2593C78.0053 21.9682 77.6878 21.6586 77.4113 21.3411L76.5977 22.2963C77.2962 23.1338 78.2091 23.8283 79.3124 24.3655C80.4701 24.9317 81.8526 25.2161 83.4203 25.2161C84.6878 25.2161 85.762 25.0442 86.6193 24.7121C87.4687 24.3813 88.1672 23.9514 88.6964 23.4301C89.2164 22.9141 89.5894 22.3373 89.8064 21.7142C90.026 21.0805 90.1345 20.4547 90.1345 19.8488C90.1345 18.9663 89.9784 18.2188 89.6662 17.6328ZM110.277 18.7547C109.905 19.825 109.368 20.7669 108.689 21.5607C108.004 22.3545 107.171 22.9843 106.213 23.4222C105.255 23.8654 104.169 24.089 102.986 24.089C101.783 24.089 100.684 23.8654 99.7262 23.4222C98.7697 22.9843 97.9349 22.3532 97.2522 21.5607C96.5722 20.7669 96.043 19.825 95.6778 18.752C95.314 17.6857 95.1288 16.5109 95.1288 15.2553C95.1288 13.9826 95.314 12.7946 95.6778 11.7256C96.043 10.6566 96.5722 9.7173 97.2522 8.93144C97.9349 8.14691 98.7697 7.52642 99.7262 7.08719C100.689 6.64399 101.783 6.41908 102.986 6.41908C104.169 6.41908 105.255 6.64399 106.213 7.08719C107.171 7.52642 108.004 8.14691 108.687 8.93144C109.368 9.71201 109.904 10.6513 110.277 11.7256C110.65 12.7959 110.838 13.9826 110.838 15.2553C110.838 16.5109 110.65 17.6857 110.277 18.7547ZM111.552 11.3194C111.118 10.1115 110.49 9.04654 109.688 8.16014C108.887 7.26976 107.909 6.56196 106.774 6.0579C105.639 5.54987 104.366 5.29454 102.986 5.29454C101.588 5.29454 100.304 5.54987 99.1825 6.0579C98.0592 6.56196 97.0815 7.26976 96.2838 8.16014C95.4781 9.05051 94.8536 10.1115 94.4157 11.3194C93.9831 12.526 93.7582 13.8516 93.7582 15.2553C93.7582 16.6577 93.9831 17.9834 94.4157 19.1899C94.8523 20.3978 95.4781 21.4589 96.2838 22.3492C97.0855 23.2396 98.0592 23.9474 99.1811 24.4515C100.308 24.9595 101.588 25.2148 102.986 25.2148C104.365 25.2148 105.639 24.9595 106.774 24.4515C107.905 23.9474 108.887 23.2396 109.688 22.3492C110.49 21.4589 111.118 20.3978 111.552 19.1899C111.989 17.9834 112.21 16.6577 112.21 15.2553C112.21 13.853 111.989 12.526 111.552 11.3194ZM127.313 23.7357V24.8616H116.679V5.61867H117.935V23.7357H127.313ZM145.151 5.61867V17.523C145.151 19.8938 144.529 21.7922 143.304 23.1615C142.08 24.5242 140.236 25.2161 137.812 25.2161C136.609 25.2161 135.536 25.0323 134.624 24.6698C133.719 24.3086 132.949 23.7966 132.333 23.143C131.719 22.4921 131.249 21.6824 130.945 20.7444C130.633 19.7958 130.477 18.7136 130.477 17.523V5.61867H131.731V17.4952C131.731 19.5392 132.252 21.1665 133.283 22.3294C134.316 23.4963 135.84 24.089 137.812 24.089C139.804 24.089 141.336 23.4963 142.361 22.3294C143.38 21.1651 143.897 19.5392 143.897 17.4952V5.61867H145.151ZM162.926 5.61867V6.74057H156.596V24.8616H155.341V6.74057H149.008V5.61867H162.926ZM166.786 24.8616H168.04V5.61999H166.786V24.8616ZM189.053 18.7547C188.68 19.825 188.143 20.7669 187.466 21.5607C186.779 22.3545 185.947 22.9843 184.988 23.4222C184.031 23.8654 182.944 24.089 181.761 24.089C180.558 24.089 179.46 23.8654 178.502 23.4222C177.545 22.9843 176.711 22.3532 176.028 21.5607C175.348 20.7669 174.818 19.825 174.454 18.752C174.089 17.6857 173.905 16.5109 173.905 15.2553C173.905 13.9826 174.089 12.7946 174.454 11.7256C174.818 10.6566 175.348 9.71333 176.028 8.93144C176.711 8.14691 177.545 7.52642 178.502 7.08719C179.464 6.64399 180.558 6.41908 181.761 6.41908C182.944 6.41908 184.031 6.64399 184.989 7.08719C185.947 7.52642 186.779 8.14691 187.462 8.93144C188.143 9.71201 188.676 10.6513 189.053 11.7256C189.425 12.7959 189.614 13.9826 189.614 15.2553C189.614 16.5109 189.425 17.6857 189.053 18.7547ZM190.327 11.3194C189.895 10.1115 189.265 9.04654 188.465 8.16014C187.662 7.26976 186.684 6.56593 185.549 6.0579C184.415 5.54987 183.141 5.29454 181.761 5.29454C180.363 5.29454 179.079 5.54987 177.957 6.0579C176.835 6.56196 175.856 7.26976 175.06 8.16014C174.253 9.05051 173.629 10.1115 173.191 11.3194C172.754 12.526 172.534 13.8516 172.534 15.2553C172.534 16.6577 172.754 17.9834 173.191 19.1899C173.627 20.3978 174.253 21.4589 175.059 22.3492C175.862 23.2396 176.835 23.9474 177.956 24.4515C179.085 24.9595 180.363 25.2148 181.761 25.2148C183.141 25.2148 184.415 24.9595 185.549 24.4515C186.68 23.9474 187.662 23.2396 188.465 22.3492C189.265 21.4589 189.893 20.3978 190.327 19.1899C190.764 17.9834 190.985 16.6577 190.985 15.2553C190.985 13.853 190.765 12.526 190.327 11.3194ZM210.535 5.61867V24.8616H209.212L197.071 8.06223L196.709 7.56214V24.8616H195.455V5.61867H196.838L208.919 22.1825L209.281 22.6786V5.61867H210.535ZM228.28 19.8488C228.28 20.4507 228.172 21.0792 227.952 21.7142C227.74 22.336 227.362 22.9181 226.841 23.4301C226.311 23.9514 225.614 24.3827 224.763 24.7108C223.911 25.0442 222.832 25.2148 221.57 25.2148C219.998 25.2148 218.616 24.9304 217.458 24.3655C216.355 23.8297 215.444 23.1351 214.743 22.2963L215.557 21.3411C215.837 21.6586 216.155 21.9669 216.503 22.2593C216.921 22.6138 217.397 22.93 217.918 23.1986C218.444 23.4711 219.012 23.6881 219.614 23.8455C220.219 24.0083 220.884 24.089 221.599 24.089C222.608 24.089 223.462 23.9553 224.139 23.6947C224.816 23.4301 225.375 23.0941 225.786 22.6945C226.208 22.2884 226.505 21.8372 226.669 21.3451C226.827 20.8662 226.909 20.4018 226.909 19.9665C226.909 18.9505 226.601 18.1461 225.987 17.5798C225.402 17.0361 224.656 16.5836 223.775 16.2436C222.913 15.9089 221.959 15.6125 220.948 15.3638C219.958 15.1244 219.03 14.8082 218.179 14.4205C217.349 14.0435 216.647 13.5262 216.098 12.8964C215.566 12.2786 215.292 11.416 215.292 10.3351C215.292 9.5678 215.454 8.86264 215.768 8.2501C216.09 7.63226 216.536 7.0991 217.091 6.6678C217.658 6.23386 218.322 5.89121 219.073 5.65174C219.822 5.41625 220.634 5.29454 221.481 5.29454C222.901 5.29454 224.151 5.52871 225.205 5.99704C226.203 6.44025 227.071 7.06602 227.78 7.85849L226.949 8.78988C226.264 7.99344 225.458 7.40074 224.548 7.02236C223.578 6.62282 222.52 6.4204 221.394 6.4204C220.74 6.4204 220.118 6.50904 219.55 6.69294C218.975 6.87551 218.471 7.13879 218.047 7.47747C217.621 7.8188 217.281 8.22496 217.036 8.6933C216.788 9.16032 216.664 9.68555 216.664 10.2465C216.664 10.9212 216.844 11.4901 217.201 11.9373C217.549 12.3686 218.015 12.7337 218.59 13.0221C219.149 13.3 219.786 13.5474 220.48 13.7537C221.168 13.9615 221.874 14.1731 222.6 14.3888C223.321 14.6044 224.036 14.8439 224.725 15.1045C225.399 15.3638 226.011 15.7065 226.544 16.1206C227.069 16.5347 227.499 17.0427 227.81 17.6328C228.124 18.2228 228.28 18.9677 228.28 19.8488Z" fill="white"/>
<path d="M75.8809 37.2398H76.8175V47.1345H75.8809V37.2398ZM79.4132 39.817H80.3063V41.1268C80.6635 40.6253 81.0591 40.2496 81.4917 40.0022C81.9256 39.7522 82.3979 39.6278 82.9073 39.6278C83.4259 39.6278 83.8863 39.7667 84.2871 40.0446C84.6893 40.3224 84.9857 40.6981 85.1775 41.1691C85.368 41.6388 85.4633 42.373 85.4633 43.3679V47.1345H84.5769V43.6431C84.5769 42.8003 84.5438 42.2381 84.4763 41.955C84.3705 41.4707 84.1694 41.1069 83.877 40.8622C83.5833 40.6174 83.201 40.4957 82.7287 40.4957C82.1889 40.4957 81.706 40.6836 81.2787 41.0606C80.8513 41.4377 80.5695 41.9034 80.4333 42.4603C80.3579 42.7831 80.3155 43.3428 80.3076 44.1405L80.3063 47.1345H79.4132V39.817ZM91.4578 40.6174L90.8836 41.2419C90.4073 40.7524 89.9416 40.5089 89.4878 40.5089C89.1981 40.5089 88.9507 40.6095 88.7443 40.8119C88.5379 41.013 88.436 41.2485 88.436 41.5184C88.436 41.7565 88.5207 41.9814 88.6901 42.1971C88.8396 42.3902 89.1306 42.6112 89.5659 42.8612L89.7617 42.971C90.4245 43.3335 90.8756 43.6841 91.1138 44.0201C91.3466 44.3615 91.4644 44.7438 91.4644 45.1711C91.4644 45.7705 91.2646 46.2798 90.8651 46.6966C90.4655 47.1146 89.9654 47.3223 89.3661 47.3223C88.9666 47.3223 88.5856 47.2297 88.2217 47.0471C87.8579 46.8619 87.5576 46.6106 87.3195 46.2864L87.8804 45.6143C88.3355 46.1568 88.8184 46.428 89.3278 46.428C89.685 46.428 89.9892 46.3063 90.2406 46.0642C90.4907 45.8221 90.6163 45.5376 90.6163 45.2108C90.6163 44.9409 90.533 44.7015 90.3676 44.4911C90.2221 44.3099 89.9178 44.0889 89.4548 43.8257L89.2457 43.7106C88.6199 43.3706 88.1953 43.0332 87.9704 42.7024C87.7455 42.3704 87.6317 41.9907 87.6317 41.5647C87.6317 41.009 87.8116 40.5473 88.1715 40.1795C88.53 39.8117 88.9838 39.6278 89.5315 39.6278C90.1692 39.6278 90.8108 39.9586 91.4578 40.6174ZM93.6447 39.817H94.5311V41.1612C94.8843 40.6505 95.2891 40.2668 95.7482 40.0115C96.2073 39.7561 96.7206 39.6278 97.2855 39.6278C98.2712 39.6278 99.1152 40.0022 99.8164 40.7524C100.518 41.4998 100.868 42.4008 100.868 43.4552C100.868 44.5308 100.522 45.445 99.8257 46.1965C99.1311 46.9466 98.2923 47.3223 97.312 47.3223C96.7577 47.3223 96.251 47.2019 95.7866 46.9598C95.3235 46.7177 94.9055 46.3565 94.5311 45.8763V49.8109H93.6447V39.817ZM97.2154 40.5367C96.4415 40.5367 95.7906 40.8211 95.2614 41.39C94.7322 41.9589 94.4676 42.668 94.4676 43.5161C94.4676 44.0717 94.5853 44.5718 94.8208 45.015C95.0576 45.4596 95.395 45.8115 95.8355 46.0721C96.2748 46.3314 96.7392 46.4611 97.2273 46.4611C97.7089 46.4611 98.16 46.3301 98.5834 46.0681C99.0068 45.8062 99.3428 45.4397 99.5928 44.9687C99.8442 44.4977 99.9699 44.0043 99.9699 43.4883C99.9699 42.9684 99.8455 42.4749 99.5968 42.0092C99.3481 41.5422 99.0134 41.181 98.5913 40.923C98.1719 40.665 97.7129 40.5367 97.2154 40.5367ZM103.445 36.8032C103.649 36.8032 103.822 36.88 103.968 37.0321C104.112 37.1842 104.185 37.3681 104.185 37.5838C104.185 37.7941 104.112 37.9754 103.968 38.1289C103.822 38.281 103.649 38.3564 103.445 38.3564C103.246 38.3564 103.072 38.281 102.929 38.1289C102.784 37.9754 102.711 37.7941 102.711 37.5838C102.711 37.3681 102.784 37.1842 102.928 37.0321C103.074 36.88 103.247 36.8032 103.445 36.8032ZM102.998 39.817H103.898V47.1331H102.998V39.817ZM106.001 39.817H106.914V40.886C107.185 40.4639 107.473 40.1491 107.774 39.9414C108.076 39.7323 108.391 39.6278 108.718 39.6278C108.965 39.6278 109.228 39.7112 109.509 39.8765L109.043 40.6703C108.856 40.5857 108.699 40.5433 108.571 40.5433C108.274 40.5433 107.987 40.6717 107.711 40.9296C107.434 41.1876 107.224 41.5872 107.08 42.1296C106.978 42.5133 106.924 43.2528 106.914 44.3509V47.1345H106.001V39.817ZM111.174 36.8032C111.377 36.8032 111.551 36.88 111.696 37.0321C111.841 37.1842 111.913 37.3681 111.913 37.5838C111.913 37.7941 111.84 37.9754 111.696 38.1289C111.551 38.281 111.378 38.3564 111.173 38.3564C110.975 38.3564 110.801 38.281 110.657 38.1289C110.511 37.9754 110.44 37.7941 110.44 37.5838C110.44 37.3681 110.511 37.1842 110.657 37.0321C110.801 36.88 110.976 36.8032 111.174 36.8032ZM110.727 39.817H111.627V47.1331H110.727V39.817ZM114.068 39.817H114.961V41.1268C115.318 40.6253 115.713 40.2496 116.146 40.0022C116.58 39.7522 117.052 39.6278 117.562 39.6278C118.08 39.6278 118.541 39.7667 118.943 40.0446C119.344 40.3224 119.64 40.6981 119.832 41.1691C120.022 41.6388 120.119 42.373 120.119 43.3679V47.1345H119.233V43.6431C119.233 42.8003 119.198 42.2381 119.131 41.955C119.025 41.4707 118.824 41.1069 118.531 40.8622C118.238 40.6174 117.855 40.4957 117.383 40.4957C116.843 40.4957 116.36 40.6836 115.933 41.0606C115.506 41.4377 115.224 41.9034 115.088 42.4603C115.003 42.8228 114.961 43.487 114.961 44.4501V47.1345H114.068V39.817ZM128.598 39.817H129.498V45.6474C129.498 46.6741 129.413 47.4255 129.242 47.9005C129.008 48.5739 128.603 49.0912 128.025 49.455C127.447 49.8175 126.751 50.0001 125.94 50.0001C125.345 50.0001 124.81 49.9114 124.337 49.7341C123.863 49.5569 123.477 49.3187 123.179 49.0197C122.881 48.7221 122.608 48.2868 122.358 47.7126H123.326C123.591 48.1968 123.929 48.5554 124.346 48.7882C124.763 49.0224 125.279 49.1388 125.895 49.1388C126.504 49.1388 127.016 49.0197 127.435 48.7789C127.853 48.5382 128.152 48.2365 128.331 47.874C128.509 47.5102 128.598 46.9254 128.598 46.1184V45.7414C128.263 46.1912 127.853 46.5351 127.368 46.7733C126.884 47.0141 126.369 47.1345 125.825 47.1345C125.187 47.1345 124.588 46.9678 124.027 46.6331C123.466 46.2997 123.032 45.8498 122.727 45.2836C122.421 44.72 122.268 44.0982 122.268 43.4221C122.268 42.7448 122.426 42.1124 122.747 41.5276C123.064 40.9429 123.506 40.4798 124.07 40.1385C124.632 39.7985 125.226 39.6278 125.85 39.6278C126.369 39.6278 126.853 39.7416 127.302 39.9678C127.75 40.1941 128.183 40.5671 128.598 41.0871V39.817ZM125.965 40.5367C125.46 40.5367 124.99 40.665 124.556 40.923C124.122 41.181 123.782 41.5369 123.538 41.992C123.29 42.4471 123.167 42.9393 123.167 43.4685C123.167 44.2715 123.421 44.9343 123.932 45.4596C124.441 45.9835 125.103 46.2467 125.915 46.2467C126.735 46.2467 127.394 45.9861 127.894 45.4662C128.393 44.9462 128.643 44.2623 128.643 43.4155C128.643 42.8638 128.528 42.3704 128.299 41.9391C128.069 41.5051 127.743 41.1638 127.324 40.9124C126.903 40.6611 126.451 40.5367 125.965 40.5367ZM145.093 39.0761L144.354 39.6754C143.946 39.1145 143.455 38.6898 142.885 38.4001C142.312 38.1117 141.685 37.9675 141 37.9675C140.252 37.9675 139.559 38.1566 138.923 38.5363C138.284 38.9134 137.79 39.4227 137.44 40.0618C137.089 40.7008 136.913 41.4191 136.913 42.2182C136.913 43.4235 137.306 44.4303 138.091 45.2373C138.874 46.0443 139.863 46.4478 141.058 46.4478C142.37 46.4478 143.47 45.9054 144.354 44.8206L145.095 45.4119C144.626 46.0404 144.043 46.5259 143.343 46.8685C142.644 47.2125 141.864 47.3832 141.001 47.3832C139.361 47.3832 138.065 46.8064 137.118 45.654C136.323 44.6816 135.925 43.5068 135.925 42.1296C135.925 40.6822 136.406 39.4638 137.37 38.4742C138.333 37.4859 139.539 36.9924 140.988 36.9924C141.864 36.9924 142.655 37.1737 143.359 37.5401C144.065 37.9053 144.642 38.4173 145.093 39.0761ZM147.422 36.9911H148.313V41.1281C148.675 40.6253 149.073 40.2496 149.505 40.0009C149.939 39.7522 150.409 39.6278 150.914 39.6278C151.433 39.6278 151.893 39.7667 152.296 40.0446C152.696 40.3224 152.993 40.6968 153.185 41.1651C153.376 41.6335 153.472 42.3677 153.472 43.3679V47.1345H152.579V43.6431C152.579 42.8003 152.547 42.2381 152.483 41.955C152.372 41.4707 152.173 41.1069 151.88 40.8622C151.589 40.6174 151.208 40.4957 150.736 40.4957C150.196 40.4957 149.713 40.6836 149.286 41.0606C148.858 41.4377 148.577 41.9034 148.442 42.4603C148.365 42.7779 148.323 43.3388 148.315 44.1392V47.1345H147.422V36.9911ZM162.889 39.817V47.1331H162.009V45.8763C161.635 46.3565 161.215 46.7177 160.749 46.9598C160.284 47.2019 159.776 47.3223 159.223 47.3223C158.241 47.3223 157.402 46.9466 156.708 46.1965C156.013 45.445 155.665 44.5308 155.665 43.4552C155.665 42.4008 156.016 41.4998 156.717 40.751C157.418 40.0022 158.262 39.6278 159.248 39.6278C159.817 39.6278 160.333 39.7561 160.794 40.0115C161.256 40.2668 161.661 40.6505 162.009 41.1625V39.817H162.889ZM159.318 40.5367C158.821 40.5367 158.361 40.665 157.942 40.923C157.52 41.181 157.185 41.5422 156.937 42.0079C156.688 42.4749 156.565 42.9684 156.565 43.4896C156.565 44.0056 156.689 44.4977 156.941 44.9687C157.192 45.4397 157.528 45.8062 157.951 46.0681C158.375 46.3301 158.827 46.4611 159.313 46.4611C159.801 46.4611 160.265 46.3314 160.702 46.0721C161.14 45.8115 161.477 45.4596 161.713 45.015C161.948 44.5718 162.066 44.0717 162.066 43.5161C162.066 42.6694 161.801 41.9602 161.272 41.39C160.743 40.8211 160.092 40.5367 159.318 40.5367ZM165.491 39.817H166.383V41.1268C166.74 40.6253 167.136 40.2496 167.569 40.0022C168.002 39.7522 168.474 39.6278 168.985 39.6278C169.502 39.6278 169.964 39.7667 170.365 40.0446C170.766 40.3224 171.062 40.6981 171.254 41.1691C171.446 41.6388 171.541 42.373 171.541 43.3679V47.1345H170.655V43.6431C170.655 42.8003 170.62 42.2381 170.553 41.955C170.447 41.4707 170.247 41.1069 169.954 40.8622C169.66 40.6174 169.279 40.4957 168.806 40.4957C168.267 40.4957 167.782 40.6836 167.355 41.0606C166.928 41.4377 166.646 41.9034 166.511 42.4603C166.436 42.7831 166.392 43.3428 166.384 44.1405V47.1345H165.491V39.817ZM180.021 39.817H180.921V45.6474C180.921 46.6741 180.835 47.4255 180.664 47.9005C180.432 48.5739 180.025 49.0912 179.447 49.455C178.869 49.8175 178.175 50.0001 177.362 50.0001C176.767 50.0001 176.232 49.9114 175.759 49.7341C175.285 49.5569 174.899 49.3187 174.601 49.0197C174.305 48.7221 174.03 48.2868 173.78 47.7126H174.748C175.013 48.1968 175.353 48.5554 175.768 48.7882C176.185 49.0224 176.702 49.1388 177.317 49.1388C177.926 49.1388 178.439 49.0197 178.857 48.7789C179.277 48.5382 179.574 48.2365 179.753 47.874C179.932 47.5102 180.021 46.9254 180.021 46.1184V45.7414C179.685 46.1912 179.275 46.5351 178.791 46.7733C178.306 47.0141 177.792 47.1345 177.247 47.1345C176.609 47.1345 176.01 46.9678 175.449 46.6331C174.888 46.2997 174.456 45.8498 174.149 45.2836C173.843 44.72 173.69 44.0982 173.69 43.4221C173.69 42.7448 173.848 42.1124 174.169 41.5276C174.486 40.9429 174.928 40.4798 175.492 40.1385C176.054 39.7985 176.648 39.6278 177.274 39.6278C177.792 39.6278 178.275 39.7416 178.724 39.9678C179.172 40.1941 179.605 40.5671 180.02 41.0871V39.817H180.021ZM177.389 40.5367C176.882 40.5367 176.412 40.665 175.978 40.923C175.546 41.181 175.206 41.5369 174.96 41.992C174.712 42.4471 174.589 42.9393 174.589 43.4685C174.589 44.2715 174.845 44.9343 175.354 45.4596C175.865 45.9835 176.525 46.2467 177.337 46.2467C178.157 46.2467 178.818 45.9861 179.316 45.4662C179.816 44.9462 180.065 44.2623 180.065 43.4155C180.065 42.8638 179.951 42.3704 179.721 41.9391C179.492 41.5051 179.166 41.1638 178.746 40.9124C178.325 40.6611 177.874 40.5367 177.389 40.5367ZM186.652 39.6278C187.834 39.6278 188.777 40.1014 189.484 41.0474C189.985 41.7155 190.239 42.549 190.248 43.5492H184.013C184.03 44.4012 184.287 45.0997 184.784 45.6448C185.282 46.1898 185.896 46.4611 186.627 46.4611C186.979 46.4611 187.323 46.3962 187.656 46.2666C187.99 46.1369 188.274 45.9636 188.507 45.7493C188.741 45.5336 188.994 45.1857 189.267 44.7068L190.018 45.1235C189.772 45.6342 189.487 46.047 189.165 46.3605C188.841 46.6741 188.477 46.9135 188.075 47.0776C187.67 47.2403 187.213 47.3223 186.703 47.3223C185.573 47.3223 184.689 46.9307 184.051 46.1488C183.414 45.3669 183.095 44.4819 183.095 43.4949C183.095 42.5675 183.365 41.7406 183.904 41.013C184.588 40.0895 185.505 39.6278 186.652 39.6278ZM186.666 40.5288C185.986 40.5288 185.401 40.7603 184.911 41.222C184.554 41.5581 184.284 42.0634 184.102 42.7355H189.267C189.147 42.2328 188.974 41.8319 188.747 41.5316C188.519 41.2313 188.217 40.9892 187.844 40.804C187.47 40.6214 187.077 40.5288 186.666 40.5288Z" fill="white"/>
</svg>
